NotoSerifLao-Bold.ufo
<glyph name="exclam" format="1">
  <advance width="782"/>
  <unicode hex="0021"/>
  <outline>
    <contour>
      <point x="213" y="1462" type="line"/>
      <point x="569" y="1462" type="line"/>
      <point x="449" y="467" type="line"/>
      <point x="334" y="467" type="line"/>
    </contour>
    <contour>
      <point x="225" y="147" type="qcurve" smooth="yes"/>
      <point x="225" y="194"/>
      <point x="251" y="257"/>
      <point x="296" y="295"/>
      <point x="358" y="311"/>
      <point x="393" y="311" type="qcurve" smooth="yes"/>
      <point x="427" y="311"/>
      <point x="488" y="295"/>
      <point x="534" y="257"/>
      <point x="561" y="194"/>
      <point x="561" y="147" type="qcurve" smooth="yes"/>
      <point x="561" y="101"/>
      <point x="534" y="39"/>
      <point x="488" y="1"/>
      <point x="427" y="-16"/>
      <point x="393" y="-16" type="qcurve" smooth="yes"/>
      <point x="358" y="-16"/>
      <point x="296" y="1"/>
      <point x="251" y="39"/>
      <point x="225" y="101"/>
    </contour>
  </outline>
</glyph>
<glyph name="quotedbl" format="1">
  <advance width="1040"/>
  <unicode hex="0022"/>
  <outline>
    <contour>
      <point x="584" y="1462" type="line"/>
      <point x="903" y="1462" type="line"/>
      <point x="831" y="899" type="line"/>
      <point x="696" y="899" type="line"/>
    </contour>
    <contour>
      <point x="137" y="1462" type="line"/>
      <point x="457" y="1462" type="line"/>
      <point x="365" y="899" type="line"/>
      <point x="229" y="899" type="line"/>
    </contour>
  </outline>
</glyph>
<glyph name="numbersign" format="1">
  <advance width="1145"/>
  <unicode hex="0023"/>
  <outline>
    <contour>
      <point x="1022" y="551" type="line"/>
      <point x="1022" y="410" type="line"/>
      <point x="766" y="410" type="line"/>
      <point x="690" y="0" type="line"/>
      <point x="545" y="0" type="line"/>
      <point x="621" y="410" type="line"/>
      <point x="408" y="410" type="line"/>
      <point x="330" y="0" type="line"/>
      <point x="184" y="0" type="line"/>
      <point x="262" y="410" type="line"/>
      <point x="57" y="410" type="line"/>
      <point x="57" y="551" type="line"/>
      <point x="289" y="551" type="line"/>
      <point x="360" y="922" type="line"/>
      <point x="123" y="922" type="line"/>
      <point x="123" y="1065" type="line"/>
      <point x="387" y="1065" type="line"/>
      <point x="459" y="1462" type="line"/>
      <point x="606" y="1462" type="line"/>
      <point x="532" y="1065" type="line"/>
      <point x="745" y="1065" type="line"/>
      <point x="821" y="1462" type="line"/>
      <point x="967" y="1462" type="line"/>
      <point x="891" y="1065" type="line"/>
      <point x="1087" y="1065" type="line"/>
      <point x="1087" y="922" type="line"/>
      <point x="864" y="922" type="line"/>
      <point x="795" y="551" type="line"/>
    </contour>
    <contour>
      <point x="434" y="551" type="line"/>
      <point x="649" y="551" type="line"/>
      <point x="721" y="922" type="line"/>
      <point x="506" y="922" type="line"/>
    </contour>
  </outline>
</glyph>
<glyph name="dollar" format="1">
  <advance width="1145"/>
  <unicode hex="0024"/>
  <outline>
    <contour>
      <point x="639" y="1556" type="line"/>
      <point x="639" y="1401" type="line"/>
      <point x="730" y="1398"/>
      <point x="862" y="1364"/>
      <point x="948" y="1309"/>
      <point x="989" y="1237"/>
      <point x="989" y="1196" type="qcurve" smooth="yes"/>
      <point x="989" y="1131"/>
      <point x="877" y="1047"/>
      <point x="764" y="1047" type="qcurve"/>
      <point x="764" y="1077"/>
      <point x="750" y="1147"/>
      <point x="720" y="1212"/>
      <point x="673" y="1265"/>
      <point x="639" y="1280" type="qcurve"/>
      <point x="639" y="881" type="line"/>
      <point x="645" y="878"/>
      <point x="679" y="865"/>
      <point x="690" y="860" type="qcurve" smooth="yes"/>
      <point x="784" y="823"/>
      <point x="918" y="745"/>
      <point x="1003" y="653"/>
      <point x="1042" y="546"/>
      <point x="1042" y="481" type="qcurve" smooth="yes"/>
      <point x="1042" y="403"/>
      <point x="987" y="270"/>
      <point x="884" y="168"/>
      <point x="734" y="103"/>
      <point x="639" y="92" type="qcurve"/>
      <point x="639" y="-162" type="line"/>
      <point x="524" y="-162" type="line"/>
      <point x="524" y="88" type="line"/>
      <point x="407" y="91"/>
      <point x="245" y="145"/>
      <point x="144" y="227"/>
      <point x="100" y="327"/>
      <point x="100" y="375" type="qcurve" smooth="yes"/>
      <point x="100" y="420"/>
      <point x="133" y="482"/>
      <point x="187" y="521"/>
      <point x="256" y="539"/>
      <point x="293" y="539" type="qcurve"/>
      <point x="293" y="462"/>
      <point x="326" y="342"/>
      <point x="387" y="257"/>
      <point x="472" y="205"/>
      <point x="524" y="197" type="qcurve"/>
      <point x="524" y="639" type="line"/>
      <point x="489" y="653" type="line" smooth="yes"/>
      <point x="391" y="693"/>
      <point x="260" y="775"/>
      <point x="179" y="868"/>
      <point x="145" y="976"/>
      <point x="145" y="1042" type="qcurve" smooth="yes"/>
      <point x="145" y="1116"/>
      <point x="201" y="1239"/>
      <point x="301" y="1331"/>
      <point x="440" y="1390"/>
      <point x="524" y="1399" type="qcurve"/>
      <point x="524" y="1556" type="line"/>
    </contour>
    <contour>
      <point x="799" y="389" type="qcurve" smooth="yes"/>
      <point x="799" y="454"/>
      <point x="719" y="546"/>
      <point x="639" y="588" type="qcurve"/>
      <point x="639" y="201" type="line"/>
      <point x="716" y="218"/>
      <point x="799" y="320"/>
    </contour>
    <contour>
      <point x="385" y="1128" type="qcurve" smooth="yes"/>
      <point x="385" y="1101"/>
      <point x="397" y="1051"/>
      <point x="429" y="1004"/>
      <point x="483" y="959"/>
      <point x="524" y="936" type="qcurve"/>
      <point x="524" y="1290" type="line"/>
      <point x="464" y="1279"/>
      <point x="385" y="1198"/>
    </contour>
  </outline>
</glyph>
<glyph name="percent" format="1">
  <advance width="1855"/>
  <unicode hex="0025"/>
  <outline>
    <contour>
      <point x="807" y="1030" type="qcurve" smooth="yes"/>
      <point x="807" y="927"/>
      <point x="761" y="759"/>
      <point x="670" y="639"/>
      <point x="531" y="573"/>
      <point x="438" y="573" type="qcurve" smooth="yes"/>
      <point x="341" y="573"/>
      <point x="201" y="639"/>
      <point x="112" y="759"/>
      <point x="70" y="927"/>
      <point x="70" y="1030" type="qcurve" smooth="yes"/>
      <point x="70" y="1133"/>
      <point x="112" y="1300"/>
      <point x="202" y="1419"/>
      <point x="342" y="1483"/>
      <point x="440" y="1483" type="qcurve" smooth="yes"/>
      <point x="532" y="1483"/>
      <point x="670" y="1419"/>
      <point x="762" y="1300"/>
      <point x="807" y="1133"/>
    </contour>
    <contour>
      <point x="301" y="1030" type="qcurve" smooth="yes"/>
      <point x="301" y="946"/>
      <point x="316" y="815"/>
      <point x="348" y="724"/>
      <point x="401" y="676"/>
      <point x="438" y="676" type="qcurve" smooth="yes"/>
      <point x="477" y="676"/>
      <point x="528" y="724"/>
      <point x="560" y="815"/>
      <point x="573" y="946"/>
      <point x="573" y="1030" type="qcurve" smooth="yes"/>
      <point x="573" y="1112"/>
      <point x="560" y="1241"/>
      <point x="529" y="1331"/>
      <point x="478" y="1378"/>
      <point x="440" y="1378" type="qcurve" smooth="yes"/>
      <point x="402" y="1378"/>
      <point x="349" y="1331"/>
      <point x="316" y="1241"/>
      <point x="301" y="1112"/>
    </contour>
    <contour>
      <point x="651" y="0" type="line"/>
      <point x="492" y="0" type="line"/>
      <point x="1198" y="1462" type="line"/>
      <point x="1356" y="1462" type="line"/>
    </contour>
    <contour>
      <point x="1786" y="436" type="qcurve" smooth="yes"/>
      <point x="1786" y="333"/>
      <point x="1740" y="165"/>
      <point x="1649" y="45"/>
      <point x="1510" y="-20"/>
      <point x="1417" y="-20" type="qcurve" smooth="yes"/>
      <point x="1320" y="-20"/>
      <point x="1180" y="45"/>
      <point x="1091" y="165"/>
      <point x="1049" y="333"/>
      <point x="1049" y="436" type="qcurve" smooth="yes"/>
      <point x="1049" y="539"/>
      <point x="1091" y="706"/>
      <point x="1181" y="825"/>
      <point x="1321" y="889"/>
      <point x="1419" y="889" type="qcurve" smooth="yes"/>
      <point x="1511" y="889"/>
      <point x="1649" y="825"/>
      <point x="1741" y="706"/>
      <point x="1786" y="539"/>
    </contour>
    <contour>
      <point x="1280" y="436" type="qcurve" smooth="yes"/>
      <point x="1280" y="352"/>
      <point x="1295" y="221"/>
      <point x="1327" y="130"/>
      <point x="1380" y="82"/>
      <point x="1417" y="82" type="qcurve" smooth="yes"/>
      <point x="1456" y="82"/>
      <point x="1507" y="130"/>
      <point x="1539" y="221"/>
      <point x="1552" y="352"/>
      <point x="1552" y="436" type="qcurve" smooth="yes"/>
      <point x="1552" y="518"/>
      <point x="1539" y="647"/>
      <point x="1508" y="737"/>
      <point x="1457" y="784"/>
      <point x="1419" y="784" type="qcurve" smooth="yes"/>
      <point x="1381" y="784"/>
      <point x="1328" y="737"/>
      <point x="1295" y="647"/>
      <point x="1280" y="518"/>
    </contour>
  </outline>
</glyph>
<glyph name="ampersand" format="1">
  <advance width="1640"/>
  <unicode hex="0026"/>
  <outline>
    <contour>
      <point x="1208" y="0" type="line"/>
      <point x="1067" y="150" type="line"/>
      <point x="1029" y="112"/>
      <point x="936" y="50"/>
      <point x="824" y="5"/>
      <point x="693" y="-20"/>
      <point x="616" y="-20" type="qcurve" smooth="yes"/>
      <point x="490" y="-20"/>
      <point x="296" y="39"/>
      <point x="164" y="151"/>
      <point x="96" y="313"/>
      <point x="96" y="416" type="qcurve" smooth="yes"/>
      <point x="96" y="506"/>
      <point x="153" y="633"/>
      <point x="249" y="726"/>
      <point x="376" y="791"/>
      <point x="446" y="819" type="qcurve"/>
      <point x="406" y="867"/>
      <point x="347" y="954"/>
      <point x="309" y="1040"/>
      <point x="291" y="1130"/>
      <point x="291" y="1182" type="qcurve" smooth="yes"/>
      <point x="291" y="1250"/>
      <point x="343" y="1360"/>
      <point x="446" y="1440"/>
      <point x="600" y="1483"/>
      <point x="702" y="1483" type="qcurve" smooth="yes"/>
      <point x="801" y="1483"/>
      <point x="948" y="1437"/>
      <point x="1045" y="1357"/>
      <point x="1094" y="1251"/>
      <point x="1094" y="1192" type="qcurve" smooth="yes"/>
      <point x="1094" y="1130"/>
      <point x="1056" y="1030"/>
      <point x="979" y="945"/>
      <point x="862" y="871"/>
      <point x="782" y="834" type="qcurve"/>
      <point x="787" y="826"/>
      <point x="797" y="819" type="qcurve" smooth="yes"/>
      <point x="1087" y="514" type="line"/>
      <point x="1100" y="585"/>
      <point x="1108" y="724"/>
      <point x="1108" y="782" type="qcurve" smooth="yes"/>
      <point x="1108" y="872" type="line"/>
      <point x="1556" y="872" type="line"/>
      <point x="1556" y="764" type="line"/>
      <point x="1524" y="764" type="line" smooth="yes"/>
      <point x="1490" y="764"/>
      <point x="1425" y="756"/>
      <point x="1369" y="727"/>
      <point x="1326" y="672"/>
      <point x="1313" y="625" type="qcurve" smooth="yes"/>
      <point x="1297" y="568"/>
      <point x="1254" y="439"/>
      <point x="1223" y="373" type="qcurve"/>
      <point x="1427" y="160" type="line" smooth="yes"/>
      <point x="1456" y="129"/>
      <point x="1540" y="109"/>
      <point x="1595" y="109" type="qcurve" smooth="yes"/>
      <point x="1614" y="109" type="line"/>
      <point x="1614" y="0" type="line"/>
    </contour>
    <contour>
      <point x="397" y="406" type="qcurve" smooth="yes"/>
      <point x="397" y="345"/>
      <point x="436" y="240"/>
      <point x="506" y="162"/>
      <point x="607" y="117"/>
      <point x="668" y="117" type="qcurve" smooth="yes"/>
      <point x="777" y="117"/>
      <point x="927" y="188"/>
      <point x="977" y="248" type="qcurve"/>
      <point x="539" y="715" type="line"/>
      <point x="496" y="684"/>
      <point x="441" y="615"/>
      <point x="409" y="538"/>
      <point x="397" y="453"/>
    </contour>
    <contour>
      <point x="846" y="1190" type="qcurve" smooth="yes"/>
      <point x="846" y="1226"/>
      <point x="833" y="1288"/>
      <point x="801" y="1334"/>
      <point x="745" y="1360"/>
      <point x="702" y="1360" type="qcurve" smooth="yes"/>
      <point x="668" y="1360"/>
      <point x="617" y="1334"/>
      <point x="585" y="1288"/>
      <point x="569" y="1225"/>
      <point x="569" y="1188" type="qcurve" smooth="yes"/>
      <point x="569" y="1153"/>
      <point x="585" y="1089"/>
      <point x="616" y="1026"/>
      <point x="664" y="962"/>
      <point x="696" y="926" type="qcurve"/>
      <point x="739" y="950"/>
      <point x="797" y="1004"/>
      <point x="831" y="1067"/>
      <point x="846" y="1143"/>
    </contour>
  </outline>
</glyph>
<glyph name="quotesingle" format="1">
  <advance width="594"/>
  <unicode hex="0027"/>
  <outline>
    <contour>
      <point x="137" y="1462" type="line"/>
      <point x="457" y="1462" type="line"/>
      <point x="365" y="899" type="line"/>
      <point x="229" y="899" type="line"/>
    </contour>
  </outline>
</glyph>
<glyph name="parenleft" format="1">
  <advance width="819"/>
  <unicode hex="0028"/>
  <outline>
    <contour>
      <point x="446" y="651" type="qcurve" smooth="yes"/>
      <point x="446" y="529"/>
      <point x="471" y="294"/>
      <point x="539" y="85"/>
      <point x="659" y="-91"/>
      <point x="754" y="-154" type="qcurve"/>
      <point x="754" y="-285" type="line"/>
      <point x="583" y="-216"/>
      <point x="341" y="-31"/>
      <point x="188" y="203"/>
      <point x="117" y="485"/>
      <point x="117" y="651" type="qcurve" smooth="yes"/>
      <point x="117" y="816"/>
      <point x="188" y="1097"/>
      <point x="341" y="1329"/>
      <point x="583" y="1513"/>
      <point x="754" y="1581" type="qcurve"/>
      <point x="754" y="1452" type="line"/>
      <point x="659" y="1389"/>
      <point x="539" y="1214"/>
      <point x="471" y="1006"/>
      <point x="446" y="773"/>
    </contour>
  </outline>
</glyph>
<glyph name="parenright" format="1">
  <advance width="819"/>
  <unicode hex="0029"/>
  <outline>
    <contour>
      <point x="373" y="651" type="qcurve" smooth="yes"/>
      <point x="373" y="773"/>
      <point x="348" y="1006"/>
      <point x="281" y="1214"/>
      <point x="161" y="1389"/>
      <point x="66" y="1452" type="qcurve"/>
      <point x="66" y="1581" type="line"/>
      <point x="237" y="1513"/>
      <point x="479" y="1329"/>
      <point x="632" y="1097"/>
      <point x="702" y="816"/>
      <point x="702" y="651" type="qcurve" smooth="yes"/>
      <point x="702" y="485"/>
      <point x="632" y="203"/>
      <point x="479" y="-31"/>
      <point x="237" y="-216"/>
      <point x="66" y="-285" type="qcurve"/>
      <point x="66" y="-154" type="line"/>
      <point x="161" y="-91"/>
      <point x="281" y="85"/>
      <point x="348" y="294"/>
      <point x="373" y="529"/>
    </contour>
  </outline>
</glyph>
<glyph name="asterisk" format="1">
  <advance width="1028"/>
  <unicode hex="002A"/>
  <outline>
    <contour>
      <point x="72" y="1237" type="line"/>
      <point x="164" y="1444" type="line"/>
      <point x="469" y="1223" type="line"/>
      <point x="401" y="1556" type="line"/>
      <point x="631" y="1556" type="line"/>
      <point x="557" y="1227" type="line"/>
      <point x="864" y="1440" type="line"/>
      <point x="956" y="1235" type="line"/>
      <point x="637" y="1155" type="line"/>
      <point x="956" y="1073" type="line"/>
      <point x="864" y="870" type="line"/>
      <point x="557" y="1083" type="line"/>
      <point x="629" y="752" type="line"/>
      <point x="401" y="752" type="line"/>
      <point x="467" y="1085" type="line"/>
      <point x="164" y="868" type="line"/>
      <point x="72" y="1071" type="line"/>
      <point x="391" y="1155" type="line"/>
    </contour>
  </outline>
</glyph>
<glyph name="plus" format="1">
  <advance width="1145"/>
  <unicode hex="002B"/>
  <outline>
    <contour>
      <point x="645" y="659" type="line"/>
      <point x="645" y="293" type="line"/>
      <point x="498" y="293" type="line"/>
      <point x="498" y="659" type="line"/>
      <point x="133" y="659" type="line"/>
      <point x="133" y="805" type="line"/>
      <point x="498" y="805" type="line"/>
      <point x="498" y="1171" type="line"/>
      <point x="645" y="1171" type="line"/>
      <point x="645" y="805" type="line"/>
      <point x="1012" y="805" type="line"/>
      <point x="1012" y="659" type="line"/>
    </contour>
  </outline>
</glyph>
<glyph name="comma" format="1">
  <advance width="602"/>
  <unicode hex="002C"/>
  <outline>
    <contour>
      <point x="459" y="86" type="qcurve" smooth="yes"/>
      <point x="459" y="21"/>
      <point x="419" y="-101"/>
      <point x="331" y="-205"/>
      <point x="192" y="-288"/>
      <point x="92" y="-315" type="qcurve"/>
      <point x="92" y="-209" type="line"/>
      <point x="137" y="-193"/>
      <point x="204" y="-161"/>
      <point x="249" y="-124"/>
      <point x="272" y="-79"/>
      <point x="272" y="-49" type="qcurve" smooth="yes"/>
      <point x="272" y="-30"/>
      <point x="250" y="-5"/>
      <point x="217" y="17"/>
      <point x="178" y="40"/>
      <point x="145" y="76"/>
      <point x="123" y="129"/>
      <point x="123" y="170" type="qcurve" smooth="yes"/>
      <point x="123" y="239"/>
      <point x="207" y="311"/>
      <point x="270" y="311" type="qcurve" smooth="yes"/>
      <point x="357" y="311"/>
      <point x="459" y="191"/>
    </contour>
  </outline>
</glyph>
<glyph name="hyphen" format="1">
  <advance width="635"/>
  <unicode hex="002D"/>
  <unicode hex="00AD"/>
  <outline>
    <contour>
      <point x="51" y="451" type="line"/>
      <point x="51" y="666" type="line"/>
      <point x="584" y="666" type="line"/>
      <point x="584" y="451" type="line"/>
    </contour>
  </outline>
</glyph>
<glyph name="period" format="1">
  <advance width="623"/>
  <unicode hex="002E"/>
  <outline>
    <contour>
      <point x="143" y="147" type="qcurve" smooth="yes"/>
      <point x="143" y="194"/>
      <point x="169" y="257"/>
      <point x="214" y="295"/>
      <point x="276" y="311"/>
      <point x="311" y="311" type="qcurve" smooth="yes"/>
      <point x="345" y="311"/>
      <point x="406" y="295"/>
      <point x="452" y="257"/>
      <point x="479" y="194"/>
      <point x="479" y="147" type="qcurve" smooth="yes"/>
      <point x="479" y="101"/>
      <point x="452" y="39"/>
      <point x="406" y="1"/>
      <point x="345" y="-16"/>
      <point x="311" y="-16" type="qcurve" smooth="yes"/>
      <point x="276" y="-16"/>
      <point x="214" y="1"/>
      <point x="169" y="39"/>
      <point x="143" y="101"/>
    </contour>
  </outline>
</glyph>
<glyph name="slash" format="1">
  <advance width="590"/>
  <unicode hex="002F"/>
  <outline>
    <contour>
      <point x="147" y="-250" type="line"/>
      <point x="0" y="-248" type="line"/>
      <point x="446" y="1556" type="line"/>
      <point x="590" y="1556" type="line"/>
    </contour>
  </outline>
</glyph>
<glyph name="zero" format="1">
  <advance width="1145"/>
  <unicode hex="0030"/>
  <outline>
    <contour>
      <point x="1075" y="733" type="qcurve" smooth="yes"/>
      <point x="1075" y="564"/>
      <point x="1019" y="286"/>
      <point x="897" y="88"/>
      <point x="707" y="-20"/>
      <point x="573" y="-20" type="qcurve" smooth="yes"/>
      <point x="433" y="-20"/>
      <point x="241" y="88"/>
      <point x="122" y="286"/>
      <point x="70" y="565"/>
      <point x="70" y="735" type="qcurve" smooth="yes"/>
      <point x="70" y="905"/>
      <point x="122" y="1181"/>
      <point x="241" y="1377"/>
      <point x="434" y="1483"/>
      <point x="575" y="1483" type="qcurve" smooth="yes"/>
      <point x="708" y="1483"/>
      <point x="898" y="1377"/>
      <point x="1019" y="1181"/>
      <point x="1075" y="904"/>
    </contour>
    <contour>
      <point x="387" y="733" type="qcurve" smooth="yes"/>
      <point x="387" y="586"/>
      <point x="403" y="356"/>
      <point x="444" y="197"/>
      <point x="516" y="113"/>
      <point x="573" y="113" type="qcurve" smooth="yes"/>
      <point x="630" y="113"/>
      <point x="702" y="197"/>
      <point x="743" y="356"/>
      <point x="758" y="586"/>
      <point x="758" y="733" type="qcurve" smooth="yes"/>
      <point x="758" y="880"/>
      <point x="743" y="1109"/>
      <point x="703" y="1267"/>
      <point x="631" y="1350"/>
      <point x="575" y="1350" type="qcurve" smooth="yes"/>
      <point x="518" y="1350"/>
      <point x="445" y="1267"/>
      <point x="403" y="1109"/>
      <point x="387" y="880"/>
    </contour>
  </outline>
</glyph>
<glyph name="one" format="1">
  <advance width="1145"/>
  <unicode hex="0031"/>
  <outline>
    <contour>
      <point x="199" y="0" type="line"/>
      <point x="199" y="109" type="line"/>
      <point x="367" y="109" type="line" smooth="yes"/>
      <point x="393" y="109"/>
      <point x="431" y="122"/>
      <point x="457" y="152"/>
      <point x="469" y="203"/>
      <point x="469" y="242" type="qcurve" smooth="yes"/>
      <point x="469" y="1268" type="line"/>
      <point x="430" y="1220"/>
      <point x="361" y="1142"/>
      <point x="297" y="1086"/>
      <point x="236" y="1055"/>
      <point x="205" y="1055" type="qcurve" smooth="yes"/>
      <point x="180" y="1055"/>
      <point x="137" y="1076"/>
      <point x="105" y="1116"/>
      <point x="86" y="1172"/>
      <point x="86" y="1206" type="qcurve"/>
      <point x="117" y="1214"/>
      <point x="185" y="1237"/>
      <point x="262" y="1274"/>
      <point x="350" y="1327"/>
      <point x="401" y="1364" type="qcurve" smooth="yes"/>
      <point x="545" y="1470" type="line"/>
      <point x="774" y="1470" type="line"/>
      <point x="774" y="242" type="line" smooth="yes"/>
      <point x="774" y="210"/>
      <point x="783" y="160"/>
      <point x="806" y="126"/>
      <point x="847" y="109"/>
      <point x="879" y="109" type="qcurve" smooth="yes"/>
      <point x="1044" y="109" type="line"/>
      <point x="1044" y="0" type="line"/>
    </contour>
  </outline>
</glyph>
<glyph name="two" format="1">
  <advance width="1145"/>
  <unicode hex="0032"/>
  <outline>
    <contour>
      <point x="999" y="1143" type="qcurve" smooth="yes"/>
      <point x="999" y="1095"/>
      <point x="978" y="1005"/>
      <point x="929" y="909"/>
      <point x="849" y="802"/>
      <point x="731" y="673"/>
      <point x="574" y="517"/>
      <point x="471" y="420" type="qcurve" smooth="yes"/>
      <point x="266" y="225" type="line"/>
      <point x="743" y="225" type="line" smooth="yes"/>
      <point x="806" y="225"/>
      <point x="895" y="298"/>
      <point x="913" y="367" type="qcurve" smooth="yes"/>
      <point x="930" y="430" type="line"/>
      <point x="1051" y="430" type="line"/>
      <point x="1040" y="0" type="line"/>
      <point x="72" y="0" type="line"/>
      <point x="72" y="211" type="line"/>
      <point x="375" y="520" type="line" smooth="yes"/>
      <point x="470" y="617"/>
      <point x="592" y="773"/>
      <point x="662" y="915"/>
      <point x="690" y="1054"/>
      <point x="690" y="1133" type="qcurve" smooth="yes"/>
      <point x="690" y="1250"/>
      <point x="605" y="1358"/>
      <point x="530" y="1358" type="qcurve" smooth="yes"/>
      <point x="426" y="1358"/>
      <point x="342" y="1179"/>
      <point x="342" y="1004" type="qcurve"/>
      <point x="284" y="1004"/>
      <point x="187" y="1026"/>
      <point x="118" y="1074"/>
      <point x="80" y="1151"/>
      <point x="80" y="1206" type="qcurve" smooth="yes"/>
      <point x="80" y="1262"/>
      <point x="137" y="1362"/>
      <point x="249" y="1438"/>
      <point x="418" y="1483"/>
      <point x="530" y="1483" type="qcurve" smooth="yes"/>
      <point x="645" y="1483"/>
      <point x="820" y="1436"/>
      <point x="939" y="1348"/>
      <point x="999" y="1222"/>
    </contour>
  </outline>
</glyph>
<glyph name="three" format="1">
  <advance width="1145"/>
  <unicode hex="0033"/>
  <outline>
    <contour>
      <point x="498" y="-20" type="qcurve" smooth="yes"/>
      <point x="382" y="-20"/>
      <point x="215" y="20"/>
      <point x="108" y="88"/>
      <point x="57" y="177"/>
      <point x="57" y="225" type="qcurve" smooth="yes"/>
      <point x="57" y="264"/>
      <point x="85" y="324"/>
      <point x="133" y="365"/>
      <point x="196" y="385"/>
      <point x="231" y="385" type="qcurve"/>
      <point x="231" y="320"/>
      <point x="268" y="222"/>
      <point x="334" y="156"/>
      <point x="427" y="123"/>
      <point x="483" y="123" type="qcurve" smooth="yes"/>
      <point x="533" y="123"/>
      <point x="624" y="151"/>
      <point x="694" y="219"/>
      <point x="735" y="336"/>
      <point x="735" y="424" type="qcurve" smooth="yes"/>
      <point x="735" y="483"/>
      <point x="694" y="581"/>
      <point x="613" y="652"/>
      <point x="495" y="692"/>
      <point x="418" y="692" type="qcurve" smooth="yes"/>
      <point x="291" y="692" type="line"/>
      <point x="291" y="819" type="line"/>
      <point x="426" y="819" type="line" smooth="yes"/>
      <point x="492" y="819"/>
      <point x="590" y="862"/>
      <point x="654" y="942"/>
      <point x="686" y="1053"/>
      <point x="686" y="1120" type="qcurve" smooth="yes"/>
      <point x="686" y="1232"/>
      <point x="600" y="1358"/>
      <point x="516" y="1358" type="qcurve" smooth="yes"/>
      <point x="461" y="1358"/>
      <point x="392" y="1304"/>
      <point x="354" y="1214"/>
      <point x="340" y="1100"/>
      <point x="340" y="1040" type="qcurve"/>
      <point x="212" y="1040"/>
      <point x="74" y="1129"/>
      <point x="74" y="1223" type="qcurve" smooth="yes"/>
      <point x="74" y="1277"/>
      <point x="131" y="1372"/>
      <point x="245" y="1443"/>
      <point x="414" y="1483"/>
      <point x="526" y="1483" type="qcurve" smooth="yes"/>
      <point x="635" y="1483"/>
      <point x="810" y="1439"/>
      <point x="933" y="1353"/>
      <point x="999" y="1229"/>
      <point x="999" y="1149" type="qcurve" smooth="yes"/>
      <point x="999" y="1080"/>
      <point x="951" y="964"/>
      <point x="867" y="872"/>
      <point x="753" y="803"/>
      <point x="686" y="780" type="qcurve"/>
      <point x="748" y="769"/>
      <point x="877" y="720"/>
      <point x="983" y="636"/>
      <point x="1051" y="510"/>
      <point x="1051" y="422" type="qcurve" smooth="yes"/>
      <point x="1051" y="297"/>
      <point x="958" y="127"/>
      <point x="803" y="24"/>
      <point x="604" y="-20"/>
    </contour>
  </outline>
</glyph>
<glyph name="four" format="1">
  <advance width="1145"/>
  <unicode hex="0034"/>
  <outline>
    <contour>
      <point x="893" y="381" type="line"/>
      <point x="893" y="256" type="line" smooth="yes"/>
      <point x="893" y="208"/>
      <point x="920" y="150"/>
      <point x="965" y="119"/>
      <point x="1027" y="109"/>
      <point x="1061" y="109" type="qcurve" smooth="yes"/>
      <point x="1087" y="109" type="line"/>
      <point x="1087" y="0" type="line"/>
      <point x="369" y="0" type="line"/>
      <point x="369" y="109" type="line"/>
      <point x="426" y="109" type="line" smooth="yes"/>
      <point x="461" y="109"/>
      <point x="522" y="119"/>
      <point x="567" y="150"/>
      <point x="594" y="208"/>
      <point x="594" y="256" type="qcurve" smooth="yes"/>
      <point x="594" y="381" type="line"/>
      <point x="27" y="381" type="line"/>
      <point x="27" y="506" type="line"/>
      <point x="608" y="1462" type="line"/>
      <point x="893" y="1462" type="line"/>
      <point x="893" y="516" type="line"/>
      <point x="1106" y="516" type="line"/>
      <point x="1106" y="381" type="line"/>
    </contour>
    <contour>
      <point x="594" y="874" type="line" smooth="yes"/>
      <point x="594" y="964"/>
      <point x="600" y="1172"/>
      <point x="608" y="1268" type="qcurve"/>
      <point x="598" y="1244"/>
      <point x="554" y="1160"/>
      <point x="504" y="1071"/>
      <point x="458" y="992"/>
      <point x="446" y="973" type="qcurve" smooth="yes"/>
      <point x="170" y="516" type="line"/>
      <point x="594" y="516" type="line"/>
    </contour>
  </outline>
</glyph>
<glyph name="five" format="1">
  <advance width="1145"/>
  <unicode hex="0035"/>
  <outline>
    <contour>
      <point x="471" y="123" type="qcurve" smooth="yes"/>
      <point x="522" y="123"/>
      <point x="613" y="155"/>
      <point x="682" y="230"/>
      <point x="723" y="357"/>
      <point x="723" y="451" type="qcurve" smooth="yes"/>
      <point x="723" y="604"/>
      <point x="577" y="754"/>
      <point x="444" y="754" type="qcurve" smooth="yes"/>
      <point x="405" y="754"/>
      <point x="342" y="748"/>
      <point x="288" y="737"/>
      <point x="240" y="724"/>
      <point x="217" y="717" type="qcurve"/>
      <point x="123" y="754" type="line"/>
      <point x="188" y="1462" type="line"/>
      <point x="963" y="1462" type="line"/>
      <point x="973" y="1090" type="line"/>
      <point x="856" y="1090" type="line"/>
      <point x="840" y="1159" type="line" smooth="yes"/>
      <point x="835" y="1177"/>
      <point x="823" y="1206"/>
      <point x="802" y="1226"/>
      <point x="770" y="1237"/>
      <point x="745" y="1237" type="qcurve" smooth="yes"/>
      <point x="319" y="1237" type="line" smooth="yes"/>
      <point x="319" y="1236"/>
      <point x="316" y="1203"/>
      <point x="312" y="1149"/>
      <point x="306" y="1081"/>
      <point x="303" y="1046" type="qcurve" smooth="yes"/>
      <point x="287" y="858" type="line"/>
      <point x="303" y="864"/>
      <point x="354" y="875"/>
      <point x="414" y="884"/>
      <point x="481" y="889"/>
      <point x="512" y="889" type="qcurve" smooth="yes"/>
      <point x="631" y="889"/>
      <point x="824" y="834"/>
      <point x="961" y="725"/>
      <point x="1036" y="561"/>
      <point x="1036" y="451" type="qcurve" smooth="yes"/>
      <point x="1036" y="318"/>
      <point x="939" y="137"/>
      <point x="785" y="27"/>
      <point x="595" y="-20"/>
      <point x="502" y="-20" type="qcurve" smooth="yes"/>
      <point x="387" y="-20"/>
      <point x="227" y="21"/>
      <point x="127" y="90"/>
      <point x="82" y="179"/>
      <point x="82" y="227" type="qcurve" smooth="yes"/>
      <point x="82" y="299"/>
      <point x="171" y="369"/>
      <point x="246" y="369" type="qcurve"/>
      <point x="246" y="325"/>
      <point x="269" y="237"/>
      <point x="322" y="167"/>
      <point x="408" y="123"/>
    </contour>
  </outline>
</glyph>
<glyph name="six" format="1">
  <advance width="1145"/>
  <unicode hex="0036"/>
  <outline>
    <contour>
      <point x="657" y="1362" type="qcurve" smooth="yes"/>
      <point x="597" y="1362"/>
      <point x="500" y="1290"/>
      <point x="429" y="1152"/>
      <point x="387" y="951"/>
      <point x="381" y="821" type="qcurve"/>
      <point x="402" y="835"/>
      <point x="456" y="862"/>
      <point x="525" y="884"/>
      <point x="612" y="897"/>
      <point x="664" y="897" type="qcurve" smooth="yes"/>
      <point x="757" y="897"/>
      <point x="908" y="839"/>
      <point x="1015" y="730"/>
      <point x="1073" y="573"/>
      <point x="1073" y="473" type="qcurve" smooth="yes"/>
      <point x="1073" y="363"/>
      <point x="1013" y="182"/>
      <point x="894" y="52"/>
      <point x="717" y="-20"/>
      <point x="600" y="-20" type="qcurve" smooth="yes"/>
      <point x="486" y="-20"/>
      <point x="299" y="63"/>
      <point x="166" y="235"/>
      <point x="92" y="497"/>
      <point x="92" y="676" type="qcurve" smooth="yes"/>
      <point x="92" y="845"/>
      <point x="163" y="1139"/>
      <point x="308" y="1357"/>
      <point x="528" y="1483"/>
      <point x="676" y="1483" type="qcurve" smooth="yes"/>
      <point x="775" y="1483"/>
      <point x="913" y="1445"/>
      <point x="999" y="1382"/>
      <point x="1038" y="1301"/>
      <point x="1038" y="1257" type="qcurve" smooth="yes"/>
      <point x="1038" y="1226"/>
      <point x="1012" y="1168"/>
      <point x="954" y="1124"/>
      <point x="861" y="1098"/>
      <point x="793" y="1098" type="qcurve"/>
      <point x="793" y="1144"/>
      <point x="781" y="1238"/>
      <point x="751" y="1314"/>
      <point x="698" y="1362"/>
    </contour>
    <contour>
      <point x="588" y="772" type="qcurve" smooth="yes"/>
      <point x="560" y="772"/>
      <point x="498" y="755"/>
      <point x="441" y="727"/>
      <point x="394" y="692"/>
      <point x="381" y="674" type="qcurve"/>
      <point x="382" y="527"/>
      <point x="417" y="315"/>
      <point x="478" y="179"/>
      <point x="559" y="115"/>
      <point x="606" y="115" type="qcurve" smooth="yes"/>
      <point x="685" y="115"/>
      <point x="776" y="276"/>
      <point x="776" y="453" type="qcurve" smooth="yes"/>
      <point x="776" y="619"/>
      <point x="676" y="772"/>
    </contour>
  </outline>
</glyph>
<glyph name="seven" format="1">
  <advance width="1145"/>
  <unicode hex="0037"/>
  <outline>
    <contour>
      <point x="338" y="0" type="line"/>
      <point x="883" y="1239" type="line"/>
      <point x="344" y="1239" type="line" smooth="yes"/>
      <point x="288" y="1239"/>
      <point x="231" y="1186"/>
      <point x="225" y="1135" type="qcurve" smooth="yes"/>
      <point x="213" y="1032" type="line"/>
      <point x="90" y="1032" type="line"/>
      <point x="100" y="1462" type="line"/>
      <point x="1077" y="1462" type="line"/>
      <point x="1077" y="1362" type="line"/>
      <point x="512" y="0" type="line"/>
    </contour>
  </outline>
</glyph>
<glyph name="eight" format="1">
  <advance width="1145"/>
  <unicode hex="0038"/>
  <outline>
    <contour>
      <point x="61" y="373" type="qcurve" smooth="yes"/>
      <point x="61" y="439"/>
      <point x="104" y="545"/>
      <point x="184" y="632"/>
      <point x="295" y="705"/>
      <point x="362" y="739" type="qcurve"/>
      <point x="240" y="810"/>
      <point x="109" y="990"/>
      <point x="109" y="1110" type="qcurve" smooth="yes"/>
      <point x="109" y="1181"/>
      <point x="158" y="1316"/>
      <point x="270" y="1420"/>
      <point x="452" y="1483"/>
      <point x="584" y="1483" type="qcurve" smooth="yes"/>
      <point x="692" y="1483"/>
      <point x="855" y="1429"/>
      <point x="965" y="1333"/>
      <point x="1020" y="1202"/>
      <point x="1020" y="1124" type="qcurve" smooth="yes"/>
      <point x="1020" y="1063"/>
      <point x="981" y="969"/>
      <point x="909" y="892"/>
      <point x="807" y="826"/>
      <point x="743" y="793" type="qcurve"/>
      <point x="835" y="748"/>
      <point x="965" y="657"/>
      <point x="1046" y="558"/>
      <point x="1083" y="449"/>
      <point x="1083" y="387" type="qcurve" smooth="yes"/>
      <point x="1083" y="290"/>
      <point x="1012" y="139"/>
      <point x="877" y="35"/>
      <point x="683" y="-20"/>
      <point x="559" y="-20" type="qcurve" smooth="yes"/>
      <point x="431" y="-20"/>
      <point x="243" y="42"/>
      <point x="120" y="148"/>
      <point x="61" y="292"/>
    </contour>
    <contour>
      <point x="569" y="96" type="qcurve" smooth="yes"/>
      <point x="622" y="96"/>
      <point x="707" y="134"/>
      <point x="767" y="202"/>
      <point x="799" y="296"/>
      <point x="799" y="352" type="qcurve" smooth="yes"/>
      <point x="799" y="402"/>
      <point x="765" y="483"/>
      <point x="692" y="554"/>
      <point x="579" y="621"/>
      <point x="500" y="657" type="qcurve"/>
      <point x="466" y="635"/>
      <point x="406" y="578"/>
      <point x="363" y="507"/>
      <point x="338" y="419"/>
      <point x="338" y="365" type="qcurve" smooth="yes"/>
      <point x="338" y="305"/>
      <point x="371" y="206"/>
      <point x="432" y="135"/>
      <point x="517" y="96"/>
    </contour>
    <contour>
      <point x="762" y="1128" type="qcurve" smooth="yes"/>
      <point x="762" y="1172"/>
      <point x="737" y="1257"/>
      <point x="689" y="1323"/>
      <point x="618" y="1364"/>
      <point x="571" y="1364" type="qcurve" smooth="yes"/>
      <point x="529" y="1364"/>
      <point x="464" y="1329"/>
      <point x="420" y="1268"/>
      <point x="397" y="1184"/>
      <point x="397" y="1135" type="qcurve" smooth="yes"/>
      <point x="397" y="1082"/>
      <point x="426" y="1002"/>
      <point x="482" y="938"/>
      <point x="564" y="887"/>
      <point x="618" y="862" type="qcurve"/>
      <point x="656" y="884"/>
      <point x="710" y="934"/>
      <point x="745" y="998"/>
      <point x="762" y="1077"/>
    </contour>
  </outline>
</glyph>
<glyph name="nine" format="1">
  <advance width="1145"/>
  <unicode hex="0039"/>
  <outline>
    <contour>
      <point x="465" y="-20" type="qcurve" smooth="yes"/>
      <point x="372" y="-20"/>
      <point x="244" y="19"/>
      <point x="164" y="84"/>
      <point x="129" y="167"/>
      <point x="129" y="211" type="qcurve" smooth="yes"/>
      <point x="129" y="256"/>
      <point x="177" y="317"/>
      <point x="229" y="328" type="qcurve"/>
      <point x="244" y="282"/>
      <point x="286" y="202"/>
      <point x="345" y="143"/>
      <point x="424" y="109"/>
      <point x="475" y="109" type="qcurve" smooth="yes"/>
      <point x="613" y="109"/>
      <point x="762" y="407"/>
      <point x="772" y="702" type="qcurve"/>
      <point x="748" y="672"/>
      <point x="689" y="622"/>
      <point x="615" y="584"/>
      <point x="526" y="563"/>
      <point x="473" y="563" type="qcurve" smooth="yes"/>
      <point x="385" y="563"/>
      <point x="238" y="618"/>
      <point x="131" y="725"/>
      <point x="72" y="884"/>
      <point x="72" y="987" type="qcurve" smooth="yes"/>
      <point x="72" y="1098"/>
      <point x="136" y="1280"/>
      <point x="257" y="1411"/>
      <point x="431" y="1483"/>
      <point x="541" y="1483" type="qcurve" smooth="yes"/>
      <point x="652" y="1483"/>
      <point x="840" y="1403"/>
      <point x="977" y="1235"/>
      <point x="1053" y="975"/>
      <point x="1053" y="795" type="qcurve" smooth="yes"/>
      <point x="1053" y="626"/>
      <point x="987" y="329"/>
      <point x="846" y="108"/>
      <point x="623" y="-20"/>
    </contour>
    <contour>
      <point x="561" y="711" type="qcurve" smooth="yes"/>
      <point x="635" y="711"/>
      <point x="741" y="786"/>
      <point x="772" y="848" type="qcurve"/>
      <point x="771" y="979"/>
      <point x="738" y="1167"/>
      <point x="681" y="1288"/>
      <point x="601" y="1346"/>
      <point x="553" y="1346" type="qcurve" smooth="yes"/>
      <point x="465" y="1346"/>
      <point x="369" y="1173"/>
      <point x="369" y="999" type="qcurve" smooth="yes"/>
      <point x="369" y="857"/>
      <point x="465" y="711"/>
    </contour>
  </outline>
</glyph>
<glyph name="colon" format="1">
  <advance width="623"/>
  <unicode hex="003A"/>
  <outline>
    <contour>
      <point x="143" y="147" type="qcurve" smooth="yes"/>
      <point x="143" y="194"/>
      <point x="169" y="257"/>
      <point x="214" y="295"/>
      <point x="276" y="311"/>
      <point x="311" y="311" type="qcurve" smooth="yes"/>
      <point x="345" y="311"/>
      <point x="406" y="295"/>
      <point x="452" y="257"/>
      <point x="479" y="194"/>
      <point x="479" y="147" type="qcurve" smooth="yes"/>
      <point x="479" y="101"/>
      <point x="452" y="39"/>
      <point x="406" y="1"/>
      <point x="345" y="-16"/>
      <point x="311" y="-16" type="qcurve" smooth="yes"/>
      <point x="276" y="-16"/>
      <point x="214" y="1"/>
      <point x="169" y="39"/>
      <point x="143" y="101"/>
    </contour>
    <contour>
      <point x="143" y="952" type="qcurve" smooth="yes"/>
      <point x="143" y="999"/>
      <point x="169" y="1062"/>
      <point x="214" y="1100"/>
      <point x="276" y="1116"/>
      <point x="311" y="1116" type="qcurve" smooth="yes"/>
      <point x="345" y="1116"/>
      <point x="406" y="1100"/>
      <point x="452" y="1062"/>
      <point x="479" y="999"/>
      <point x="479" y="952" type="qcurve" smooth="yes"/>
      <point x="479" y="906"/>
      <point x="452" y="843"/>
      <point x="406" y="805"/>
      <point x="345" y="788"/>
      <point x="311" y="788" type="qcurve" smooth="yes"/>
      <point x="276" y="788"/>
      <point x="214" y="805"/>
      <point x="169" y="843"/>
      <point x="143" y="906"/>
    </contour>
  </outline>
</glyph>
<glyph name="semicolon" format="1">
  <advance width="602"/>
  <unicode hex="003B"/>
  <unicode hex="037E"/>
  <outline>
    <contour>
      <point x="459" y="86" type="qcurve" smooth="yes"/>
      <point x="459" y="21"/>
      <point x="419" y="-101"/>
      <point x="331" y="-205"/>
      <point x="192" y="-288"/>
      <point x="92" y="-315" type="qcurve"/>
      <point x="92" y="-209" type="line"/>
      <point x="137" y="-193"/>
      <point x="204" y="-161"/>
      <point x="249" y="-124"/>
      <point x="272" y="-79"/>
      <point x="272" y="-49" type="qcurve" smooth="yes"/>
      <point x="272" y="-30"/>
      <point x="250" y="-5"/>
      <point x="217" y="17"/>
      <point x="178" y="40"/>
      <point x="145" y="76"/>
      <point x="123" y="129"/>
      <point x="123" y="170" type="qcurve" smooth="yes"/>
      <point x="123" y="239"/>
      <point x="207" y="311"/>
      <point x="270" y="311" type="qcurve" smooth="yes"/>
      <point x="357" y="311"/>
      <point x="459" y="191"/>
    </contour>
    <contour>
      <point x="143" y="952" type="qcurve" smooth="yes"/>
      <point x="143" y="999"/>
      <point x="169" y="1062"/>
      <point x="214" y="1100"/>
      <point x="276" y="1116"/>
      <point x="311" y="1116" type="qcurve" smooth="yes"/>
      <point x="345" y="1116"/>
      <point x="406" y="1100"/>
      <point x="452" y="1062"/>
      <point x="479" y="999"/>
      <point x="479" y="952" type="qcurve" smooth="yes"/>
      <point x="479" y="906"/>
      <point x="452" y="843"/>
      <point x="406" y="805"/>
      <point x="345" y="788"/>
      <point x="311" y="788" type="qcurve" smooth="yes"/>
      <point x="276" y="788"/>
      <point x="214" y="805"/>
      <point x="169" y="843"/>
      <point x="143" y="906"/>
    </contour>
  </outline>
</glyph>
<glyph name="less" format="1">
  <advance width="1145"/>
  <unicode hex="003C"/>
  <outline>
    <contour>
      <point x="133" y="690" type="line"/>
      <point x="133" y="774" type="line"/>
      <point x="1012" y="1253" type="line"/>
      <point x="1012" y="1092" type="line"/>
      <point x="352" y="731" type="line"/>
      <point x="1012" y="375" type="line"/>
      <point x="1012" y="213" type="line"/>
    </contour>
  </outline>
</glyph>
<glyph name="equal" format="1">
  <advance width="1145"/>
  <unicode hex="003D"/>
  <outline>
    <contour>
      <point x="1016" y="604" type="line"/>
      <point x="1016" y="461" type="line"/>
      <point x="129" y="461" type="line"/>
      <point x="129" y="604" type="line"/>
    </contour>
    <contour>
      <point x="1016" y="1001" type="line"/>
      <point x="1016" y="858" type="line"/>
      <point x="129" y="858" type="line"/>
      <point x="129" y="1001" type="line"/>
    </contour>
  </outline>
</glyph>
<glyph name="greater" format="1">
  <advance width="1145"/>
  <unicode hex="003E"/>
  <outline>
    <contour>
      <point x="133" y="213" type="line"/>
      <point x="133" y="375" type="line"/>
      <point x="793" y="731" type="line"/>
      <point x="133" y="1092" type="line"/>
      <point x="133" y="1253" type="line"/>
      <point x="1012" y="774" type="line"/>
      <point x="1012" y="690" type="line"/>
    </contour>
  </outline>
</glyph>
<glyph name="question" format="1">
  <advance width="1126"/>
  <unicode hex="003F"/>
  <outline>
    <contour>
      <point x="1014" y="1106" type="qcurve" smooth="yes"/>
      <point x="1014" y="1024"/>
      <point x="963" y="894"/>
      <point x="861" y="786"/>
      <point x="708" y="695"/>
      <point x="606" y="653" type="qcurve"/>
      <point x="565" y="467" type="line"/>
      <point x="440" y="467" type="line"/>
      <point x="399" y="719" type="line"/>
      <point x="487" y="754"/>
      <point x="599" y="849"/>
      <point x="664" y="958"/>
      <point x="688" y="1078"/>
      <point x="688" y="1139" type="qcurve" smooth="yes"/>
      <point x="688" y="1188"/>
      <point x="670" y="1269"/>
      <point x="631" y="1328"/>
      <point x="570" y="1360"/>
      <point x="528" y="1360" type="qcurve" smooth="yes"/>
      <point x="482" y="1360"/>
      <point x="420" y="1318"/>
      <point x="382" y="1248"/>
      <point x="365" y="1154"/>
      <point x="365" y="1102" type="qcurve"/>
      <point x="302" y="1102"/>
      <point x="196" y="1120"/>
      <point x="119" y="1155"/>
      <point x="76" y="1209"/>
      <point x="76" y="1245" type="qcurve" smooth="yes"/>
      <point x="76" y="1295"/>
      <point x="128" y="1382"/>
      <point x="235" y="1446"/>
      <point x="399" y="1483"/>
      <point x="512" y="1483" type="qcurve" smooth="yes"/>
      <point x="620" y="1483"/>
      <point x="804" y="1432"/>
      <point x="938" y="1335"/>
      <point x="1014" y="1195"/>
    </contour>
    <contour>
      <point x="332" y="147" type="qcurve" smooth="yes"/>
      <point x="332" y="194"/>
      <point x="358" y="257"/>
      <point x="403" y="295"/>
      <point x="465" y="311"/>
      <point x="500" y="311" type="qcurve" smooth="yes"/>
      <point x="534" y="311"/>
      <point x="595" y="295"/>
      <point x="641" y="257"/>
      <point x="668" y="194"/>
      <point x="668" y="147" type="qcurve" smooth="yes"/>
      <point x="668" y="101"/>
      <point x="641" y="39"/>
      <point x="595" y="1"/>
      <point x="534" y="-16"/>
      <point x="500" y="-16" type="qcurve" smooth="yes"/>
      <point x="465" y="-16"/>
      <point x="403" y="1"/>
      <point x="358" y="39"/>
      <point x="332" y="101"/>
    </contour>
  </outline>
</glyph>
<glyph name="at" format="1">
  <advance width="1886"/>
  <unicode hex="0040"/>
  <outline>
    <contour>
      <point x="1806" y="803" type="qcurve" smooth="yes"/>
      <point x="1806" y="650"/>
      <point x="1732" y="410"/>
      <point x="1612" y="245"/>
      <point x="1461" y="158"/>
      <point x="1384" y="158" type="qcurve" smooth="yes"/>
      <point x="1293" y="158"/>
      <point x="1167" y="247"/>
      <point x="1133" y="350" type="qcurve"/>
      <point x="1120" y="350" type="line"/>
      <point x="1099" y="310"/>
      <point x="1045" y="240"/>
      <point x="977" y="188"/>
      <point x="892" y="158"/>
      <point x="838" y="158" type="qcurve" smooth="yes"/>
      <point x="774" y="158"/>
      <point x="657" y="200"/>
      <point x="568" y="286"/>
      <point x="516" y="418"/>
      <point x="516" y="508" type="qcurve" smooth="yes"/>
      <point x="516" y="563"/>
      <point x="542" y="691"/>
      <point x="599" y="818"/>
      <point x="686" y="937"/>
      <point x="809" y="1028"/>
      <point x="968" y="1083"/>
      <point x="1067" y="1083" type="qcurve" smooth="yes"/>
      <point x="1138" y="1083"/>
      <point x="1240" y="1047"/>
      <point x="1272" y="1022" type="qcurve"/>
      <point x="1358" y="1065" type="line"/>
      <point x="1407" y="1065" type="line"/>
      <point x="1321" y="553" type="line" smooth="yes"/>
      <point x="1319" y="541"/>
      <point x="1314" y="503"/>
      <point x="1310" y="463"/>
      <point x="1307" y="426"/>
      <point x="1307" y="414" type="qcurve" smooth="yes"/>
      <point x="1307" y="372"/>
      <point x="1325" y="318"/>
      <point x="1353" y="287"/>
      <point x="1388" y="276"/>
      <point x="1405" y="276" type="qcurve" smooth="yes"/>
      <point x="1446" y="276"/>
      <point x="1529" y="344"/>
      <point x="1597" y="475"/>
      <point x="1640" y="669"/>
      <point x="1640" y="795" type="qcurve" smooth="yes"/>
      <point x="1640" y="935"/>
      <point x="1555" y="1146"/>
      <point x="1404" y="1287"/>
      <point x="1195" y="1358"/>
      <point x="1071" y="1358" type="qcurve" smooth="yes"/>
      <point x="974" y="1358"/>
      <point x="785" y="1304"/>
      <point x="614" y="1200"/>
      <point x="470" y="1049"/>
      <point x="364" y="856"/>
      <point x="305" y="622"/>
      <point x="305" y="487" type="qcurve" smooth="yes"/>
      <point x="305" y="306"/>
      <point x="413" y="50"/>
      <point x="598" y="-112"/>
      <point x="845" y="-186"/>
      <point x="983" y="-186" type="qcurve" smooth="yes"/>
      <point x="1066" y="-186"/>
      <point x="1224" y="-156"/>
      <point x="1366" y="-108"/>
      <point x="1488" y="-46"/>
      <point x="1536" y="-14" type="qcurve"/>
      <point x="1585" y="-92" type="line"/>
      <point x="1531" y="-133"/>
      <point x="1394" y="-205"/>
      <point x="1233" y="-259"/>
      <point x="1052" y="-291"/>
      <point x="954" y="-291" type="qcurve" smooth="yes"/>
      <point x="837" y="-291"/>
      <point x="621" y="-248"/>
      <point x="432" y="-160"/>
      <point x="276" y="-29"/>
      <point x="165" y="147"/>
      <point x="104" y="367"/>
      <point x="104" y="500" type="qcurve" smooth="yes"/>
      <point x="104" y="637"/>
      <point x="171" y="887"/>
      <point x="294" y="1100"/>
      <point x="470" y="1273"/>
      <point x="688" y="1396"/>
      <point x="943" y="1462"/>
      <point x="1085" y="1462" type="qcurve" smooth="yes"/>
      <point x="1263" y="1462"/>
      <point x="1533" y="1360"/>
      <point x="1714" y="1183"/>
      <point x="1806" y="942"/>
    </contour>
    <contour>
      <point x="768" y="487" type="qcurve" smooth="yes"/>
      <point x="768" y="385"/>
      <point x="840" y="276"/>
      <point x="899" y="276" type="qcurve" smooth="yes"/>
      <point x="943" y="276"/>
      <point x="1006" y="318"/>
      <point x="1049" y="387"/>
      <point x="1077" y="473"/>
      <point x="1085" y="518" type="qcurve" smooth="yes"/>
      <point x="1167" y="936" type="line"/>
      <point x="1161" y="950"/>
      <point x="1138" y="971"/>
      <point x="1108" y="986"/>
      <point x="1075" y="993"/>
      <point x="1059" y="993" type="qcurve" smooth="yes"/>
      <point x="1007" y="993"/>
      <point x="924" y="941"/>
      <point x="859" y="856"/>
      <point x="813" y="747"/>
      <point x="782" y="635"/>
      <point x="768" y="528"/>
    </contour>
  </outline>
</glyph>
<glyph name="uni0E82" format="1">
  <advance width="1354"/>
  <unicode hex="0E82"/>
  <outline>
    <contour>
      <point x="417" y="700" type="qcurve" smooth="yes"/>
      <point x="97" y="700"/>
      <point x="97" y="961" type="qcurve" smooth="yes"/>
      <point x="97" y="1300"/>
      <point x="677" y="1300" type="qcurve" smooth="yes"/>
      <point x="987" y="1300"/>
      <point x="1257" y="1136"/>
      <point x="1257" y="921" type="qcurve" smooth="yes"/>
      <point x="1257" y="750"/>
      <point x="912" y="572"/>
      <point x="385" y="425"/>
      <point x="385" y="230" type="qcurve" smooth="yes"/>
      <point x="385" y="110"/>
      <point x="464" y="110" type="qcurve" smooth="yes"/>
      <point x="543" y="110"/>
      <point x="770" y="354"/>
      <point x="932" y="354" type="qcurve" smooth="yes"/>
      <point x="1173" y="354"/>
      <point x="1297" y="97" type="qcurve"/>
      <point x="1107" y="-10" type="line"/>
      <point x="1016" y="136"/>
      <point x="930" y="210"/>
      <point x="882" y="210" type="qcurve" smooth="yes"/>
      <point x="813" y="210"/>
      <point x="593" y="0"/>
      <point x="418" y="0" type="qcurve" smooth="yes"/>
      <point x="243" y="0"/>
      <point x="97" y="115"/>
      <point x="97" y="230" type="qcurve" smooth="yes"/>
      <point x="97" y="495"/>
      <point x="802" y="662"/>
      <point x="969" y="802"/>
      <point x="969" y="921" type="qcurve" smooth="yes"/>
      <point x="969" y="1064"/>
      <point x="833" y="1190"/>
      <point x="677" y="1190" type="qcurve" smooth="yes"/>
      <point x="341" y="1190"/>
      <point x="341" y="981" type="qcurve" smooth="yes"/>
      <point x="341" y="980" type="line"/>
      <point x="360" y="1004"/>
      <point x="406" y="1020"/>
      <point x="447" y="1020" type="qcurve" smooth="yes"/>
      <point x="487" y="1020"/>
      <point x="554" y="969"/>
      <point x="577" y="902"/>
      <point x="577" y="860" type="qcurve" smooth="yes"/>
      <point x="577" y="818"/>
      <point x="535" y="742"/>
      <point x="459" y="700"/>
    </contour>
    <contour>
      <point x="368" y="910"/>
      <point x="350" y="878"/>
      <point x="350" y="860" type="qcurve" smooth="yes"/>
      <point x="350" y="842"/>
      <point x="367" y="810"/>
      <point x="399" y="793"/>
      <point x="417" y="793" type="qcurve" smooth="yes"/>
      <point x="435" y="793"/>
      <point x="467" y="810"/>
      <point x="485" y="842"/>
      <point x="485" y="860" type="qcurve" smooth="yes"/>
      <point x="485" y="878"/>
      <point x="466" y="910"/>
      <point x="434" y="928"/>
      <point x="417" y="928" type="qcurve" smooth="yes"/>
      <point x="400" y="928"/>
    </contour>
  </outline>
</glyph>
<glyph name="uni0E84" format="1">
  <advance width="1365"/>
  <unicode hex="0E84"/>
  <outline>
    <contour>
      <point x="510" y="131" type="qcurve" smooth="yes"/>
      <point x="532" y="150"/>
      <point x="532" y="191" type="qcurve" smooth="yes"/>
      <point x="532" y="227"/>
      <point x="515" y="246" type="qcurve" smooth="yes"/>
      <point x="496" y="267"/>
      <point x="457" y="267" type="qcurve" smooth="yes"/>
      <point x="381" y="267"/>
      <point x="381" y="191" type="qcurve" smooth="yes"/>
      <point x="381" y="146"/>
      <point x="408" y="128" type="qcurve" smooth="yes"/>
      <point x="426" y="116"/>
      <point x="457" y="116" type="qcurve" smooth="yes"/>
      <point x="491" y="116"/>
    </contour>
    <contour>
      <point x="959" y="920" type="line" smooth="yes"/>
      <point x="959" y="1047"/>
      <point x="848" y="1190"/>
      <point x="668" y="1190" type="qcurve" smooth="yes"/>
      <point x="508" y="1190"/>
      <point x="385" y="1071"/>
      <point x="385" y="950" type="qcurve" smooth="yes"/>
      <point x="385" y="780"/>
      <point x="547" y="780" type="qcurve" smooth="yes"/>
      <point x="627" y="780" type="line"/>
      <point x="627" y="646" type="line"/>
      <point x="547" y="646" type="line" smooth="yes"/>
      <point x="385" y="646"/>
      <point x="385" y="430" type="qcurve" smooth="yes"/>
      <point x="385" y="352" type="line"/>
      <point x="431" y="382"/>
      <point x="477" y="382" type="qcurve" smooth="yes"/>
      <point x="552" y="382"/>
      <point x="600" y="334" type="qcurve" smooth="yes"/>
      <point x="647" y="286"/>
      <point x="647" y="190" type="qcurve" smooth="yes"/>
      <point x="647" y="95"/>
      <point x="599" y="47" type="qcurve" smooth="yes"/>
      <point x="552" y="0"/>
      <point x="457" y="0" type="qcurve" smooth="yes"/>
      <point x="277" y="0"/>
      <point x="202" y="52" type="qcurve" smooth="yes"/>
      <point x="97" y="123"/>
      <point x="97" y="295" type="qcurve" smooth="yes"/>
      <point x="97" y="430" type="line" smooth="yes"/>
      <point x="97" y="637"/>
      <point x="310" y="710" type="qcurve"/>
      <point x="97" y="776"/>
      <point x="97" y="950" type="qcurve" smooth="yes"/>
      <point x="97" y="1137"/>
      <point x="217" y="1217" type="qcurve" smooth="yes"/>
      <point x="342" y="1300"/>
      <point x="668" y="1300" type="qcurve" smooth="yes"/>
      <point x="993" y="1300"/>
      <point x="1117" y="1208" type="qcurve" smooth="yes"/>
      <point x="1247" y="1113"/>
      <point x="1247" y="920" type="qcurve" smooth="yes"/>
      <point x="1247" y="200" type="line" smooth="yes"/>
      <point x="1247" y="105"/>
      <point x="1197" y="0" type="qcurve"/>
      <point x="909" y="0" type="line"/>
      <point x="959" y="75"/>
      <point x="959" y="200" type="qcurve" smooth="yes"/>
    </contour>
  </outline>
</glyph>
<glyph name="uni0E88" format="1">
  <advance width="1250"/>
  <unicode hex="0E88"/>
  <outline>
    <contour>
      <point x="564" y="591" type="line" smooth="yes"/>
      <point x="639" y="592"/>
      <point x="639" y="661" type="qcurve" smooth="yes"/>
      <point x="639" y="728"/>
      <point x="567" y="728" type="qcurve" smooth="yes"/>
      <point x="493" y="728"/>
      <point x="490" y="660" type="qcurve" smooth="yes"/>
      <point x="490" y="655" type="line" smooth="yes"/>
      <point x="490" y="591"/>
      <point x="562" y="591" type="qcurve" smooth="yes"/>
    </contour>
    <contour>
      <point x="779" y="0" type="qcurve" smooth="yes"/>
      <point x="553" y="0"/>
      <point x="511" y="105" type="qcurve" smooth="yes"/>
      <point x="491" y="151"/>
      <point x="491" y="228" type="qcurve" smooth="yes"/>
      <point x="491" y="323"/>
      <point x="619" y="481"/>
      <point x="619" y="486" type="qcurve"/>
      <point x="598" y="467"/>
      <point x="534" y="467" type="qcurve" smooth="yes"/>
      <point x="528" y="467" type="line"/>
      <point x="447" y="479"/>
      <point x="405" y="526" type="qcurve" smooth="yes"/>
      <point x="362" y="573"/>
      <point x="359" y="657" type="qcurve" smooth="yes"/>
      <point x="359" y="667" type="line" smooth="yes"/>
      <point x="359" y="743"/>
      <point x="402" y="790" type="qcurve" smooth="yes"/>
      <point x="448" y="838"/>
      <point x="541" y="854" type="qcurve"/>
      <point x="546" y="854" type="line" smooth="yes"/>
      <point x="644" y="854"/>
      <point x="700" y="815" type="qcurve" smooth="yes"/>
      <point x="751" y="779"/>
      <point x="764" y="710" type="qcurve" smooth="yes"/>
      <point x="774" y="659"/>
      <point x="774" y="612" type="qcurve" smooth="yes"/>
      <point x="774" y="536"/>
      <point x="747" y="473" type="qcurve" smooth="yes"/>
      <point x="703" y="370"/>
      <point x="703" y="241" type="qcurve" smooth="yes"/>
      <point x="703" y="110"/>
      <point x="779" y="110" type="qcurve" smooth="yes"/>
      <point x="844" y="110"/>
      <point x="844" y="205" type="qcurve" smooth="yes"/>
      <point x="844" y="902" type="line" smooth="yes"/>
      <point x="844" y="1009"/>
      <point x="741" y="1176"/>
      <point x="577" y="1176" type="qcurve" smooth="yes"/>
      <point x="428" y="1176"/>
      <point x="200" y="1100"/>
      <point x="82" y="863" type="qcurve"/>
      <point x="82" y="1126"/>
      <point x="206" y="1213" type="qcurve" smooth="yes"/>
      <point x="331" y="1300"/>
      <point x="572" y="1300" type="qcurve" smooth="yes"/>
      <point x="883" y="1300"/>
      <point x="1132" y="1075"/>
      <point x="1132" y="902" type="qcurve" smooth="yes"/>
      <point x="1132" y="201" type="line" smooth="yes"/>
      <point x="1132" y="108"/>
      <point x="1078" y="58" type="qcurve" smooth="yes"/>
      <point x="1015" y="0"/>
    </contour>
  </outline>
</glyph>
<glyph name="uni0E8A" format="1">
  <advance width="1354"/>
  <unicode hex="0E8A"/>
  <outline>
    <contour>
      <point x="350" y="878"/>
      <point x="350" y="860" type="qcurve" smooth="yes"/>
      <point x="350" y="842"/>
      <point x="367" y="810"/>
      <point x="399" y="793"/>
      <point x="417" y="793" type="qcurve" smooth="yes"/>
      <point x="435" y="793"/>
      <point x="467" y="810"/>
      <point x="485" y="842"/>
      <point x="485" y="860" type="qcurve" smooth="yes"/>
      <point x="485" y="878"/>
      <point x="466" y="910"/>
      <point x="434" y="928"/>
      <point x="417" y="928" type="qcurve" smooth="yes"/>
      <point x="400" y="928"/>
      <point x="368" y="910"/>
    </contour>
    <contour>
      <point x="385" y="230" type="qcurve" smooth="yes"/>
      <point x="385" y="110"/>
      <point x="459" y="110" type="qcurve" smooth="yes"/>
      <point x="533" y="110"/>
      <point x="838" y="305"/>
      <point x="945" y="305" type="qcurve" smooth="yes"/>
      <point x="1120" y="305"/>
      <point x="1183" y="243" type="qcurve" smooth="yes"/>
      <point x="1247" y="179"/>
      <point x="1247" y="-60" type="qcurve" smooth="yes"/>
      <point x="1247" y="-270"/>
      <point x="1350" y="-390" type="qcurve"/>
      <point x="959" y="-300"/>
      <point x="959" y="-60" type="qcurve" smooth="yes"/>
      <point x="959" y="161"/>
      <point x="895" y="161" type="qcurve" smooth="yes"/>
      <point x="791" y="161"/>
      <point x="583" y="0"/>
      <point x="413" y="0" type="qcurve" smooth="yes"/>
      <point x="243" y="0"/>
      <point x="97" y="115"/>
      <point x="97" y="230" type="qcurve" smooth="yes"/>
      <point x="97" y="495"/>
      <point x="802" y="662"/>
      <point x="969" y="802"/>
      <point x="969" y="921" type="qcurve" smooth="yes"/>
      <point x="969" y="1064"/>
      <point x="833" y="1190"/>
      <point x="677" y="1190" type="qcurve" smooth="yes"/>
      <point x="341" y="1190"/>
      <point x="341" y="981" type="qcurve" smooth="yes"/>
      <point x="341" y="980" type="line"/>
      <point x="360" y="1004"/>
      <point x="406" y="1020"/>
      <point x="447" y="1020" type="qcurve" smooth="yes"/>
      <point x="487" y="1020"/>
      <point x="554" y="969"/>
      <point x="577" y="902"/>
      <point x="577" y="860" type="qcurve" smooth="yes"/>
      <point x="577" y="818"/>
      <point x="535" y="742"/>
      <point x="459" y="700"/>
      <point x="417" y="700" type="qcurve" smooth="yes"/>
      <point x="97" y="700"/>
      <point x="97" y="961" type="qcurve" smooth="yes"/>
      <point x="97" y="1300"/>
      <point x="677" y="1300" type="qcurve" smooth="yes"/>
      <point x="987" y="1300"/>
      <point x="1257" y="1136"/>
      <point x="1257" y="921" type="qcurve" smooth="yes"/>
      <point x="1257" y="750"/>
      <point x="912" y="572"/>
      <point x="385" y="425"/>
    </contour>
  </outline>
</glyph>
<glyph name="uni0E95" format="1">
  <advance width="1386"/>
  <unicode hex="0E95"/>
  <outline>
    <contour>
      <point x="531" y="131" type="qcurve" smooth="yes"/>
      <point x="553" y="150"/>
      <point x="553" y="191" type="qcurve" smooth="yes"/>
      <point x="553" y="227"/>
      <point x="536" y="246" type="qcurve" smooth="yes"/>
      <point x="517" y="267"/>
      <point x="478" y="267" type="qcurve" smooth="yes"/>
      <point x="402" y="267"/>
      <point x="402" y="191" type="qcurve" smooth="yes"/>
      <point x="402" y="146"/>
      <point x="429" y="128" type="qcurve" smooth="yes"/>
      <point x="447" y="116"/>
      <point x="478" y="116" type="qcurve" smooth="yes"/>
      <point x="512" y="116"/>
    </contour>
    <contour>
      <point x="406" y="352" type="line"/>
      <point x="452" y="382"/>
      <point x="498" y="382" type="qcurve" smooth="yes"/>
      <point x="573" y="382"/>
      <point x="621" y="334" type="qcurve" smooth="yes"/>
      <point x="668" y="286"/>
      <point x="668" y="190" type="qcurve" smooth="yes"/>
      <point x="668" y="95"/>
      <point x="620" y="47" type="qcurve" smooth="yes"/>
      <point x="573" y="0"/>
      <point x="478" y="0" type="qcurve" smooth="yes"/>
      <point x="298" y="0"/>
      <point x="223" y="52" type="qcurve" smooth="yes"/>
      <point x="118" y="123"/>
      <point x="118" y="295" type="qcurve" smooth="yes"/>
      <point x="118" y="920" type="line" smooth="yes"/>
      <point x="118" y="1135"/>
      <point x="213" y="1228" type="qcurve" smooth="yes"/>
      <point x="285" y="1300"/>
      <point x="434" y="1300" type="qcurve" smooth="yes"/>
      <point x="597" y="1300"/>
      <point x="693" y="1127" type="qcurve"/>
      <point x="789" y="1300"/>
      <point x="952" y="1300" type="qcurve" smooth="yes"/>
      <point x="1102" y="1300"/>
      <point x="1176" y="1226" type="qcurve" smooth="yes"/>
      <point x="1268" y="1132"/>
      <point x="1268" y="920" type="qcurve" smooth="yes"/>
      <point x="1268" y="200" type="line" smooth="yes"/>
      <point x="1268" y="105"/>
      <point x="1218" y="0" type="qcurve"/>
      <point x="930" y="0" type="line"/>
      <point x="980" y="75"/>
      <point x="980" y="200" type="qcurve" smooth="yes"/>
      <point x="980" y="920" type="line" smooth="yes"/>
      <point x="980" y="1066"/>
      <point x="960" y="1166"/>
      <point x="922" y="1166" type="qcurve" smooth="yes"/>
      <point x="852" y="1166"/>
      <point x="693" y="973" type="qcurve"/>
      <point x="534" y="1166"/>
      <point x="464" y="1166" type="qcurve" smooth="yes"/>
      <point x="426" y="1166"/>
      <point x="406" y="1066"/>
      <point x="406" y="920" type="qcurve" smooth="yes"/>
    </contour>
  </outline>
</glyph>
<glyph name="uni0E97" format="1">
  <advance width="1633"/>
  <unicode hex="0E97"/>
  <outline>
    <contour>
      <point x="267" y="1055" type="qcurve" smooth="yes"/>
      <point x="331" y="1055"/>
      <point x="331" y="1118" type="qcurve" smooth="yes"/>
      <point x="331" y="1182"/>
      <point x="267" y="1182" type="qcurve" smooth="yes"/>
      <point x="203" y="1182"/>
      <point x="203" y="1118" type="qcurve" smooth="yes"/>
      <point x="203" y="1055"/>
    </contour>
    <contour>
      <point x="1227" y="905" type="line" smooth="yes"/>
      <point x="1227" y="1099"/>
      <point x="1183" y="1190"/>
      <point x="1096" y="1190" type="qcurve" smooth="yes"/>
      <point x="1009" y="1190"/>
      <point x="965" y="1100"/>
      <point x="965" y="905" type="qcurve" smooth="yes"/>
      <point x="965" y="374" type="line" smooth="yes"/>
      <point x="965" y="164"/>
      <point x="866" y="79" type="qcurve" smooth="yes"/>
      <point x="775" y="0"/>
      <point x="531" y="0" type="qcurve" smooth="yes"/>
      <point x="288" y="0"/>
      <point x="197" y="78" type="qcurve" smooth="yes"/>
      <point x="97" y="164"/>
      <point x="97" y="374" type="qcurve" smooth="yes"/>
      <point x="97" y="692"/>
      <point x="213" y="847" type="qcurve" smooth="yes"/>
      <point x="253" y="899"/>
      <point x="280" y="946" type="qcurve"/>
      <point x="189" y="947"/>
      <point x="97" y="1033"/>
      <point x="97" y="1118" type="qcurve" smooth="yes"/>
      <point x="97" y="1209"/>
      <point x="190" y="1300"/>
      <point x="282" y="1300" type="qcurve" smooth="yes"/>
      <point x="436" y="1300"/>
      <point x="539" y="1209"/>
      <point x="539" y="1118" type="qcurve" smooth="yes"/>
      <point x="539" y="992"/>
      <point x="385" y="648"/>
      <point x="385" y="374" type="qcurve" smooth="yes"/>
      <point x="385" y="206"/>
      <point x="430" y="110"/>
      <point x="531" y="110" type="qcurve" smooth="yes"/>
      <point x="634" y="110"/>
      <point x="677" y="208"/>
      <point x="677" y="374" type="qcurve" smooth="yes"/>
      <point x="677" y="905" type="line" smooth="yes"/>
      <point x="677" y="1135"/>
      <point x="782" y="1225" type="qcurve" smooth="yes"/>
      <point x="868" y="1300"/>
      <point x="1096" y="1300" type="qcurve" smooth="yes"/>
      <point x="1324" y="1300"/>
      <point x="1411" y="1225" type="qcurve" smooth="yes"/>
      <point x="1515" y="1134"/>
      <point x="1515" y="905" type="qcurve" smooth="yes"/>
      <point x="1515" y="200" type="line" smooth="yes"/>
      <point x="1515" y="105"/>
      <point x="1465" y="0" type="qcurve"/>
      <point x="1177" y="0" type="line"/>
      <point x="1227" y="75"/>
      <point x="1227" y="200" type="qcurve" smooth="yes"/>
    </contour>
  </outline>
</glyph>
<glyph name="uni0E9B" format="1">
  <advance width="1365"/>
  <unicode hex="0E9B"/>
  <outline>
    <contour>
      <point x="267" y="1055" type="qcurve" smooth="yes"/>
      <point x="331" y="1055"/>
      <point x="331" y="1118" type="qcurve" smooth="yes"/>
      <point x="331" y="1182"/>
      <point x="267" y="1182" type="qcurve" smooth="yes"/>
      <point x="203" y="1182"/>
      <point x="203" y="1118" type="qcurve" smooth="yes"/>
      <point x="203" y="1055"/>
    </contour>
    <contour>
      <point x="959" y="1270" type="line" smooth="yes"/>
      <point x="959" y="1355"/>
      <point x="1066" y="1575"/>
      <point x="1330" y="1635" type="qcurve"/>
      <point x="1247" y="1485"/>
      <point x="1247" y="1270" type="qcurve" smooth="yes"/>
      <point x="1247" y="430" type="line" smooth="yes"/>
      <point x="1247" y="190"/>
      <point x="1122" y="95" type="qcurve" smooth="yes"/>
      <point x="997" y="0"/>
      <point x="671" y="0" type="qcurve" smooth="yes"/>
      <point x="345" y="0"/>
      <point x="220" y="92" type="qcurve" smooth="yes"/>
      <point x="97" y="183"/>
      <point x="97" y="430" type="qcurve" smooth="yes"/>
      <point x="97" y="692"/>
      <point x="213" y="847" type="qcurve" smooth="yes"/>
      <point x="253" y="899"/>
      <point x="280" y="946" type="qcurve"/>
      <point x="189" y="947"/>
      <point x="97" y="1033"/>
      <point x="97" y="1118" type="qcurve" smooth="yes"/>
      <point x="97" y="1209"/>
      <point x="190" y="1300"/>
      <point x="282" y="1300" type="qcurve" smooth="yes"/>
      <point x="436" y="1300"/>
      <point x="539" y="1209"/>
      <point x="539" y="1118" type="qcurve" smooth="yes"/>
      <point x="539" y="992"/>
      <point x="385" y="648"/>
      <point x="385" y="430" type="qcurve" smooth="yes"/>
      <point x="385" y="223"/>
      <point x="491" y="110"/>
      <point x="672" y="110" type="qcurve" smooth="yes"/>
      <point x="852" y="110"/>
      <point x="959" y="232"/>
      <point x="959" y="430" type="qcurve" smooth="yes"/>
    </contour>
  </outline>
</glyph>
<glyph name="uni0E9C" format="1">
  <advance width="1376"/>
  <unicode hex="0E9C"/>
  <outline>
    <contour>
      <point x="494" y="1130" type="qcurve" smooth="yes"/>
      <point x="494" y="1194"/>
      <point x="430" y="1194" type="qcurve" smooth="yes"/>
      <point x="365" y="1194"/>
      <point x="365" y="1130" type="qcurve" smooth="yes"/>
      <point x="365" y="1067"/>
      <point x="430" y="1067" type="qcurve" smooth="yes"/>
      <point x="494" y="1067"/>
    </contour>
    <contour>
      <point x="946" y="1067" type="qcurve" smooth="yes"/>
      <point x="979" y="1067"/>
      <point x="1020" y="1107" type="qcurve"/>
      <point x="1011" y="1194"/>
      <point x="946" y="1194" type="qcurve" smooth="yes"/>
      <point x="882" y="1194"/>
      <point x="882" y="1130" type="qcurve" smooth="yes"/>
      <point x="882" y="1067"/>
    </contour>
    <contour>
      <point x="700" y="400" type="line"/>
      <point x="787" y="120"/>
      <point x="862" y="120" type="qcurve" smooth="yes"/>
      <point x="918" y="120"/>
      <point x="970" y="232"/>
      <point x="970" y="380" type="qcurve" smooth="yes"/>
      <point x="970" y="971" type="line"/>
      <point x="949" y="963"/>
      <point x="925" y="963" type="qcurve" smooth="yes"/>
      <point x="914" y="963"/>
      <point x="903" y="965" type="qcurve" smooth="yes"/>
      <point x="866" y="970"/>
      <point x="786" y="1045"/>
      <point x="786" y="1131" type="qcurve" smooth="yes"/>
      <point x="786" y="1205"/>
      <point x="876" y="1300"/>
      <point x="956" y="1300" type="qcurve" smooth="yes"/>
      <point x="1106" y="1300"/>
      <point x="1169" y="1254" type="qcurve" smooth="yes"/>
      <point x="1184" y="1243"/>
      <point x="1196" y="1230" type="qcurve"/>
      <point x="1219" y="1266"/>
      <point x="1219" y="1305" type="qcurve" smooth="yes"/>
      <point x="1219" y="1373"/>
      <point x="1190" y="1400" type="qcurve"/>
      <point x="1328" y="1400"/>
      <point x="1328" y="1300" type="qcurve" smooth="yes"/>
      <point x="1328" y="1203"/>
      <point x="1250" y="1119" type="qcurve"/>
      <point x="1258" y="1082"/>
      <point x="1258" y="1037" type="qcurve" smooth="yes"/>
      <point x="1258" y="380" type="line" smooth="yes"/>
      <point x="1258" y="165"/>
      <point x="1166" y="71" type="qcurve" smooth="yes"/>
      <point x="1096" y="0"/>
      <point x="912" y="0" type="qcurve" smooth="yes"/>
      <point x="759" y="0"/>
      <point x="688" y="117" type="qcurve"/>
      <point x="617" y="0"/>
      <point x="464" y="0" type="qcurve" smooth="yes"/>
      <point x="281" y="0"/>
      <point x="211" y="70" type="qcurve" smooth="yes"/>
      <point x="118" y="163"/>
      <point x="118" y="380" type="qcurve" smooth="yes"/>
      <point x="118" y="1037" type="line" smooth="yes"/>
      <point x="118" y="1190"/>
      <point x="207" y="1254" type="qcurve" smooth="yes"/>
      <point x="270" y="1300"/>
      <point x="420" y="1300" type="qcurve" smooth="yes"/>
      <point x="500" y="1300"/>
      <point x="590" y="1205"/>
      <point x="590" y="1131" type="qcurve" smooth="yes"/>
      <point x="590" y="1045"/>
      <point x="510" y="970"/>
      <point x="474" y="965" type="qcurve" smooth="yes"/>
      <point x="462" y="963"/>
      <point x="451" y="963" type="qcurve" smooth="yes"/>
      <point x="427" y="963"/>
      <point x="406" y="971" type="qcurve"/>
      <point x="406" y="380" type="line" smooth="yes"/>
      <point x="406" y="227"/>
      <point x="460" y="120"/>
      <point x="514" y="120" type="qcurve" smooth="yes"/>
      <point x="589" y="120"/>
      <point x="676" y="400" type="qcurve"/>
    </contour>
  </outline>
</glyph>
<glyph name="uni0E9D" format="1">
  <advance width="1376"/>
  <unicode hex="0E9D"/>
  <outline>
    <contour>
      <point x="494" y="1130" type="qcurve" smooth="yes"/>
      <point x="494" y="1194"/>
      <point x="430" y="1194" type="qcurve" smooth="yes"/>
      <point x="365" y="1194"/>
      <point x="365" y="1130" type="qcurve" smooth="yes"/>
      <point x="365" y="1067"/>
      <point x="430" y="1067" type="qcurve" smooth="yes"/>
      <point x="494" y="1067"/>
    </contour>
    <contour>
      <point x="1258" y="380" type="line" smooth="yes"/>
      <point x="1258" y="165"/>
      <point x="1166" y="71" type="qcurve" smooth="yes"/>
      <point x="1096" y="0"/>
      <point x="912" y="0" type="qcurve" smooth="yes"/>
      <point x="759" y="0"/>
      <point x="688" y="117" type="qcurve"/>
      <point x="617" y="0"/>
      <point x="464" y="0" type="qcurve" smooth="yes"/>
      <point x="281" y="0"/>
      <point x="211" y="70" type="qcurve" smooth="yes"/>
      <point x="118" y="163"/>
      <point x="118" y="380" type="qcurve" smooth="yes"/>
      <point x="118" y="1037" type="line" smooth="yes"/>
      <point x="118" y="1190"/>
      <point x="207" y="1254" type="qcurve" smooth="yes"/>
      <point x="270" y="1300"/>
      <point x="420" y="1300" type="qcurve" smooth="yes"/>
      <point x="500" y="1300"/>
      <point x="590" y="1205"/>
      <point x="590" y="1131" type="qcurve" smooth="yes"/>
      <point x="590" y="1045"/>
      <point x="510" y="970"/>
      <point x="474" y="965" type="qcurve" smooth="yes"/>
      <point x="462" y="963"/>
      <point x="451" y="963" type="qcurve" smooth="yes"/>
      <point x="427" y="963"/>
      <point x="406" y="971" type="qcurve"/>
      <point x="406" y="380" type="line" smooth="yes"/>
      <point x="406" y="227"/>
      <point x="460" y="120"/>
      <point x="514" y="120" type="qcurve" smooth="yes"/>
      <point x="589" y="120"/>
      <point x="676" y="400" type="qcurve"/>
      <point x="700" y="400" type="line"/>
      <point x="787" y="120"/>
      <point x="862" y="120" type="qcurve" smooth="yes"/>
      <point x="918" y="120"/>
      <point x="970" y="232"/>
      <point x="970" y="380" type="qcurve" smooth="yes"/>
      <point x="970" y="1270" type="line" smooth="yes"/>
      <point x="970" y="1355"/>
      <point x="1077" y="1575"/>
      <point x="1341" y="1635" type="qcurve"/>
      <point x="1258" y="1485"/>
      <point x="1258" y="1270" type="qcurve" smooth="yes"/>
    </contour>
  </outline>
</glyph>
<glyph name="uni0E9E" format="1">
  <advance width="1589"/>
  <unicode hex="0E9E"/>
  <outline>
    <contour>
      <point x="267" y="1055" type="qcurve" smooth="yes"/>
      <point x="331" y="1055"/>
      <point x="331" y="1118" type="qcurve" smooth="yes"/>
      <point x="331" y="1182"/>
      <point x="267" y="1182" type="qcurve" smooth="yes"/>
      <point x="203" y="1182"/>
      <point x="203" y="1118" type="qcurve" smooth="yes"/>
      <point x="203" y="1055"/>
    </contour>
    <contour>
      <point x="680" y="1300" type="line"/>
      <point x="968" y="1300" type="line"/>
      <point x="968" y="360" type="line" smooth="yes"/>
      <point x="968" y="110"/>
      <point x="1076" y="110" type="qcurve" smooth="yes"/>
      <point x="1146" y="110"/>
      <point x="1183" y="222"/>
      <point x="1183" y="373" type="qcurve" smooth="yes"/>
      <point x="1183" y="1100" type="line" smooth="yes"/>
      <point x="1183" y="1195"/>
      <point x="1233" y="1300" type="qcurve"/>
      <point x="1521" y="1300" type="line"/>
      <point x="1471" y="1225"/>
      <point x="1471" y="1100" type="qcurve" smooth="yes"/>
      <point x="1471" y="373" type="line" smooth="yes"/>
      <point x="1471" y="169"/>
      <point x="1372" y="79" type="qcurve" smooth="yes"/>
      <point x="1286" y="0"/>
      <point x="1075" y="0" type="qcurve" smooth="yes"/>
      <point x="910" y="0"/>
      <point x="824" y="110" type="qcurve"/>
      <point x="738" y="0"/>
      <point x="533" y="0" type="qcurve" smooth="yes"/>
      <point x="283" y="0"/>
      <point x="197" y="78" type="qcurve" smooth="yes"/>
      <point x="97" y="168"/>
      <point x="97" y="430" type="qcurve" smooth="yes"/>
      <point x="97" y="692"/>
      <point x="213" y="847" type="qcurve" smooth="yes"/>
      <point x="253" y="899"/>
      <point x="280" y="946" type="qcurve"/>
      <point x="189" y="947"/>
      <point x="97" y="1033"/>
      <point x="97" y="1118" type="qcurve" smooth="yes"/>
      <point x="97" y="1209"/>
      <point x="190" y="1300"/>
      <point x="282" y="1300" type="qcurve" smooth="yes"/>
      <point x="436" y="1300"/>
      <point x="539" y="1209"/>
      <point x="539" y="1118" type="qcurve" smooth="yes"/>
      <point x="539" y="992"/>
      <point x="385" y="648"/>
      <point x="385" y="430" type="qcurve" smooth="yes"/>
      <point x="385" y="220"/>
      <point x="454" y="110"/>
      <point x="533" y="110" type="qcurve" smooth="yes"/>
      <point x="680" y="110"/>
      <point x="680" y="360" type="qcurve" smooth="yes"/>
    </contour>
  </outline>
</glyph>
<glyph name="uni0E9F" format="1">
  <advance width="1589"/>
  <unicode hex="0E9F"/>
  <outline>
    <contour>
      <point x="267" y="1055" type="qcurve" smooth="yes"/>
      <point x="331" y="1055"/>
      <point x="331" y="1118" type="qcurve" smooth="yes"/>
      <point x="331" y="1182"/>
      <point x="267" y="1182" type="qcurve" smooth="yes"/>
      <point x="203" y="1182"/>
      <point x="203" y="1118" type="qcurve" smooth="yes"/>
      <point x="203" y="1055"/>
    </contour>
    <contour>
      <point x="1471" y="373" type="line" smooth="yes"/>
      <point x="1471" y="169"/>
      <point x="1372" y="79" type="qcurve" smooth="yes"/>
      <point x="1286" y="0"/>
      <point x="1075" y="0" type="qcurve" smooth="yes"/>
      <point x="910" y="0"/>
      <point x="824" y="110" type="qcurve"/>
      <point x="738" y="0"/>
      <point x="533" y="0" type="qcurve" smooth="yes"/>
      <point x="283" y="0"/>
      <point x="197" y="78" type="qcurve" smooth="yes"/>
      <point x="97" y="168"/>
      <point x="97" y="430" type="qcurve" smooth="yes"/>
      <point x="97" y="692"/>
      <point x="213" y="847" type="qcurve" smooth="yes"/>
      <point x="253" y="899"/>
      <point x="280" y="946" type="qcurve"/>
      <point x="189" y="947"/>
      <point x="97" y="1033"/>
      <point x="97" y="1118" type="qcurve" smooth="yes"/>
      <point x="97" y="1209"/>
      <point x="190" y="1300"/>
      <point x="282" y="1300" type="qcurve" smooth="yes"/>
      <point x="436" y="1300"/>
      <point x="539" y="1209"/>
      <point x="539" y="1118" type="qcurve" smooth="yes"/>
      <point x="539" y="992"/>
      <point x="385" y="648"/>
      <point x="385" y="430" type="qcurve" smooth="yes"/>
      <point x="385" y="220"/>
      <point x="454" y="110"/>
      <point x="533" y="110" type="qcurve" smooth="yes"/>
      <point x="680" y="110"/>
      <point x="680" y="360" type="qcurve" smooth="yes"/>
      <point x="680" y="1300" type="line"/>
      <point x="968" y="1300" type="line"/>
      <point x="968" y="360" type="line" smooth="yes"/>
      <point x="968" y="110"/>
      <point x="1076" y="110" type="qcurve" smooth="yes"/>
      <point x="1146" y="110"/>
      <point x="1183" y="222"/>
      <point x="1183" y="373" type="qcurve" smooth="yes"/>
      <point x="1183" y="1270" type="line" smooth="yes"/>
      <point x="1183" y="1355"/>
      <point x="1290" y="1575"/>
      <point x="1554" y="1635" type="qcurve"/>
      <point x="1471" y="1485"/>
      <point x="1471" y="1270" type="qcurve" smooth="yes"/>
    </contour>
  </outline>
</glyph>
<glyph name="uni0EA1" format="1">
  <advance width="1571"/>
  <unicode hex="0EA1"/>
  <outline>
    <contour>
      <point x="243" y="158" type="qcurve" smooth="yes"/>
      <point x="305" y="158"/>
      <point x="305" y="220" type="qcurve" smooth="yes"/>
      <point x="305" y="281"/>
      <point x="243" y="281" type="qcurve" smooth="yes"/>
      <point x="182" y="281"/>
      <point x="182" y="220" type="qcurve" smooth="yes"/>
      <point x="182" y="158"/>
    </contour>
    <contour>
      <point x="703" y="380" type="line" smooth="yes"/>
      <point x="703" y="207"/>
      <point x="829" y="110"/>
      <point x="939" y="110" type="qcurve" smooth="yes"/>
      <point x="1079" y="110"/>
      <point x="1165" y="257"/>
      <point x="1165" y="380" type="qcurve" smooth="yes"/>
      <point x="1165" y="1100" type="line" smooth="yes"/>
      <point x="1165" y="1225"/>
      <point x="1115" y="1300" type="qcurve"/>
      <point x="1403" y="1300" type="line"/>
      <point x="1453" y="1195"/>
      <point x="1453" y="1100" type="qcurve" smooth="yes"/>
      <point x="1453" y="380" type="line" smooth="yes"/>
      <point x="1453" y="190"/>
      <point x="1223" y="0"/>
      <point x="944" y="0" type="qcurve" smooth="yes"/>
      <point x="715" y="0"/>
      <point x="590" y="95" type="qcurve"/>
      <point x="589" y="96" type="line"/>
      <point x="511" y="0"/>
      <point x="340" y="0" type="qcurve" smooth="yes"/>
      <point x="82" y="0"/>
      <point x="82" y="220" type="qcurve" smooth="yes"/>
      <point x="82" y="382"/>
      <point x="243" y="382" type="qcurve" smooth="yes"/>
      <point x="405" y="382"/>
      <point x="405" y="220" type="qcurve"/>
      <point x="415" y="258"/>
      <point x="415" y="352" type="qcurve" smooth="yes"/>
      <point x="415" y="1100" type="line" smooth="yes"/>
      <point x="415" y="1225"/>
      <point x="365" y="1300" type="qcurve"/>
      <point x="653" y="1300" type="line"/>
      <point x="703" y="1195"/>
      <point x="703" y="1100" type="qcurve" smooth="yes"/>
    </contour>
  </outline>
</glyph>
<glyph name="uni0EA2" format="1">
  <advance width="1365"/>
  <unicode hex="0EA2"/>
  <outline>
    <contour>
      <point x="457" y="1184" type="qcurve" smooth="yes"/>
      <point x="426" y="1184"/>
      <point x="408" y="1172" type="qcurve" smooth="yes"/>
      <point x="381" y="1154"/>
      <point x="381" y="1109" type="qcurve" smooth="yes"/>
      <point x="381" y="1033"/>
      <point x="457" y="1033" type="qcurve" smooth="yes"/>
      <point x="496" y="1033"/>
      <point x="515" y="1054" type="qcurve" smooth="yes"/>
      <point x="532" y="1073"/>
      <point x="532" y="1109" type="qcurve" smooth="yes"/>
      <point x="532" y="1150"/>
      <point x="510" y="1169" type="qcurve" smooth="yes"/>
      <point x="491" y="1184"/>
    </contour>
    <contour>
      <point x="1247" y="380" type="line" smooth="yes"/>
      <point x="1247" y="187"/>
      <point x="1117" y="92" type="qcurve" smooth="yes"/>
      <point x="993" y="0"/>
      <point x="668" y="0" type="qcurve" smooth="yes"/>
      <point x="342" y="0"/>
      <point x="217" y="83" type="qcurve" smooth="yes"/>
      <point x="97" y="163"/>
      <point x="97" y="350" type="qcurve" smooth="yes"/>
      <point x="97" y="574"/>
      <point x="310" y="640" type="qcurve"/>
      <point x="97" y="713"/>
      <point x="97" y="870" type="qcurve" smooth="yes"/>
      <point x="97" y="1005" type="line" smooth="yes"/>
      <point x="97" y="1177"/>
      <point x="202" y="1248" type="qcurve" smooth="yes"/>
      <point x="277" y="1300"/>
      <point x="457" y="1300" type="qcurve" smooth="yes"/>
      <point x="552" y="1300"/>
      <point x="599" y="1253" type="qcurve" smooth="yes"/>
      <point x="647" y="1205"/>
      <point x="647" y="1110" type="qcurve" smooth="yes"/>
      <point x="647" y="1014"/>
      <point x="600" y="966" type="qcurve" smooth="yes"/>
      <point x="552" y="918"/>
      <point x="477" y="918" type="qcurve" smooth="yes"/>
      <point x="431" y="918"/>
      <point x="385" y="948" type="qcurve"/>
      <point x="385" y="870" type="line" smooth="yes"/>
      <point x="385" y="704"/>
      <point x="547" y="704" type="qcurve" smooth="yes"/>
      <point x="627" y="704" type="line"/>
      <point x="627" y="570" type="line"/>
      <point x="547" y="570" type="line" smooth="yes"/>
      <point x="385" y="570"/>
      <point x="385" y="350" type="qcurve" smooth="yes"/>
      <point x="385" y="229"/>
      <point x="508" y="110"/>
      <point x="668" y="110" type="qcurve" smooth="yes"/>
      <point x="848" y="110"/>
      <point x="959" y="253"/>
      <point x="959" y="380" type="qcurve" smooth="yes"/>
      <point x="959" y="1270" type="line" smooth="yes"/>
      <point x="959" y="1355"/>
      <point x="1066" y="1575"/>
      <point x="1330" y="1635" type="qcurve"/>
      <point x="1247" y="1485"/>
      <point x="1247" y="1270" type="qcurve" smooth="yes"/>
    </contour>
  </outline>
</glyph>
<glyph name="uni0EA3" format="1">
  <advance width="1344"/>
  <unicode hex="0EA3"/>
  <outline>
    <contour>
      <point x="394" y="378"/>
      <point x="394" y="354" type="qcurve" smooth="yes"/>
      <point x="394" y="328"/>
      <point x="433" y="292"/>
      <point x="460" y="292" type="qcurve" smooth="yes"/>
      <point x="485" y="292"/>
      <point x="524" y="328"/>
      <point x="524" y="354" type="qcurve" smooth="yes"/>
      <point x="524" y="378"/>
      <point x="485" y="412"/>
      <point x="460" y="412" type="qcurve" smooth="yes"/>
      <point x="433" y="412"/>
    </contour>
    <contour>
      <point x="97" y="145"/>
      <point x="97" y="273" type="qcurve" smooth="yes"/>
      <point x="97" y="387"/>
      <point x="253" y="503"/>
      <point x="460" y="503" type="qcurve" smooth="yes"/>
      <point x="531" y="503"/>
      <point x="621" y="420"/>
      <point x="621" y="354" type="qcurve" smooth="yes"/>
      <point x="621" y="279"/>
      <point x="540" y="203"/>
      <point x="460" y="203" type="qcurve" smooth="yes"/>
      <point x="419" y="203"/>
      <point x="382" y="227"/>
      <point x="377" y="234" type="qcurve"/>
      <point x="398" y="110"/>
      <point x="647" y="110" type="qcurve" smooth="yes"/>
      <point x="803" y="110"/>
      <point x="959" y="226"/>
      <point x="959" y="369" type="qcurve" smooth="yes"/>
      <point x="959" y="474"/>
      <point x="806" y="631"/>
      <point x="97" y="744"/>
      <point x="97" y="980" type="qcurve" smooth="yes"/>
      <point x="97" y="1300"/>
      <point x="620" y="1300" type="qcurve" smooth="yes"/>
      <point x="1023" y="1300"/>
      <point x="1247" y="998" type="qcurve"/>
      <point x="977" y="1116"/>
      <point x="626" y="1116" type="qcurve" smooth="yes"/>
      <point x="385" y="1116"/>
      <point x="385" y="980" type="qcurve" smooth="yes"/>
      <point x="385" y="829"/>
      <point x="906" y="729"/>
      <point x="1247" y="541"/>
      <point x="1247" y="369" type="qcurve" smooth="yes"/>
      <point x="1247" y="154"/>
      <point x="997" y="0"/>
      <point x="647" y="0" type="qcurve" smooth="yes"/>
      <point x="334" y="0"/>
    </contour>
  </outline>
</glyph>
<glyph name="uni0EA7" format="1">
  <advance width="1315"/>
  <unicode hex="0EA7"/>
  <outline>
    <contour>
      <point x="263" y="380" type="qcurve" smooth="yes"/>
      <point x="263" y="360"/>
      <point x="282" y="324"/>
      <point x="318" y="305"/>
      <point x="338" y="305" type="qcurve" smooth="yes"/>
      <point x="358" y="305"/>
      <point x="394" y="324"/>
      <point x="414" y="360"/>
      <point x="414" y="380" type="qcurve" smooth="yes"/>
      <point x="414" y="400"/>
      <point x="393" y="436"/>
      <point x="357" y="456"/>
      <point x="338" y="456" type="qcurve" smooth="yes"/>
      <point x="319" y="456"/>
      <point x="283" y="436"/>
      <point x="263" y="400"/>
    </contour>
    <contour>
      <point x="1197" y="380" type="line" smooth="yes"/>
      <point x="1197" y="190"/>
      <point x="947" y="0"/>
      <point x="647" y="0" type="qcurve" smooth="yes"/>
      <point x="397" y="0"/>
      <point x="97" y="190"/>
      <point x="97" y="380" type="qcurve" smooth="yes"/>
      <point x="97" y="430"/>
      <point x="148" y="522"/>
      <point x="240" y="571"/>
      <point x="338" y="571" type="qcurve" smooth="yes"/>
      <point x="386" y="571"/>
      <point x="477" y="522"/>
      <point x="529" y="430"/>
      <point x="529" y="380" type="qcurve" smooth="yes"/>
      <point x="529" y="289"/>
      <point x="458" y="200"/>
      <point x="430" y="194" type="qcurve"/>
      <point x="532" y="110"/>
      <point x="647" y="110" type="qcurve" smooth="yes"/>
      <point x="773" y="110"/>
      <point x="909" y="257"/>
      <point x="909" y="380" type="qcurve" smooth="yes"/>
      <point x="909" y="902" type="line" smooth="yes"/>
      <point x="909" y="1009"/>
      <point x="746" y="1176"/>
      <point x="612" y="1176" type="qcurve" smooth="yes"/>
      <point x="443" y="1176"/>
      <point x="215" y="1100"/>
      <point x="97" y="863" type="qcurve"/>
      <point x="97" y="1126"/>
      <point x="221" y="1213" type="qcurve" smooth="yes"/>
      <point x="346" y="1300"/>
      <point x="607" y="1300" type="qcurve" smooth="yes"/>
      <point x="948" y="1300"/>
      <point x="1197" y="1075"/>
      <point x="1197" y="902" type="qcurve" smooth="yes"/>
    </contour>
  </outline>
</glyph>
<glyph name="uni0EAB" format="1">
  <advance width="1716"/>
  <unicode hex="0EAB"/>
  <outline>
    <contour>
      <point x="267" y="1055" type="qcurve" smooth="yes"/>
      <point x="331" y="1055"/>
      <point x="331" y="1118" type="qcurve" smooth="yes"/>
      <point x="331" y="1182"/>
      <point x="267" y="1182" type="qcurve" smooth="yes"/>
      <point x="203" y="1182"/>
      <point x="203" y="1118" type="qcurve" smooth="yes"/>
      <point x="203" y="1055"/>
    </contour>
    <contour>
      <point x="1310" y="1010" type="line" smooth="yes"/>
      <point x="1310" y="1099"/>
      <point x="1278" y="1170"/>
      <point x="1226" y="1170" type="qcurve" smooth="yes"/>
      <point x="1158" y="1170"/>
      <point x="1058" y="985" type="qcurve"/>
      <point x="1058" y="374" type="line" smooth="yes"/>
      <point x="1058" y="164"/>
      <point x="959" y="79" type="qcurve" smooth="yes"/>
      <point x="868" y="0"/>
      <point x="568" y="0" type="qcurve" smooth="yes"/>
      <point x="288" y="0"/>
      <point x="197" y="78" type="qcurve" smooth="yes"/>
      <point x="97" y="164"/>
      <point x="97" y="430" type="qcurve" smooth="yes"/>
      <point x="97" y="692"/>
      <point x="213" y="847" type="qcurve" smooth="yes"/>
      <point x="253" y="899"/>
      <point x="280" y="946" type="qcurve"/>
      <point x="189" y="947"/>
      <point x="97" y="1033"/>
      <point x="97" y="1118" type="qcurve" smooth="yes"/>
      <point x="97" y="1209"/>
      <point x="190" y="1300"/>
      <point x="282" y="1300" type="qcurve" smooth="yes"/>
      <point x="436" y="1300"/>
      <point x="539" y="1209"/>
      <point x="539" y="1118" type="qcurve" smooth="yes"/>
      <point x="539" y="992"/>
      <point x="385" y="648"/>
      <point x="385" y="430" type="qcurve" smooth="yes"/>
      <point x="385" y="206"/>
      <point x="460" y="110"/>
      <point x="569" y="110" type="qcurve" smooth="yes"/>
      <point x="727" y="110"/>
      <point x="770" y="208"/>
      <point x="770" y="374" type="qcurve" smooth="yes"/>
      <point x="770" y="930" type="line"/>
      <point x="743" y="930" type="line" smooth="yes"/>
      <point x="689" y="930"/>
      <point x="632" y="1029"/>
      <point x="632" y="1115" type="qcurve" smooth="yes"/>
      <point x="632" y="1209"/>
      <point x="681" y="1255" type="qcurve" smooth="yes"/>
      <point x="729" y="1300"/>
      <point x="793" y="1300" type="qcurve" smooth="yes"/>
      <point x="1005" y="1300"/>
      <point x="1047" y="1159" type="qcurve"/>
      <point x="1128" y="1300"/>
      <point x="1286" y="1300" type="qcurve" smooth="yes"/>
      <point x="1443" y="1300"/>
      <point x="1598" y="1134"/>
      <point x="1598" y="1010" type="qcurve" smooth="yes"/>
      <point x="1598" y="200" type="line" smooth="yes"/>
      <point x="1598" y="105"/>
      <point x="1548" y="0" type="qcurve"/>
      <point x="1260" y="0" type="line"/>
      <point x="1310" y="75"/>
      <point x="1310" y="200" type="qcurve" smooth="yes"/>
    </contour>
  </outline>
</glyph>
<glyph name="uni0EAD" format="1">
  <advance width="1315"/>
  <unicode hex="0EAD"/>
  <outline>
    <contour>
      <point x="901" y="939" type="qcurve"/>
      <point x="884" y="1100"/>
      <point x="763" y="1196"/>
      <point x="647" y="1196" type="qcurve" smooth="yes"/>
      <point x="491" y="1196"/>
      <point x="385" y="1093"/>
      <point x="385" y="940" type="qcurve" smooth="yes"/>
      <point x="385" y="787"/>
      <point x="521" y="684"/>
      <point x="647" y="684" type="qcurve" smooth="yes"/>
      <point x="773" y="684"/>
      <point x="884" y="779"/>
    </contour>
    <contour>
      <point x="263" y="380" type="qcurve" smooth="yes"/>
      <point x="263" y="360"/>
      <point x="282" y="324"/>
      <point x="318" y="305"/>
      <point x="338" y="305" type="qcurve" smooth="yes"/>
      <point x="358" y="305"/>
      <point x="394" y="324"/>
      <point x="414" y="360"/>
      <point x="414" y="380" type="qcurve" smooth="yes"/>
      <point x="414" y="400"/>
      <point x="393" y="436"/>
      <point x="357" y="456"/>
      <point x="338" y="456" type="qcurve" smooth="yes"/>
      <point x="319" y="456"/>
      <point x="283" y="436"/>
      <point x="263" y="400"/>
    </contour>
    <contour>
      <point x="909" y="637" type="line"/>
      <point x="810" y="580"/>
      <point x="647" y="580" type="qcurve" smooth="yes"/>
      <point x="347" y="580"/>
      <point x="97" y="770"/>
      <point x="97" y="940" type="qcurve" smooth="yes"/>
      <point x="97" y="1130"/>
      <point x="327" y="1300"/>
      <point x="647" y="1300" type="qcurve"/>
      <point x="927" y="1290"/>
      <point x="1197" y="1110"/>
      <point x="1197" y="870" type="qcurve" smooth="yes"/>
      <point x="1197" y="380" type="line" smooth="yes"/>
      <point x="1197" y="190"/>
      <point x="947" y="0"/>
      <point x="647" y="0" type="qcurve" smooth="yes"/>
      <point x="397" y="0"/>
      <point x="97" y="190"/>
      <point x="97" y="380" type="qcurve" smooth="yes"/>
      <point x="97" y="430"/>
      <point x="148" y="522"/>
      <point x="240" y="571"/>
      <point x="338" y="571" type="qcurve" smooth="yes"/>
      <point x="386" y="571"/>
      <point x="477" y="522"/>
      <point x="529" y="430"/>
      <point x="529" y="380" type="qcurve" smooth="yes"/>
      <point x="529" y="289"/>
      <point x="458" y="200"/>
      <point x="430" y="194" type="qcurve"/>
      <point x="532" y="110"/>
      <point x="647" y="110" type="qcurve" smooth="yes"/>
      <point x="773" y="110"/>
      <point x="909" y="257"/>
      <point x="909" y="380" type="qcurve" smooth="yes"/>
    </contour>
  </outline>
</glyph>
<glyph name="uni0EAE" format="1">
  <advance width="1294"/>
  <unicode hex="0EAE"/>
  <outline>
    <contour>
      <point x="263" y="380" type="qcurve" smooth="yes"/>
      <point x="263" y="360"/>
      <point x="282" y="324"/>
      <point x="318" y="305"/>
      <point x="338" y="305" type="qcurve" smooth="yes"/>
      <point x="358" y="305"/>
      <point x="394" y="324"/>
      <point x="414" y="360"/>
      <point x="414" y="380" type="qcurve" smooth="yes"/>
      <point x="414" y="400"/>
      <point x="393" y="436"/>
      <point x="357" y="456"/>
      <point x="338" y="456" type="qcurve" smooth="yes"/>
      <point x="319" y="456"/>
      <point x="283" y="436"/>
      <point x="263" y="400"/>
    </contour>
    <contour>
      <point x="243" y="1300"/>
      <point x="469" y="1300" type="qcurve" smooth="yes"/>
      <point x="593" y="1300"/>
      <point x="731" y="1225" type="qcurve" smooth="yes"/>
      <point x="813" y="1180"/>
      <point x="922" y="1180" type="qcurve" smooth="yes"/>
      <point x="1130" y="1180"/>
      <point x="1247" y="1313" type="qcurve"/>
      <point x="1123" y="1036"/>
      <point x="922" y="1036" type="qcurve" smooth="yes"/>
      <point x="770" y="1036"/>
      <point x="657" y="1096" type="qcurve" smooth="yes"/>
      <point x="543" y="1156"/>
      <point x="469" y="1156" type="qcurve" smooth="yes"/>
      <point x="385" y="1156"/>
      <point x="385" y="1025" type="qcurve" smooth="yes"/>
      <point x="385" y="829"/>
      <point x="906" y="729"/>
      <point x="1247" y="541"/>
      <point x="1247" y="369" type="qcurve" smooth="yes"/>
      <point x="1247" y="190"/>
      <point x="997" y="0"/>
      <point x="647" y="0" type="qcurve" smooth="yes"/>
      <point x="347" y="0"/>
      <point x="97" y="190"/>
      <point x="97" y="380" type="qcurve" smooth="yes"/>
      <point x="97" y="430"/>
      <point x="148" y="522"/>
      <point x="240" y="571"/>
      <point x="338" y="571" type="qcurve" smooth="yes"/>
      <point x="386" y="571"/>
      <point x="477" y="522"/>
      <point x="529" y="430"/>
      <point x="529" y="380" type="qcurve" smooth="yes"/>
      <point x="529" y="289"/>
      <point x="458" y="200"/>
      <point x="430" y="194" type="qcurve"/>
      <point x="532" y="110"/>
      <point x="647" y="110" type="qcurve" smooth="yes"/>
      <point x="773" y="110"/>
      <point x="959" y="257"/>
      <point x="959" y="369" type="qcurve" smooth="yes"/>
      <point x="959" y="474"/>
      <point x="806" y="631"/>
      <point x="97" y="744"/>
      <point x="97" y="1025" type="qcurve" smooth="yes"/>
      <point x="97" y="1185"/>
    </contour>
  </outline>
</glyph>
<glyph name="uni0EAF" format="1">
  <advance width="1334"/>
  <unicode hex="0EAF"/>
  <outline>
    <contour>
      <point x="435" y="1208" type="qcurve" smooth="yes"/>
      <point x="365" y="1208"/>
      <point x="365" y="1139" type="qcurve" smooth="yes"/>
      <point x="365" y="1070"/>
      <point x="435" y="1070" type="qcurve" smooth="yes"/>
      <point x="505" y="1070"/>
      <point x="505" y="1139" type="qcurve" smooth="yes"/>
      <point x="505" y="1208"/>
    </contour>
    <contour>
      <point x="510" y="870" type="qcurve" smooth="yes"/>
      <point x="611" y="870"/>
      <point x="886" y="1134"/>
      <point x="973" y="1300" type="qcurve"/>
      <point x="1237" y="1218" type="line"/>
      <point x="561" y="-257" type="line"/>
      <point x="299" y="-189" type="line"/>
      <point x="804" y="881" type="line"/>
      <point x="661" y="717"/>
      <point x="510" y="717" type="qcurve" smooth="yes"/>
      <point x="97" y="717"/>
      <point x="97" y="1039" type="qcurve" smooth="yes"/>
      <point x="97" y="1294"/>
      <point x="397" y="1300" type="qcurve"/>
      <point x="598" y="1298"/>
      <point x="598" y="1144" type="qcurve" smooth="yes"/>
      <point x="598" y="1132"/>
      <point x="597" y="1118" type="qcurve" smooth="yes"/>
      <point x="597" y="977"/>
      <point x="435" y="977" type="qcurve" smooth="yes"/>
      <point x="389" y="977"/>
      <point x="373" y="999" type="qcurve"/>
      <point x="385" y="870"/>
    </contour>
  </outline>
</glyph>
<glyph name="uni0EB0" format="1">
  <advance width="1182"/>
  <unicode hex="0EB0"/>
  <outline>
    <contour>
      <point x="280" y="372"/>
      <point x="273" y="341"/>
      <point x="273" y="324" type="qcurve" smooth="yes"/>
      <point x="273" y="307"/>
      <point x="279" y="276"/>
      <point x="300" y="260"/>
      <point x="317" y="260" type="qcurve" smooth="yes"/>
      <point x="334" y="260"/>
      <point x="365" y="276"/>
      <point x="383" y="307"/>
      <point x="383" y="324" type="qcurve" smooth="yes"/>
      <point x="383" y="341"/>
      <point x="364" y="372"/>
      <point x="333" y="390"/>
      <point x="317" y="390" type="qcurve" smooth="yes"/>
      <point x="301" y="390"/>
    </contour>
    <contour>
      <point x="412" y="194" type="qcurve"/>
      <point x="443" y="164"/>
      <point x="547" y="164" type="qcurve" smooth="yes"/>
      <point x="643" y="164"/>
      <point x="781" y="315"/>
      <point x="797" y="464" type="qcurve"/>
      <point x="1085" y="464" type="line"/>
      <point x="1058" y="243"/>
      <point x="922" y="140" type="qcurve" smooth="yes"/>
      <point x="802" y="50"/>
      <point x="547" y="50" type="qcurve" smooth="yes"/>
      <point x="327" y="50"/>
      <point x="212" y="119" type="qcurve" smooth="yes"/>
      <point x="97" y="187"/>
      <point x="97" y="324" type="qcurve" smooth="yes"/>
      <point x="97" y="366"/>
      <point x="140" y="443"/>
      <point x="226" y="484"/>
      <point x="287" y="484" type="qcurve" smooth="yes"/>
      <point x="357" y="484"/>
      <point x="434" y="443"/>
      <point x="477" y="366"/>
      <point x="477" y="324" type="qcurve" smooth="yes"/>
      <point x="477" y="282"/>
      <point x="456" y="244" type="qcurve" smooth="yes"/>
      <point x="439" y="214"/>
    </contour>
    <contour>
      <point x="280" y="1088"/>
      <point x="273" y="1057"/>
      <point x="273" y="1040" type="qcurve" smooth="yes"/>
      <point x="273" y="1023"/>
      <point x="279" y="992"/>
      <point x="300" y="976"/>
      <point x="317" y="976" type="qcurve" smooth="yes"/>
      <point x="334" y="976"/>
      <point x="365" y="992"/>
      <point x="383" y="1023"/>
      <point x="383" y="1040" type="qcurve" smooth="yes"/>
      <point x="383" y="1057"/>
      <point x="364" y="1088"/>
      <point x="333" y="1106"/>
      <point x="317" y="1106" type="qcurve" smooth="yes"/>
      <point x="301" y="1106"/>
    </contour>
    <contour>
      <point x="412" y="910" type="qcurve"/>
      <point x="443" y="880"/>
      <point x="547" y="880" type="qcurve" smooth="yes"/>
      <point x="643" y="880"/>
      <point x="781" y="1031"/>
      <point x="797" y="1180" type="qcurve"/>
      <point x="1085" y="1180" type="line"/>
      <point x="1058" y="959"/>
      <point x="922" y="856" type="qcurve" smooth="yes"/>
      <point x="802" y="766"/>
      <point x="547" y="766" type="qcurve" smooth="yes"/>
      <point x="327" y="766"/>
      <point x="212" y="835" type="qcurve" smooth="yes"/>
      <point x="97" y="903"/>
      <point x="97" y="1040" type="qcurve" smooth="yes"/>
      <point x="97" y="1082"/>
      <point x="140" y="1159"/>
      <point x="226" y="1200"/>
      <point x="287" y="1200" type="qcurve" smooth="yes"/>
      <point x="357" y="1200"/>
      <point x="434" y="1159"/>
      <point x="477" y="1082"/>
      <point x="477" y="1040" type="qcurve" smooth="yes"/>
      <point x="477" y="998"/>
      <point x="456" y="960" type="qcurve" smooth="yes"/>
      <point x="439" y="930"/>
    </contour>
  </outline>
</glyph>
<glyph name="uni0EB1" format="1">
  <advance width="0"/>
  <unicode hex="0EB1"/>
  <outline>
    <contour>
      <point x="-940" y="1629" type="qcurve" smooth="yes"/>
      <point x="-940" y="1664"/>
      <point x="-897" y="1728"/>
      <point x="-822" y="1763"/>
      <point x="-782" y="1763" type="qcurve" smooth="yes"/>
      <point x="-742" y="1763"/>
      <point x="-657" y="1728"/>
      <point x="-615" y="1664"/>
      <point x="-615" y="1629" type="qcurve" smooth="yes"/>
      <point x="-615" y="1594"/>
      <point x="-635" y="1572" type="qcurve" smooth="yes"/>
      <point x="-636" y="1570"/>
      <point x="-636" y="1569" type="qcurve" smooth="yes"/>
      <point x="-602" y="1526"/>
      <point x="-546" y="1526" type="qcurve" smooth="yes"/>
      <point x="-349" y="1526"/>
      <point x="-328" y="1754" type="qcurve"/>
      <point x="-51" y="1754" type="line"/>
      <point x="-134" y="1450"/>
      <point x="-546" y="1450" type="qcurve" smooth="yes"/>
      <point x="-940" y="1450"/>
    </contour>
    <contour>
      <point x="-794" y="1670"/>
      <point x="-806" y="1643"/>
      <point x="-806" y="1629" type="qcurve" smooth="yes"/>
      <point x="-806" y="1615"/>
      <point x="-794" y="1588"/>
      <point x="-772" y="1573"/>
      <point x="-761" y="1573" type="qcurve" smooth="yes"/>
      <point x="-749" y="1573"/>
      <point x="-728" y="1588"/>
      <point x="-716" y="1615"/>
      <point x="-716" y="1629" type="qcurve" smooth="yes"/>
      <point x="-716" y="1643"/>
      <point x="-728" y="1670"/>
      <point x="-749" y="1685"/>
      <point x="-761" y="1685" type="qcurve" smooth="yes"/>
      <point x="-772" y="1685"/>
    </contour>
  </outline>
</glyph>
<glyph name="uni0EB3" format="1">
  <advance width="960"/>
  <unicode hex="0EB3"/>
  <outline>
    <contour>
      <point x="-535" y="1709"/>
      <point x="-549" y="1671"/>
      <point x="-549" y="1650" type="qcurve" smooth="yes"/>
      <point x="-549" y="1629"/>
      <point x="-535" y="1591"/>
      <point x="-511" y="1570"/>
      <point x="-499" y="1570" type="qcurve" smooth="yes"/>
      <point x="-486" y="1570"/>
      <point x="-462" y="1591"/>
      <point x="-449" y="1629"/>
      <point x="-449" y="1650" type="qcurve" smooth="yes"/>
      <point x="-449" y="1671"/>
      <point x="-462" y="1709"/>
      <point x="-486" y="1730"/>
      <point x="-499" y="1730" type="qcurve" smooth="yes"/>
      <point x="-511" y="1730"/>
    </contour>
    <contour>
      <point x="-499" y="1850" type="qcurve" smooth="yes"/>
      <point x="-435" y="1850"/>
      <point x="-316" y="1798"/>
      <point x="-249" y="1702"/>
      <point x="-249" y="1650" type="qcurve" smooth="yes"/>
      <point x="-249" y="1598"/>
      <point x="-314" y="1503"/>
      <point x="-434" y="1450"/>
      <point x="-499" y="1450" type="qcurve" smooth="yes"/>
      <point x="-563" y="1450"/>
      <point x="-683" y="1503"/>
      <point x="-749" y="1598"/>
      <point x="-749" y="1650" type="qcurve" smooth="yes"/>
      <point x="-749" y="1702"/>
      <point x="-681" y="1798"/>
      <point x="-561" y="1850"/>
    </contour>
    <contour>
      <point x="198" y="1040" type="qcurve" smooth="yes"/>
      <point x="198" y="966"/>
      <point x="273" y="966" type="qcurve" smooth="yes"/>
      <point x="349" y="966"/>
      <point x="349" y="1041" type="qcurve" smooth="yes"/>
      <point x="349" y="1117"/>
      <point x="273" y="1117" type="qcurve" smooth="yes"/>
      <point x="198" y="1117"/>
    </contour>
    <contour>
      <point x="554" y="990" type="line" smooth="yes"/>
      <point x="554" y="1177"/>
      <point x="373" y="1203" type="qcurve"/>
      <point x="464" y="1157"/>
      <point x="464" y="1040" type="qcurve" smooth="yes"/>
      <point x="464" y="850"/>
      <point x="272" y="850" type="qcurve" smooth="yes"/>
      <point x="82" y="850"/>
      <point x="82" y="1040" type="qcurve" smooth="yes"/>
      <point x="82" y="1300"/>
      <point x="437" y="1300" type="qcurve" smooth="yes"/>
      <point x="842" y="1300"/>
      <point x="842" y="990" type="qcurve" smooth="yes"/>
      <point x="842" y="200" type="line" smooth="yes"/>
      <point x="842" y="105"/>
      <point x="792" y="0" type="qcurve"/>
      <point x="504" y="0" type="line"/>
      <point x="554" y="75"/>
      <point x="554" y="200" type="qcurve" smooth="yes"/>
    </contour>
  </outline>
</glyph>
<glyph name="uni0EB4" format="1">
  <advance width="0"/>
  <unicode hex="0EB4"/>
  <outline>
    <contour>
      <point x="-649" y="1797" type="qcurve" smooth="yes"/>
      <point x="-489" y="1797"/>
      <point x="-255" y="1760"/>
      <point x="-148" y="1667"/>
      <point x="-148" y="1628" type="qcurve"/>
      <point x="-154" y="1594"/>
      <point x="-178" y="1558"/>
      <point x="-251" y="1507"/>
      <point x="-325" y="1472"/>
      <point x="-429" y="1451" type="qcurve" smooth="yes"/>
      <point x="-437" y="1451"/>
      <point x="-443" y="1450" type="qcurve"/>
      <point x="-503" y="1530" type="line"/>
      <point x="-420" y="1574"/>
      <point x="-420" y="1624" type="qcurve" smooth="yes"/>
      <point x="-420" y="1673"/>
      <point x="-496" y="1705"/>
      <point x="-649" y="1705" type="qcurve" smooth="yes"/>
      <point x="-802" y="1705"/>
      <point x="-878" y="1673"/>
      <point x="-878" y="1624" type="qcurve" smooth="yes"/>
      <point x="-878" y="1574"/>
      <point x="-795" y="1530" type="qcurve"/>
      <point x="-855" y="1450" type="line"/>
      <point x="-861" y="1451"/>
      <point x="-869" y="1451" type="qcurve" smooth="yes"/>
      <point x="-973" y="1472"/>
      <point x="-1047" y="1507"/>
      <point x="-1120" y="1558"/>
      <point x="-1144" y="1594"/>
      <point x="-1150" y="1628" type="qcurve"/>
      <point x="-1150" y="1667"/>
      <point x="-1043" y="1760"/>
      <point x="-809" y="1797"/>
    </contour>
  </outline>
</glyph>
<glyph name="uni0EB6" format="1">
  <advance width="0"/>
  <unicode hex="0EB6"/>
  <outline>
    <contour>
      <point x="-650" y="1658" type="qcurve" smooth="yes"/>
      <point x="-625" y="1658"/>
      <point x="-581" y="1644"/>
      <point x="-556" y="1617"/>
      <point x="-556" y="1603" type="qcurve" smooth="yes"/>
      <point x="-556" y="1589"/>
      <point x="-580" y="1562"/>
      <point x="-624" y="1548"/>
      <point x="-650" y="1548" type="qcurve" smooth="yes"/>
      <point x="-674" y="1548"/>
      <point x="-718" y="1562"/>
      <point x="-743" y="1589"/>
      <point x="-743" y="1603" type="qcurve" smooth="yes"/>
      <point x="-743" y="1617"/>
      <point x="-718" y="1644"/>
      <point x="-673" y="1658"/>
    </contour>
    <contour>
      <point x="-649" y="1797" type="qcurve" smooth="yes"/>
      <point x="-489" y="1797"/>
      <point x="-255" y="1760"/>
      <point x="-148" y="1667"/>
      <point x="-148" y="1628" type="qcurve"/>
      <point x="-154" y="1594"/>
      <point x="-178" y="1558"/>
      <point x="-251" y="1507"/>
      <point x="-325" y="1472"/>
      <point x="-429" y="1451" type="qcurve" smooth="yes"/>
      <point x="-437" y="1451"/>
      <point x="-443" y="1450" type="qcurve"/>
      <point x="-503" y="1530" type="line"/>
      <point x="-420" y="1574"/>
      <point x="-420" y="1624" type="qcurve" smooth="yes"/>
      <point x="-420" y="1673"/>
      <point x="-496" y="1705"/>
      <point x="-649" y="1705" type="qcurve" smooth="yes"/>
      <point x="-802" y="1705"/>
      <point x="-878" y="1673"/>
      <point x="-878" y="1624" type="qcurve" smooth="yes"/>
      <point x="-878" y="1574"/>
      <point x="-795" y="1530" type="qcurve"/>
      <point x="-855" y="1450" type="line"/>
      <point x="-861" y="1451"/>
      <point x="-869" y="1451" type="qcurve" smooth="yes"/>
      <point x="-973" y="1472"/>
      <point x="-1047" y="1507"/>
      <point x="-1120" y="1558"/>
      <point x="-1144" y="1594"/>
      <point x="-1150" y="1628" type="qcurve"/>
      <point x="-1150" y="1667"/>
      <point x="-1043" y="1760"/>
      <point x="-809" y="1797"/>
    </contour>
  </outline>
</glyph>
<glyph name="uni0EB7" format="1">
  <advance width="0"/>
  <unicode hex="0EB7"/>
  <outline>
    <contour>
      <point x="-660" y="1658" type="qcurve" smooth="yes"/>
      <point x="-639" y="1658"/>
      <point x="-600" y="1644"/>
      <point x="-577" y="1618"/>
      <point x="-577" y="1605" type="qcurve" smooth="yes"/>
      <point x="-577" y="1592"/>
      <point x="-599" y="1565"/>
      <point x="-638" y="1551"/>
      <point x="-660" y="1551" type="qcurve" smooth="yes"/>
      <point x="-682" y="1551"/>
      <point x="-721" y="1565"/>
      <point x="-743" y="1592"/>
      <point x="-743" y="1605" type="qcurve" smooth="yes"/>
      <point x="-743" y="1618"/>
      <point x="-721" y="1644"/>
      <point x="-681" y="1658"/>
    </contour>
    <contour>
      <point x="-532" y="1532" type="line" smooth="yes"/>
      <point x="-529" y="1534"/>
      <point x="-515" y="1536" type="qcurve"/>
      <point x="-449" y="1577"/>
      <point x="-449" y="1624" type="qcurve" smooth="yes"/>
      <point x="-449" y="1673"/>
      <point x="-522" y="1704"/>
      <point x="-663" y="1704" type="qcurve" smooth="yes"/>
      <point x="-805" y="1704"/>
      <point x="-878" y="1673"/>
      <point x="-878" y="1624" type="qcurve" smooth="yes"/>
      <point x="-878" y="1574"/>
      <point x="-795" y="1530" type="qcurve"/>
      <point x="-855" y="1450" type="line"/>
      <point x="-861" y="1451"/>
      <point x="-869" y="1451" type="qcurve" smooth="yes"/>
      <point x="-973" y="1472"/>
      <point x="-1047" y="1507"/>
      <point x="-1120" y="1558"/>
      <point x="-1144" y="1594"/>
      <point x="-1150" y="1628" type="qcurve"/>
      <point x="-1150" y="1667"/>
      <point x="-1043" y="1760"/>
      <point x="-951" y="1779" type="qcurve" smooth="yes"/>
      <point x="-868" y="1795"/>
      <point x="-663" y="1795" type="qcurve" smooth="yes"/>
      <point x="-459" y="1795"/>
      <point x="-376" y="1779" type="qcurve" smooth="yes"/>
      <point x="-284" y="1760"/>
      <point x="-177" y="1667"/>
      <point x="-177" y="1628" type="qcurve"/>
      <point x="-183" y="1594"/>
      <point x="-195" y="1576" type="qcurve" smooth="yes"/>
      <point x="-203" y="1563"/>
      <point x="-224" y="1547" type="qcurve"/>
      <point x="-70" y="1547" type="line"/>
      <point x="-70" y="1450" type="line"/>
      <point x="-532" y="1450" type="line"/>
    </contour>
  </outline>
</glyph>
<glyph name="uni0EB8" format="1">
  <advance width="0"/>
  <unicode hex="0EB8"/>
  <outline>
    <contour>
      <point x="-476" y="-173"/>
      <point x="-484" y="-193"/>
      <point x="-484" y="-205" type="qcurve" smooth="yes"/>
      <point x="-484" y="-216"/>
      <point x="-476" y="-236"/>
      <point x="-464" y="-249"/>
      <point x="-457" y="-249" type="qcurve" smooth="yes"/>
      <point x="-450" y="-249"/>
      <point x="-437" y="-236"/>
      <point x="-431" y="-216"/>
      <point x="-431" y="-205" type="qcurve" smooth="yes"/>
      <point x="-431" y="-193"/>
      <point x="-437" y="-173"/>
      <point x="-450" y="-161"/>
      <point x="-457" y="-161" type="qcurve" smooth="yes"/>
      <point x="-463" y="-161"/>
    </contour>
    <contour>
      <point x="-462" y="-347" type="qcurve"/>
      <point x="-486" y="-343"/>
      <point x="-508" y="-329" type="qcurve" smooth="yes"/>
      <point x="-539" y="-310"/>
      <point x="-572" y="-243"/>
      <point x="-572" y="-205" type="qcurve" smooth="yes"/>
      <point x="-572" y="-166"/>
      <point x="-537" y="-97"/>
      <point x="-477" y="-61"/>
      <point x="-445" y="-61" type="qcurve" smooth="yes"/>
      <point x="-363" y="-61"/>
      <point x="-303" y="-97"/>
      <point x="-269" y="-166"/>
      <point x="-269" y="-205" type="qcurve" smooth="yes"/>
      <point x="-269" y="-448"/>
      <point x="-454" y="-511" type="qcurve"/>
      <point x="-559" y="-423" type="line"/>
      <point x="-492" y="-411"/>
    </contour>
  </outline>
</glyph>
<glyph name="uni0EB9" format="1">
  <advance width="0"/>
  <unicode hex="0EB9"/>
  <outline>
    <contour>
      <point x="-715" y="-184"/>
      <point x="-715" y="-196" type="qcurve" smooth="yes"/>
      <point x="-715" y="-209"/>
      <point x="-705" y="-229"/>
      <point x="-688" y="-242"/>
      <point x="-658" y="-244" type="qcurve"/>
      <point x="-643" y="-218"/>
      <point x="-643" y="-196" type="qcurve" smooth="yes"/>
      <point x="-643" y="-184"/>
      <point x="-653" y="-163"/>
      <point x="-670" y="-150"/>
      <point x="-679" y="-150" type="qcurve" smooth="yes"/>
      <point x="-687" y="-150"/>
      <point x="-705" y="-163"/>
    </contour>
    <contour>
      <point x="-531" y="-278" type="qcurve" smooth="yes"/>
      <point x="-542" y="-315"/>
      <point x="-542" y="-351" type="qcurve" smooth="yes"/>
      <point x="-542" y="-366"/>
      <point x="-540" y="-381" type="qcurve" smooth="yes"/>
      <point x="-533" y="-406"/>
      <point x="-496" y="-406" type="qcurve" smooth="yes"/>
      <point x="-449" y="-406"/>
      <point x="-449" y="-262" type="qcurve" smooth="yes"/>
      <point x="-449" y="-61" type="line"/>
      <point x="-237" y="-61" type="line"/>
      <point x="-237" y="-268" type="line" smooth="yes"/>
      <point x="-237" y="-511"/>
      <point x="-496" y="-511" type="qcurve" smooth="yes"/>
      <point x="-652" y="-511"/>
      <point x="-678" y="-446" type="qcurve" smooth="yes"/>
      <point x="-694" y="-408"/>
      <point x="-694" y="-374" type="qcurve" smooth="yes"/>
      <point x="-694" y="-348"/>
      <point x="-685" y="-324" type="qcurve"/>
      <point x="-713" y="-324"/>
      <point x="-739" y="-307" type="qcurve" smooth="yes"/>
      <point x="-767" y="-289"/>
      <point x="-794" y="-226"/>
      <point x="-794" y="-193" type="qcurve" smooth="yes"/>
      <point x="-794" y="-158"/>
      <point x="-767" y="-94"/>
      <point x="-711" y="-61"/>
      <point x="-652" y="-61" type="qcurve" smooth="yes"/>
      <point x="-602" y="-61"/>
      <point x="-547" y="-94"/>
      <point x="-516" y="-158"/>
      <point x="-516" y="-193" type="qcurve" smooth="yes"/>
      <point x="-516" y="-224"/>
    </contour>
  </outline>
</glyph>
<glyph name="uni0EBB" format="1">
  <advance width="0"/>
  <unicode hex="0EBB"/>
  <outline>
    <contour>
      <point x="-936" y="1563" type="qcurve" smooth="yes"/>
      <point x="-937" y="1570"/>
      <point x="-937" y="1578" type="qcurve" smooth="yes"/>
      <point x="-937" y="1743"/>
      <point x="-560" y="1778" type="qcurve" smooth="yes"/>
      <point x="-513" y="1782"/>
      <point x="-470" y="1782" type="qcurve" smooth="yes"/>
      <point x="-137" y="1782"/>
      <point x="-39" y="1521" type="qcurve"/>
      <point x="-315" y="1495" type="line"/>
      <point x="-354" y="1703"/>
      <point x="-525" y="1703" type="qcurve" smooth="yes"/>
      <point x="-538" y="1703"/>
      <point x="-553" y="1702" type="qcurve" smooth="yes"/>
      <point x="-609" y="1697"/>
      <point x="-639" y="1651" type="qcurve" smooth="yes"/>
      <point x="-639" y="1650"/>
      <point x="-638" y="1648" type="qcurve" smooth="yes"/>
      <point x="-616" y="1628"/>
      <point x="-612" y="1593" type="qcurve"/>
      <point x="-612" y="1583" type="line" smooth="yes"/>
      <point x="-612" y="1553"/>
      <point x="-627" y="1525" type="qcurve" smooth="yes"/>
      <point x="-645" y="1491"/>
      <point x="-726" y="1448"/>
      <point x="-766" y="1444" type="qcurve" smooth="yes"/>
      <point x="-775" y="1443"/>
      <point x="-784" y="1443" type="qcurve" smooth="yes"/>
      <point x="-815" y="1443"/>
      <point x="-845" y="1454" type="qcurve" smooth="yes"/>
      <point x="-884" y="1468"/>
      <point x="-933" y="1528"/>
    </contour>
    <contour>
      <point x="-753" y="1524" type="line" smooth="yes"/>
      <point x="-741" y="1525"/>
      <point x="-721" y="1542"/>
      <point x="-716" y="1556" type="qcurve" smooth="yes"/>
      <point x="-713" y="1567"/>
      <point x="-713" y="1579" type="qcurve" smooth="yes"/>
      <point x="-713" y="1584" type="line" smooth="yes"/>
      <point x="-714" y="1598"/>
      <point x="-728" y="1623"/>
      <point x="-739" y="1630" type="qcurve" smooth="yes"/>
      <point x="-749" y="1635"/>
      <point x="-760" y="1635" type="qcurve" smooth="yes"/>
      <point x="-763" y="1635" type="line" smooth="yes"/>
      <point x="-774" y="1634"/>
      <point x="-794" y="1617"/>
      <point x="-799" y="1603" type="qcurve" smooth="yes"/>
      <point x="-803" y="1591"/>
      <point x="-803" y="1580" type="qcurve" smooth="yes"/>
      <point x="-803" y="1575" type="line" smooth="yes"/>
      <point x="-801" y="1561"/>
      <point x="-786" y="1536"/>
      <point x="-775" y="1530" type="qcurve" smooth="yes"/>
      <point x="-765" y="1524"/>
      <point x="-756" y="1524" type="qcurve" smooth="yes"/>
    </contour>
  </outline>
</glyph>
<glyph name="uni0EBD" format="1">
  <advance width="1050"/>
  <unicode hex="0EBD"/>
  <outline>
    <contour>
      <point x="311" y="-123" type="qcurve" smooth="yes"/>
      <point x="285" y="-123"/>
      <point x="270" y="-144" type="qcurve" smooth="yes"/>
      <point x="256" y="-163"/>
      <point x="256" y="-192" type="qcurve" smooth="yes"/>
      <point x="256" y="-197"/>
      <point x="257" y="-203" type="qcurve" smooth="yes"/>
      <point x="260" y="-258"/>
      <point x="340" y="-273" type="qcurve"/>
      <point x="374" y="-248"/>
      <point x="374" y="-205" type="qcurve" smooth="yes"/>
      <point x="374" y="-203" type="line" smooth="yes"/>
      <point x="374" y="-166"/>
      <point x="339" y="-123"/>
    </contour>
    <contour>
      <point x="644" y="774" type="line" smooth="yes"/>
      <point x="644" y="861"/>
      <point x="82" y="1078"/>
      <point x="82" y="1161" type="qcurve" smooth="yes"/>
      <point x="82" y="1217"/>
      <point x="110" y="1247" type="qcurve" smooth="yes"/>
      <point x="137" y="1277"/>
      <point x="171" y="1289" type="qcurve" smooth="yes"/>
      <point x="205" y="1300"/>
      <point x="260" y="1300" type="qcurve" smooth="yes"/>
      <point x="315" y="1300"/>
      <point x="405" y="1283" type="qcurve" smooth="yes"/>
      <point x="494" y="1266"/>
      <point x="594" y="1233" type="qcurve" smooth="yes"/>
      <point x="619" y="1224"/>
      <point x="707" y="1224" type="qcurve" smooth="yes"/>
      <point x="794" y="1224"/>
      <point x="932" y="1329" type="qcurve"/>
      <point x="932" y="1245" type="line" smooth="yes"/>
      <point x="932" y="1188"/>
      <point x="903" y="1148" type="qcurve" smooth="yes"/>
      <point x="874" y="1108"/>
      <point x="756" y="1090"/>
      <point x="728" y="1090" type="qcurve" smooth="yes"/>
      <point x="703" y="1090"/>
      <point x="674" y="1095" type="qcurve" smooth="yes"/>
      <point x="613" y="1106"/>
      <point x="392" y="1177"/>
      <point x="344" y="1177" type="qcurve" smooth="yes"/>
      <point x="295" y="1177"/>
      <point x="293" y="1157" type="qcurve"/>
      <point x="292" y="1157" type="line"/>
      <point x="292" y="1136"/>
      <point x="552" y="1056" type="qcurve" smooth="yes"/>
      <point x="813" y="975"/>
      <point x="873" y="932" type="qcurve" smooth="yes"/>
      <point x="932" y="889"/>
      <point x="932" y="836" type="qcurve" smooth="yes"/>
      <point x="932" y="0" type="line" smooth="yes"/>
      <point x="932" y="-228"/>
      <point x="829" y="-332" type="qcurve" smooth="yes"/>
      <point x="743" y="-420"/>
      <point x="535" y="-420" type="qcurve" smooth="yes"/>
      <point x="408" y="-420"/>
      <point x="264" y="-398"/>
      <point x="139" y="-343"/>
      <point x="82" y="-266"/>
      <point x="82" y="-201" type="qcurve" smooth="yes"/>
      <point x="82" y="-194" type="line" smooth="yes"/>
      <point x="82" y="-121"/>
      <point x="136" y="-68" type="qcurve" smooth="yes"/>
      <point x="191" y="-14"/>
      <point x="252" y="-8" type="qcurve" smooth="yes"/>
      <point x="269" y="-7"/>
      <point x="284" y="-7" type="qcurve" smooth="yes"/>
      <point x="323" y="-7"/>
      <point x="350" y="-16" type="qcurve" smooth="yes"/>
      <point x="388" y="-29"/>
      <point x="447" y="-77"/>
      <point x="467" y="-119" type="qcurve" smooth="yes"/>
      <point x="482" y="-150"/>
      <point x="482" y="-189" type="qcurve" smooth="yes"/>
      <point x="482" y="-203"/>
      <point x="480" y="-219" type="qcurve" smooth="yes"/>
      <point x="472" y="-276"/>
      <point x="446" y="-296" type="qcurve"/>
      <point x="492" y="-299"/>
      <point x="541" y="-299" type="qcurve" smooth="yes"/>
      <point x="588" y="-297"/>
      <point x="644" y="-198"/>
      <point x="644" y="-6" type="qcurve" smooth="yes"/>
    </contour>
  </outline>
</glyph>
<glyph name="uni0EC0" format="1">
  <advance width="750"/>
  <unicode hex="0EC0"/>
  <outline>
    <contour>
      <point x="468" y="183"/>
      <point x="468" y="170" type="qcurve" smooth="yes"/>
      <point x="468" y="157"/>
      <point x="481" y="133"/>
      <point x="505" y="120"/>
      <point x="518" y="120" type="qcurve" smooth="yes"/>
      <point x="531" y="120"/>
      <point x="555" y="133"/>
      <point x="568" y="157"/>
      <point x="568" y="170" type="qcurve" smooth="yes"/>
      <point x="568" y="183"/>
      <point x="554" y="207"/>
      <point x="531" y="220"/>
      <point x="518" y="220" type="qcurve" smooth="yes"/>
      <point x="505" y="220"/>
      <point x="481" y="207"/>
    </contour>
    <contour>
      <point x="406" y="300" type="line" smooth="yes"/>
      <point x="406" y="270"/>
      <point x="418" y="265" type="qcurve"/>
      <point x="438" y="297"/>
      <point x="490" y="320"/>
      <point x="518" y="320" type="qcurve" smooth="yes"/>
      <point x="556" y="320"/>
      <point x="627" y="281"/>
      <point x="668" y="209"/>
      <point x="668" y="170" type="qcurve" smooth="yes"/>
      <point x="668" y="87"/>
      <point x="625" y="45" type="qcurve" smooth="yes"/>
      <point x="580" y="0"/>
      <point x="488" y="0" type="qcurve" smooth="yes"/>
      <point x="284" y="0"/>
      <point x="204" y="70" type="qcurve" smooth="yes"/>
      <point x="118" y="144"/>
      <point x="118" y="300" type="qcurve" smooth="yes"/>
      <point x="118" y="1000" type="line" smooth="yes"/>
      <point x="118" y="1157"/>
      <point x="204" y="1232" type="qcurve" smooth="yes"/>
      <point x="283" y="1300"/>
      <point x="462" y="1300" type="qcurve" smooth="yes"/>
      <point x="660" y="1300"/>
      <point x="698" y="1126" type="qcurve"/>
      <point x="600" y="1186"/>
      <point x="502" y="1186" type="qcurve" smooth="yes"/>
      <point x="454" y="1186"/>
      <point x="406" y="1085"/>
      <point x="406" y="1000" type="qcurve" smooth="yes"/>
    </contour>
  </outline>
</glyph>
<glyph name="uni0EC1" format="1">
  <advance width="1383"/>
  <unicode hex="0EC1"/>
  <outline>
    <contour>
      <point x="1100" y="183"/>
      <point x="1100" y="170" type="qcurve" smooth="yes"/>
      <point x="1100" y="157"/>
      <point x="1113" y="133"/>
      <point x="1137" y="120"/>
      <point x="1150" y="120" type="qcurve" smooth="yes"/>
      <point x="1163" y="120"/>
      <point x="1187" y="133"/>
      <point x="1200" y="157"/>
      <point x="1200" y="170" type="qcurve" smooth="yes"/>
      <point x="1200" y="183"/>
      <point x="1186" y="207"/>
      <point x="1163" y="220"/>
      <point x="1150" y="220" type="qcurve" smooth="yes"/>
      <point x="1137" y="220"/>
      <point x="1113" y="207"/>
    </contour>
    <contour>
      <point x="1038" y="300" type="line" smooth="yes"/>
      <point x="1038" y="270"/>
      <point x="1050" y="265" type="qcurve"/>
      <point x="1070" y="297"/>
      <point x="1122" y="320"/>
      <point x="1150" y="320" type="qcurve" smooth="yes"/>
      <point x="1188" y="320"/>
      <point x="1259" y="281"/>
      <point x="1300" y="209"/>
      <point x="1300" y="170" type="qcurve" smooth="yes"/>
      <point x="1300" y="87"/>
      <point x="1257" y="45" type="qcurve" smooth="yes"/>
      <point x="1212" y="0"/>
      <point x="1120" y="0" type="qcurve" smooth="yes"/>
      <point x="916" y="0"/>
      <point x="836" y="70" type="qcurve" smooth="yes"/>
      <point x="750" y="144"/>
      <point x="750" y="300" type="qcurve" smooth="yes"/>
      <point x="750" y="1000" type="line" smooth="yes"/>
      <point x="750" y="1157"/>
      <point x="836" y="1232" type="qcurve" smooth="yes"/>
      <point x="915" y="1300"/>
      <point x="1094" y="1300" type="qcurve" smooth="yes"/>
      <point x="1292" y="1300"/>
      <point x="1330" y="1126" type="qcurve"/>
      <point x="1232" y="1186"/>
      <point x="1134" y="1186" type="qcurve" smooth="yes"/>
      <point x="1086" y="1186"/>
      <point x="1038" y="1085"/>
      <point x="1038" y="1000" type="qcurve" smooth="yes"/>
    </contour>
    <contour>
      <point x="468" y="183"/>
      <point x="468" y="170" type="qcurve" smooth="yes"/>
      <point x="468" y="157"/>
      <point x="481" y="133"/>
      <point x="505" y="120"/>
      <point x="518" y="120" type="qcurve" smooth="yes"/>
      <point x="531" y="120"/>
      <point x="555" y="133"/>
      <point x="568" y="157"/>
      <point x="568" y="170" type="qcurve" smooth="yes"/>
      <point x="568" y="183"/>
      <point x="554" y="207"/>
      <point x="531" y="220"/>
      <point x="518" y="220" type="qcurve" smooth="yes"/>
      <point x="505" y="220"/>
      <point x="481" y="207"/>
    </contour>
    <contour>
      <point x="406" y="300" type="line" smooth="yes"/>
      <point x="406" y="270"/>
      <point x="418" y="265" type="qcurve"/>
      <point x="438" y="297"/>
      <point x="490" y="320"/>
      <point x="518" y="320" type="qcurve" smooth="yes"/>
      <point x="556" y="320"/>
      <point x="627" y="281"/>
      <point x="668" y="209"/>
      <point x="668" y="170" type="qcurve" smooth="yes"/>
      <point x="668" y="87"/>
      <point x="625" y="45" type="qcurve" smooth="yes"/>
      <point x="580" y="0"/>
      <point x="488" y="0" type="qcurve" smooth="yes"/>
      <point x="284" y="0"/>
      <point x="204" y="70" type="qcurve" smooth="yes"/>
      <point x="118" y="144"/>
      <point x="118" y="300" type="qcurve" smooth="yes"/>
      <point x="118" y="1000" type="line" smooth="yes"/>
      <point x="118" y="1157"/>
      <point x="204" y="1232" type="qcurve" smooth="yes"/>
      <point x="283" y="1300"/>
      <point x="462" y="1300" type="qcurve" smooth="yes"/>
      <point x="660" y="1300"/>
      <point x="698" y="1126" type="qcurve"/>
      <point x="600" y="1186"/>
      <point x="502" y="1186" type="qcurve" smooth="yes"/>
      <point x="454" y="1186"/>
      <point x="406" y="1085"/>
      <point x="406" y="1000" type="qcurve" smooth="yes"/>
    </contour>
  </outline>
</glyph>
<glyph name="uni0EC2" format="1">
  <advance width="856"/>
  <unicode hex="0EC2"/>
  <outline>
    <contour>
      <point x="509" y="170" type="qcurve" smooth="yes"/>
      <point x="509" y="157"/>
      <point x="522" y="133"/>
      <point x="546" y="120"/>
      <point x="559" y="120" type="qcurve" smooth="yes"/>
      <point x="572" y="120"/>
      <point x="596" y="133"/>
      <point x="609" y="157"/>
      <point x="609" y="170" type="qcurve" smooth="yes"/>
      <point x="609" y="183"/>
      <point x="595" y="207"/>
      <point x="572" y="220"/>
      <point x="559" y="220" type="qcurve" smooth="yes"/>
      <point x="546" y="220"/>
      <point x="522" y="207"/>
      <point x="509" y="183"/>
    </contour>
    <contour>
      <point x="634" y="1307" type="line"/>
      <point x="527" y="1243"/>
      <point x="447" y="1093"/>
      <point x="447" y="1010" type="qcurve" smooth="yes"/>
      <point x="447" y="300" type="line" smooth="yes"/>
      <point x="447" y="270"/>
      <point x="459" y="265" type="qcurve"/>
      <point x="479" y="297"/>
      <point x="531" y="320"/>
      <point x="559" y="320" type="qcurve" smooth="yes"/>
      <point x="597" y="320"/>
      <point x="668" y="281"/>
      <point x="709" y="209"/>
      <point x="709" y="170" type="qcurve" smooth="yes"/>
      <point x="709" y="87"/>
      <point x="666" y="45" type="qcurve" smooth="yes"/>
      <point x="621" y="0"/>
      <point x="529" y="0" type="qcurve" smooth="yes"/>
      <point x="325" y="0"/>
      <point x="245" y="70" type="qcurve" smooth="yes"/>
      <point x="159" y="144"/>
      <point x="159" y="300" type="qcurve" smooth="yes"/>
      <point x="159" y="1010" type="line" smooth="yes"/>
      <point x="159" y="1190"/>
      <point x="373" y="1315" type="qcurve"/>
      <point x="74" y="1579" type="line" smooth="yes"/>
      <point x="7" y="1638"/>
      <point x="0" y="1735" type="qcurve"/>
      <point x="0" y="1742" type="line" smooth="yes"/>
      <point x="0" y="1814"/>
      <point x="41" y="1866" type="qcurve"/>
      <point x="102" y="1928"/>
      <point x="174" y="1933" type="qcurve" smooth="yes"/>
      <point x="185" y="1934"/>
      <point x="196" y="1934" type="qcurve" smooth="yes"/>
      <point x="285" y="1934"/>
      <point x="343" y="1883" type="qcurve" smooth="yes"/>
      <point x="450" y="1791" type="line"/>
      <point x="610" y="1647"/>
      <point x="690" y="1647" type="qcurve" smooth="yes"/>
      <point x="700" y="1647"/>
      <point x="779" y="1649" type="qcurve"/>
      <point x="700" y="1540"/>
      <point x="608" y="1540" type="qcurve" smooth="yes"/>
      <point x="515" y="1540"/>
      <point x="356" y="1683" type="qcurve" smooth="yes"/>
      <point x="319" y="1717" type="line" smooth="yes"/>
      <point x="287" y="1747"/>
      <point x="258" y="1747" type="qcurve" smooth="yes"/>
      <point x="230" y="1747"/>
      <point x="205" y="1716" type="qcurve" smooth="yes"/>
      <point x="196" y="1704"/>
      <point x="196" y="1692" type="qcurve" smooth="yes"/>
      <point x="196" y="1665"/>
      <point x="235" y="1632" type="qcurve" smooth="yes"/>
      <point x="633" y="1312" type="line"/>
      <point x="638" y="1310" type="line" smooth="yes"/>
      <point x="637" y="1309"/>
      <point x="636" y="1309" type="qcurve" smooth="yes"/>
      <point x="638" y="1307" type="line"/>
    </contour>
  </outline>
</glyph>
<glyph name="uni0EC3" format="1">
  <advance width="947"/>
  <unicode hex="0EC3"/>
  <outline>
    <contour>
      <point x="600" y="170" type="qcurve" smooth="yes"/>
      <point x="600" y="157"/>
      <point x="613" y="133"/>
      <point x="637" y="120"/>
      <point x="650" y="120" type="qcurve" smooth="yes"/>
      <point x="663" y="120"/>
      <point x="687" y="133"/>
      <point x="700" y="157"/>
      <point x="700" y="170" type="qcurve" smooth="yes"/>
      <point x="700" y="183"/>
      <point x="686" y="207"/>
      <point x="663" y="220"/>
      <point x="650" y="220" type="qcurve" smooth="yes"/>
      <point x="637" y="220"/>
      <point x="613" y="207"/>
      <point x="600" y="183"/>
    </contour>
    <contour>
      <point x="244" y="1631" type="qcurve" smooth="yes"/>
      <point x="244" y="1493"/>
      <point x="309" y="1493" type="qcurve" smooth="yes"/>
      <point x="374" y="1493"/>
      <point x="416" y="1600" type="qcurve"/>
      <point x="425" y="1561"/>
      <point x="425" y="1529" type="qcurve" smooth="yes"/>
      <point x="425" y="1466"/>
      <point x="321" y="1373"/>
      <point x="246" y="1373" type="qcurve" smooth="yes"/>
      <point x="0" y="1373"/>
      <point x="0" y="1631" type="qcurve" smooth="yes"/>
      <point x="0" y="1784"/>
      <point x="196" y="1944"/>
      <point x="401" y="1944" type="qcurve" smooth="yes"/>
      <point x="655" y="1944"/>
      <point x="850" y="1774"/>
      <point x="850" y="1610" type="qcurve" smooth="yes"/>
      <point x="850" y="1458"/>
      <point x="538" y="1172"/>
      <point x="538" y="1081" type="qcurve" smooth="yes"/>
      <point x="538" y="300" type="line" smooth="yes"/>
      <point x="538" y="270"/>
      <point x="550" y="265" type="qcurve"/>
      <point x="570" y="297"/>
      <point x="622" y="320"/>
      <point x="650" y="320" type="qcurve" smooth="yes"/>
      <point x="688" y="320"/>
      <point x="759" y="281"/>
      <point x="800" y="209"/>
      <point x="800" y="170" type="qcurve" smooth="yes"/>
      <point x="800" y="87"/>
      <point x="757" y="45" type="qcurve" smooth="yes"/>
      <point x="712" y="0"/>
      <point x="620" y="0" type="qcurve" smooth="yes"/>
      <point x="416" y="0"/>
      <point x="336" y="70" type="qcurve" smooth="yes"/>
      <point x="250" y="144"/>
      <point x="250" y="300" type="qcurve" smooth="yes"/>
      <point x="250" y="1081" type="line" smooth="yes"/>
      <point x="250" y="1219"/>
      <point x="616" y="1494"/>
      <point x="616" y="1610" type="qcurve" smooth="yes"/>
      <point x="616" y="1712"/>
      <point x="535" y="1817"/>
      <point x="401" y="1817" type="qcurve" smooth="yes"/>
      <point x="321" y="1817"/>
      <point x="244" y="1723"/>
    </contour>
  </outline>
</glyph>
<glyph name="uni0EC6" format="1">
  <advance width="1315"/>
  <unicode hex="0EC6"/>
  <outline>
    <contour>
      <point x="385" y="946" type="qcurve" smooth="yes"/>
      <point x="316" y="946"/>
      <point x="316" y="877" type="qcurve" smooth="yes"/>
      <point x="316" y="808"/>
      <point x="385" y="808" type="qcurve" smooth="yes"/>
      <point x="454" y="808"/>
      <point x="454" y="877" type="qcurve" smooth="yes"/>
      <point x="454" y="946"/>
    </contour>
    <contour>
      <point x="1197" y="-50" type="line" smooth="yes"/>
      <point x="1197" y="-420"/>
      <point x="692" y="-420" type="qcurve" smooth="yes"/>
      <point x="580" y="-420"/>
      <point x="377" y="-393"/>
      <point x="240" y="-276"/>
      <point x="199" y="-119" type="qcurve"/>
      <point x="245" y="-197"/>
      <point x="421" y="-293"/>
      <point x="692" y="-293" type="qcurve" smooth="yes"/>
      <point x="919" y="-293"/>
      <point x="919" y="-50" type="qcurve" smooth="yes"/>
      <point x="919" y="950" type="line"/>
      <point x="913" y="1156"/>
      <point x="872" y="1156" type="qcurve" smooth="yes"/>
      <point x="831" y="1156"/>
      <point x="765" y="1107" type="qcurve" smooth="yes"/>
      <point x="703" y="1061"/>
      <point x="646" y="1061" type="qcurve" smooth="yes"/>
      <point x="642" y="1061"/>
      <point x="638" y="1062" type="qcurve" smooth="yes"/>
      <point x="577" y="1065"/>
      <point x="437" y="1156"/>
      <point x="410" y="1156" type="qcurve" smooth="yes"/>
      <point x="383" y="1156"/>
      <point x="361" y="1114" type="qcurve" smooth="yes"/>
      <point x="341" y="1076"/>
      <point x="341" y="1034" type="qcurve" smooth="yes"/>
      <point x="341" y="1017" type="line"/>
      <point x="382" y="1039"/>
      <point x="405" y="1039" type="qcurve" smooth="yes"/>
      <point x="558" y="1039"/>
      <point x="558" y="898" type="qcurve"/>
      <point x="548" y="718"/>
      <point x="375" y="716" type="qcurve"/>
      <point x="97" y="722"/>
      <point x="97" y="977" type="qcurve" smooth="yes"/>
      <point x="97" y="1145"/>
      <point x="241" y="1300"/>
      <point x="342" y="1300" type="qcurve" smooth="yes"/>
      <point x="437" y="1300"/>
      <point x="517" y="1257"/>
      <point x="563" y="1228" type="qcurve" smooth="yes"/>
      <point x="606" y="1200"/>
      <point x="641" y="1200" type="qcurve" smooth="yes"/>
      <point x="644" y="1200" type="line" smooth="yes"/>
      <point x="679" y="1201"/>
      <point x="773" y="1258"/>
      <point x="836" y="1300"/>
      <point x="943" y="1300" type="qcurve" smooth="yes"/>
      <point x="1197" y="1300"/>
      <point x="1197" y="950" type="qcurve" smooth="yes"/>
    </contour>
  </outline>
</glyph>
<glyph name="uni0EC8" format="1">
  <advance width="0"/>
  <unicode hex="0EC8"/>
  <outline>
    <contour>
      <point x="-769" y="2155" type="line"/>
      <point x="-525" y="2155" type="line"/>
      <point x="-525" y="1850" type="line"/>
      <point x="-769" y="1850" type="line"/>
    </contour>
  </outline>
</glyph>
<glyph name="uni0EC9" format="1">
  <advance width="0"/>
  <unicode hex="0EC9"/>
  <outline>
    <contour>
      <point x="-667" y="2040" type="qcurve"/>
      <point x="-660" y="2053"/>
      <point x="-660" y="2062" type="qcurve" smooth="yes"/>
      <point x="-660" y="2068"/>
      <point x="-663" y="2073" type="qcurve" smooth="yes"/>
      <point x="-675" y="2091"/>
      <point x="-697" y="2091" type="qcurve" smooth="yes"/>
      <point x="-706" y="2091" type="line"/>
      <point x="-725" y="2086"/>
      <point x="-726" y="2065" type="qcurve" smooth="yes"/>
      <point x="-727" y="2064"/>
      <point x="-727" y="2063" type="qcurve" smooth="yes"/>
      <point x="-727" y="2044"/>
      <point x="-711" y="2041" type="qcurve" smooth="yes"/>
      <point x="-697" y="2039"/>
      <point x="-682" y="2039" type="qcurve" smooth="yes"/>
      <point x="-675" y="2039"/>
    </contour>
    <contour>
      <point x="-852" y="2012" type="qcurve" smooth="yes"/>
      <point x="-884" y="2032"/>
      <point x="-884" y="2065" type="qcurve" smooth="yes"/>
      <point x="-884" y="2072" type="line"/>
      <point x="-880" y="2110"/>
      <point x="-836" y="2133" type="qcurve" smooth="yes"/>
      <point x="-800" y="2150"/>
      <point x="-703" y="2150" type="qcurve" smooth="yes"/>
      <point x="-693" y="2150"/>
      <point x="-682" y="2149" type="qcurve" smooth="yes"/>
      <point x="-561" y="2144"/>
      <point x="-539" y="2115" type="qcurve" smooth="yes"/>
      <point x="-519" y="2088"/>
      <point x="-519" y="2049" type="qcurve" smooth="yes"/>
      <point x="-519" y="2042" type="line" smooth="yes"/>
      <point x="-521" y="1998"/>
      <point x="-598" y="1937" type="qcurve"/>
      <point x="-520" y="1945"/>
      <point x="-412" y="2043"/>
      <point x="-371" y="2125" type="qcurve"/>
      <point x="-191" y="2082" type="line"/>
      <point x="-252" y="1994"/>
      <point x="-374" y="1913"/>
      <point x="-556" y="1860"/>
      <point x="-696" y="1860" type="qcurve" smooth="yes"/>
      <point x="-910" y="1860" type="line"/>
      <point x="-910" y="1925" type="line"/>
      <point x="-774" y="1945"/>
      <point x="-720" y="1989" type="qcurve"/>
      <point x="-822" y="1994"/>
    </contour>
  </outline>
</glyph>
<glyph name="uni0ECA" format="1">
  <advance width="0"/>
  <unicode hex="0ECA"/>
  <outline>
    <contour>
      <point x="-763" y="1850" type="qcurve"/>
      <point x="-859" y="1878"/>
      <point x="-943" y="1953"/>
      <point x="-943" y="2000" type="qcurve" smooth="yes"/>
      <point x="-943" y="2035"/>
      <point x="-894" y="2089"/>
      <point x="-841" y="2128"/>
      <point x="-769" y="2150"/>
      <point x="-717" y="2150" type="qcurve" smooth="yes"/>
      <point x="-690" y="2150"/>
      <point x="-632" y="2134"/>
      <point x="-558" y="2086"/>
      <point x="-543" y="2075" type="qcurve"/>
      <point x="-505" y="2096"/>
      <point x="-427" y="2143"/>
      <point x="-368" y="2150" type="qcurve"/>
      <point x="-321" y="2150"/>
      <point x="-238" y="2124"/>
      <point x="-191" y="2086"/>
      <point x="-178" y="2067" type="qcurve" smooth="yes"/>
      <point x="-167" y="2050"/>
      <point x="-167" y="2026" type="qcurve" smooth="yes"/>
      <point x="-167" y="2020" type="line"/>
      <point x="-132" y="2054"/>
      <point x="-112" y="2097"/>
      <point x="-95" y="2140" type="qcurve"/>
      <point x="-54" y="2139"/>
      <point x="-8" y="2119"/>
      <point x="9" y="2099" type="qcurve" smooth="yes"/>
      <point x="10" y="2095"/>
      <point x="10" y="2091" type="qcurve" smooth="yes"/>
      <point x="10" y="2048"/>
      <point x="-18" y="2013" type="qcurve" smooth="yes"/>
      <point x="-49" y="1973"/>
      <point x="-138" y="1919"/>
      <point x="-253" y="1866"/>
      <point x="-318" y="1856" type="qcurve" smooth="yes"/>
      <point x="-324" y="1857"/>
      <point x="-329" y="1858" type="qcurve" smooth="yes"/>
      <point x="-387" y="1913" type="line"/>
      <point x="-352" y="1928"/>
      <point x="-317" y="1975"/>
      <point x="-316" y="1997" type="qcurve"/>
      <point x="-326" y="2021"/>
      <point x="-351" y="2066"/>
      <point x="-373" y="2066" type="qcurve" smooth="yes"/>
      <point x="-376" y="2066" type="line" smooth="yes"/>
      <point x="-407" y="2064"/>
      <point x="-520" y="1959"/>
      <point x="-546" y="1959" type="qcurve" smooth="yes"/>
      <point x="-570" y="1959"/>
      <point x="-683" y="2062"/>
      <point x="-720" y="2063" type="qcurve" smooth="yes"/>
      <point x="-742" y="2063"/>
      <point x="-769" y="2014"/>
      <point x="-769" y="1987" type="qcurve" smooth="yes"/>
      <point x="-769" y="1966"/>
      <point x="-729" y="1925"/>
      <point x="-701" y="1914" type="qcurve"/>
      <point x="-747" y="1854" type="line"/>
      <point x="-755" y="1852"/>
    </contour>
  </outline>
</glyph>
<glyph name="uni0ECB" format="1">
  <advance width="0"/>
  <unicode hex="0ECB"/>
  <outline>
    <contour>
      <point x="-623" y="1840" type="line"/>
      <point x="-623" y="1944" type="line"/>
      <point x="-757" y="1944" type="line"/>
      <point x="-757" y="2041" type="line"/>
      <point x="-623" y="2041" type="line"/>
      <point x="-623" y="2145" type="line"/>
      <point x="-390" y="2145" type="line"/>
      <point x="-390" y="2041" type="line"/>
      <point x="-257" y="2041" type="line"/>
      <point x="-257" y="1944" type="line"/>
      <point x="-390" y="1944" type="line"/>
      <point x="-390" y="1840" type="line"/>
    </contour>
  </outline>
</glyph>
<glyph name="uni0ECC" format="1">
  <advance width="0"/>
  <unicode hex="0ECC"/>
  <outline>
    <contour>
      <point x="-718" y="1913" type="qcurve" smooth="yes"/>
      <point x="-720" y="1926"/>
      <point x="-720" y="1936" type="qcurve" smooth="yes"/>
      <point x="-720" y="1977"/>
      <point x="-697" y="2006" type="qcurve" smooth="yes"/>
      <point x="-669" y="2043"/>
      <point x="-627" y="2056" type="qcurve" smooth="yes"/>
      <point x="-600" y="2064"/>
      <point x="-554" y="2064" type="qcurve" smooth="yes"/>
      <point x="-528" y="2064"/>
      <point x="-497" y="2062" type="qcurve" smooth="yes"/>
      <point x="-480" y="2060"/>
      <point x="-463" y="2060" type="qcurve" smooth="yes"/>
      <point x="-395" y="2060"/>
      <point x="-345" y="2113"/>
      <point x="-315" y="2175" type="qcurve"/>
      <point x="-180" y="2078" type="line"/>
      <point x="-213" y="2020"/>
      <point x="-268" y="1991" type="qcurve" smooth="yes"/>
      <point x="-318" y="1964"/>
      <point x="-336" y="1964" type="qcurve" smooth="yes"/>
      <point x="-351" y="1964" type="line"/>
      <point x="-349" y="1954"/>
      <point x="-349" y="1941" type="qcurve" smooth="yes"/>
      <point x="-349" y="1921"/>
      <point x="-354" y="1894" type="qcurve" smooth="yes"/>
      <point x="-364" y="1850"/>
      <point x="-438" y="1800"/>
      <point x="-555" y="1800" type="qcurve" smooth="yes"/>
      <point x="-622" y="1800"/>
      <point x="-710" y="1858"/>
    </contour>
    <contour>
      <point x="-602" y="1887" type="qcurve" smooth="yes"/>
      <point x="-593" y="1878"/>
      <point x="-581" y="1878" type="qcurve" smooth="yes"/>
      <point x="-574" y="1878" type="line"/>
      <point x="-559" y="1883"/>
      <point x="-550" y="1899" type="qcurve" smooth="yes"/>
      <point x="-544" y="1911"/>
      <point x="-544" y="1925" type="qcurve" smooth="yes"/>
      <point x="-544" y="1930"/>
      <point x="-545" y="1934" type="qcurve" smooth="yes"/>
      <point x="-548" y="1953"/>
      <point x="-560" y="1965" type="qcurve" smooth="yes"/>
      <point x="-569" y="1973"/>
      <point x="-580" y="1973" type="qcurve" smooth="yes"/>
      <point x="-588" y="1973" type="line"/>
      <point x="-602" y="1969"/>
      <point x="-611" y="1953" type="qcurve" smooth="yes"/>
      <point x="-617" y="1940"/>
      <point x="-617" y="1925" type="qcurve" smooth="yes"/>
      <point x="-617" y="1921"/>
      <point x="-616" y="1916" type="qcurve" smooth="yes"/>
      <point x="-614" y="1898"/>
    </contour>
  </outline>
</glyph>
<glyph name="uni0ECD" format="1">
  <advance width="0"/>
  <unicode hex="0ECD"/>
  <outline>
    <contour>
      <point x="-535" y="2009"/>
      <point x="-549" y="1971"/>
      <point x="-549" y="1950" type="qcurve" smooth="yes"/>
      <point x="-549" y="1929"/>
      <point x="-535" y="1891"/>
      <point x="-511" y="1870"/>
      <point x="-499" y="1870" type="qcurve" smooth="yes"/>
      <point x="-486" y="1870"/>
      <point x="-462" y="1891"/>
      <point x="-449" y="1929"/>
      <point x="-449" y="1950" type="qcurve" smooth="yes"/>
      <point x="-449" y="1971"/>
      <point x="-462" y="2009"/>
      <point x="-486" y="2030"/>
      <point x="-499" y="2030" type="qcurve" smooth="yes"/>
      <point x="-511" y="2030"/>
    </contour>
    <contour>
      <point x="-499" y="2150" type="qcurve" smooth="yes"/>
      <point x="-435" y="2150"/>
      <point x="-316" y="2098"/>
      <point x="-249" y="2002"/>
      <point x="-249" y="1950" type="qcurve" smooth="yes"/>
      <point x="-249" y="1898"/>
      <point x="-314" y="1803"/>
      <point x="-434" y="1750"/>
      <point x="-499" y="1750" type="qcurve" smooth="yes"/>
      <point x="-563" y="1750"/>
      <point x="-683" y="1803"/>
      <point x="-749" y="1898"/>
      <point x="-749" y="1950" type="qcurve" smooth="yes"/>
      <point x="-749" y="2002"/>
      <point x="-681" y="2098"/>
      <point x="-561" y="2150"/>
    </contour>
  </outline>
</glyph>
<glyph name="uni0ED0" format="1">
  <advance width="1194"/>
  <unicode hex="0ED0"/>
  <outline>
    <contour>
      <point x="597" y="1200" type="qcurve" smooth="yes"/>
      <point x="486" y="1200"/>
      <point x="385" y="941"/>
      <point x="385" y="651" type="qcurve" smooth="yes"/>
      <point x="385" y="360"/>
      <point x="486" y="110"/>
      <point x="597" y="110" type="qcurve" smooth="yes"/>
      <point x="708" y="110"/>
      <point x="809" y="360"/>
      <point x="809" y="651" type="qcurve" smooth="yes"/>
      <point x="809" y="941"/>
      <point x="708" y="1200"/>
    </contour>
    <contour>
      <point x="597" y="0" type="qcurve" smooth="yes"/>
      <point x="322" y="0"/>
      <point x="97" y="288"/>
      <point x="97" y="651" type="qcurve" smooth="yes"/>
      <point x="97" y="1013"/>
      <point x="322" y="1300"/>
      <point x="597" y="1300" type="qcurve" smooth="yes"/>
      <point x="872" y="1300"/>
      <point x="1097" y="1013"/>
      <point x="1097" y="651" type="qcurve" smooth="yes"/>
      <point x="1097" y="288"/>
      <point x="872" y="0"/>
    </contour>
  </outline>
</glyph>
<glyph name="uni0ED1" format="1">
  <advance width="1294"/>
  <unicode hex="0ED1"/>
  <outline>
    <contour>
      <point x="702" y="701" type="qcurve" smooth="yes"/>
      <point x="702" y="732"/>
      <point x="655" y="777"/>
      <point x="623" y="777" type="qcurve" smooth="yes"/>
      <point x="589" y="777"/>
      <point x="543" y="732"/>
      <point x="543" y="701" type="qcurve" smooth="yes"/>
      <point x="543" y="668"/>
      <point x="589" y="626"/>
      <point x="623" y="626" type="qcurve" smooth="yes"/>
      <point x="655" y="626"/>
      <point x="702" y="668"/>
    </contour>
    <contour>
      <point x="496" y="0" type="qcurve"/>
      <point x="334" y="60" type="line"/>
      <point x="722" y="141"/>
      <point x="919" y="470"/>
      <point x="919" y="710" type="qcurve" smooth="yes"/>
      <point x="919" y="912"/>
      <point x="784" y="1200"/>
      <point x="614" y="1200" type="qcurve" smooth="yes"/>
      <point x="477" y="1200"/>
      <point x="385" y="988"/>
      <point x="385" y="815" type="qcurve" smooth="yes"/>
      <point x="385" y="683"/>
      <point x="424" y="596"/>
      <point x="480" y="588" type="qcurve"/>
      <point x="429" y="621"/>
      <point x="408" y="701"/>
      <point x="408" y="718" type="qcurve" smooth="yes"/>
      <point x="416" y="781"/>
      <point x="473" y="854"/>
      <point x="546" y="891"/>
      <point x="610" y="901"/>
      <point x="634" y="901" type="qcurve" smooth="yes"/>
      <point x="678" y="901"/>
      <point x="768" y="854"/>
      <point x="832" y="757"/>
      <point x="832" y="695" type="qcurve" smooth="yes"/>
      <point x="832" y="621"/>
      <point x="763" y="526"/>
      <point x="682" y="471"/>
      <point x="615" y="451"/>
      <point x="555" y="446" type="qcurve" smooth="yes"/>
      <point x="546" y="445"/>
      <point x="536" y="445" type="qcurve" smooth="yes"/>
      <point x="431" y="445"/>
      <point x="355" y="468" type="qcurve" smooth="yes"/>
      <point x="265" y="495"/>
      <point x="148" y="598"/>
      <point x="97" y="734"/>
      <point x="97" y="807" type="qcurve" smooth="yes"/>
      <point x="97" y="1036"/>
      <point x="343" y="1300"/>
      <point x="614" y="1300" type="qcurve" smooth="yes"/>
      <point x="918" y="1300"/>
      <point x="1197" y="987"/>
      <point x="1197" y="710" type="qcurve" smooth="yes"/>
      <point x="1197" y="386"/>
      <point x="873" y="25"/>
    </contour>
  </outline>
</glyph>
<glyph name="uni0ED2" format="1">
  <advance width="1239"/>
  <unicode hex="0ED2"/>
  <outline>
    <contour>
      <point x="385" y="895"/>
      <point x="385" y="691" type="qcurve" smooth="yes"/>
      <point x="385" y="455"/>
      <point x="415" y="319"/>
      <point x="474" y="179"/>
      <point x="605" y="110"/>
      <point x="691" y="110" type="qcurve" smooth="yes"/>
      <point x="761" y="110"/>
      <point x="814" y="158" type="qcurve"/>
      <point x="768" y="203"/>
      <point x="739" y="244"/>
      <point x="720" y="287"/>
      <point x="720" y="305" type="qcurve" smooth="yes"/>
      <point x="720" y="365"/>
      <point x="766" y="438"/>
      <point x="836" y="479"/>
      <point x="876" y="486" type="qcurve" smooth="yes"/>
      <point x="906" y="490"/>
      <point x="933" y="490" type="qcurve" smooth="yes"/>
      <point x="949" y="490" type="line" smooth="yes"/>
      <point x="1045" y="488"/>
      <point x="1117" y="453"/>
      <point x="1167" y="399"/>
      <point x="1196" y="332"/>
      <point x="1196" y="299" type="qcurve" smooth="yes"/>
      <point x="1196" y="260"/>
      <point x="1190" y="211"/>
      <point x="1153" y="134"/>
      <point x="993" y="23"/>
      <point x="886" y="0"/>
      <point x="691" y="0" type="qcurve" smooth="yes"/>
      <point x="387" y="0"/>
      <point x="97" y="275"/>
      <point x="97" y="691" type="qcurve" smooth="yes"/>
      <point x="97" y="789"/>
      <point x="148" y="932"/>
      <point x="327" y="1087"/>
      <point x="882" y="1374"/>
      <point x="1038" y="1498"/>
      <point x="1197" y="1639" type="qcurve"/>
      <point x="1057" y="1307"/>
    </contour>
    <contour>
      <point x="982" y="369"/>
      <point x="959" y="369" type="qcurve" smooth="yes"/>
      <point x="935" y="369"/>
      <point x="903" y="326"/>
      <point x="903" y="295" type="qcurve" smooth="yes"/>
      <point x="903" y="266"/>
      <point x="935" y="223"/>
      <point x="959" y="223" type="qcurve" smooth="yes"/>
      <point x="982" y="223"/>
      <point x="1016" y="266"/>
      <point x="1016" y="295" type="qcurve" smooth="yes"/>
      <point x="1016" y="326"/>
    </contour>
  </outline>
</glyph>
<glyph name="uni0ED3" format="1">
  <advance width="1571"/>
  <unicode hex="0ED3"/>
  <outline>
    <contour>
      <point x="243" y="158" type="qcurve" smooth="yes"/>
      <point x="305" y="158"/>
      <point x="305" y="220" type="qcurve" smooth="yes"/>
      <point x="305" y="281"/>
      <point x="243" y="281" type="qcurve" smooth="yes"/>
      <point x="182" y="281"/>
      <point x="182" y="220" type="qcurve" smooth="yes"/>
      <point x="182" y="158"/>
    </contour>
    <contour>
      <point x="703" y="380" type="line" smooth="yes"/>
      <point x="703" y="207"/>
      <point x="829" y="110"/>
      <point x="939" y="110" type="qcurve" smooth="yes"/>
      <point x="1079" y="110"/>
      <point x="1165" y="257"/>
      <point x="1165" y="380" type="qcurve" smooth="yes"/>
      <point x="1165" y="1100" type="line" smooth="yes"/>
      <point x="1165" y="1225"/>
      <point x="1008" y="1315" type="qcurve" smooth="yes"/>
      <point x="750" y="1456" type="line" smooth="yes"/>
      <point x="672" y="1499"/>
      <point x="644" y="1592" type="qcurve" smooth="yes"/>
      <point x="642" y="1599" type="line" smooth="yes"/>
      <point x="636" y="1624"/>
      <point x="636" y="1648" type="qcurve" smooth="yes"/>
      <point x="636" y="1690"/>
      <point x="655" y="1729" type="qcurve"/>
      <point x="701" y="1803"/>
      <point x="770" y="1824" type="qcurve" smooth="yes"/>
      <point x="780" y="1827"/>
      <point x="791" y="1829" type="qcurve" smooth="yes"/>
      <point x="822" y="1836"/>
      <point x="850" y="1836" type="qcurve" smooth="yes"/>
      <point x="902" y="1836"/>
      <point x="946" y="1812" type="qcurve" smooth="yes"/>
      <point x="1070" y="1746" type="line"/>
      <point x="1231" y="1655"/>
      <point x="1311" y="1655" type="qcurve" smooth="yes"/>
      <point x="1325" y="1655"/>
      <point x="1336" y="1658" type="qcurve" smooth="yes"/>
      <point x="1346" y="1660"/>
      <point x="1423" y="1679" type="qcurve"/>
      <point x="1369" y="1556"/>
      <point x="1280" y="1535" type="qcurve" smooth="yes"/>
      <point x="1265" y="1532"/>
      <point x="1248" y="1532" type="qcurve" smooth="yes"/>
      <point x="1159" y="1532"/>
      <point x="1002" y="1620" type="qcurve" smooth="yes"/>
      <point x="959" y="1645" type="line" smooth="yes"/>
      <point x="929" y="1662"/>
      <point x="905" y="1662" type="qcurve" smooth="yes"/>
      <point x="899" y="1662"/>
      <point x="893" y="1661" type="qcurve" smooth="yes"/>
      <point x="865" y="1654"/>
      <point x="848" y="1619" type="qcurve" smooth="yes"/>
      <point x="844" y="1609"/>
      <point x="844" y="1599" type="qcurve" smooth="yes"/>
      <point x="844" y="1593" type="line"/>
      <point x="850" y="1567"/>
      <point x="896" y="1543" type="qcurve" smooth="yes"/>
      <point x="1136" y="1425" type="line" smooth="yes"/>
      <point x="1300" y="1346"/>
      <point x="1453" y="1195"/>
      <point x="1453" y="1100" type="qcurve" smooth="yes"/>
      <point x="1453" y="380" type="line" smooth="yes"/>
      <point x="1453" y="190"/>
      <point x="1223" y="0"/>
      <point x="944" y="0" type="qcurve" smooth="yes"/>
      <point x="715" y="0"/>
      <point x="590" y="95" type="qcurve"/>
      <point x="589" y="96" type="line"/>
      <point x="511" y="0"/>
      <point x="340" y="0" type="qcurve" smooth="yes"/>
      <point x="82" y="0"/>
      <point x="82" y="220" type="qcurve" smooth="yes"/>
      <point x="82" y="382"/>
      <point x="243" y="382" type="qcurve" smooth="yes"/>
      <point x="405" y="382"/>
      <point x="405" y="220" type="qcurve"/>
      <point x="415" y="258"/>
      <point x="415" y="352" type="qcurve" smooth="yes"/>
      <point x="415" y="1100" type="line" smooth="yes"/>
      <point x="415" y="1225"/>
      <point x="365" y="1300" type="qcurve"/>
      <point x="653" y="1300" type="line"/>
      <point x="703" y="1195"/>
      <point x="703" y="1100" type="qcurve" smooth="yes"/>
    </contour>
  </outline>
</glyph>
<glyph name="uni0ED4" format="1">
  <advance width="1304"/>
  <unicode hex="0ED4"/>
  <outline>
    <contour>
      <point x="1038" y="623" type="qcurve" smooth="yes"/>
      <point x="985" y="623"/>
      <point x="985" y="568" type="qcurve" smooth="yes"/>
      <point x="985" y="503"/>
      <point x="1038" y="503" type="qcurve" smooth="yes"/>
      <point x="1100" y="503"/>
      <point x="1100" y="568" type="qcurve" smooth="yes"/>
      <point x="1100" y="623"/>
    </contour>
    <contour>
      <point x="1031" y="97" type="qcurve" smooth="yes"/>
      <point x="1087" y="97"/>
      <point x="1087" y="142" type="qcurve" smooth="yes"/>
      <point x="1087" y="187"/>
      <point x="1023" y="187" type="qcurve" smooth="yes"/>
      <point x="1020" y="187" type="line" smooth="yes"/>
      <point x="997" y="187"/>
      <point x="985" y="185" type="qcurve"/>
      <point x="985" y="181" type="line" smooth="yes"/>
      <point x="985" y="97"/>
    </contour>
    <contour>
      <point x="1011" y="1605" type="qcurve"/>
      <point x="1038" y="1521"/>
      <point x="1038" y="1463" type="qcurve" smooth="yes"/>
      <point x="1038" y="1415"/>
      <point x="1019" y="1386" type="qcurve" smooth="yes"/>
      <point x="978" y="1322"/>
      <point x="940" y="1305" type="qcurve" smooth="yes"/>
      <point x="418" y="1022"/>
      <point x="385" y="832"/>
      <point x="385" y="650" type="qcurve" smooth="yes"/>
      <point x="385" y="385"/>
      <point x="415" y="110"/>
      <point x="467" y="110" type="qcurve" smooth="yes"/>
      <point x="533" y="110"/>
      <point x="697" y="289" type="qcurve"/>
      <point x="697" y="568" type="line" smooth="yes"/>
      <point x="697" y="743"/>
      <point x="1019" y="743" type="qcurve" smooth="yes"/>
      <point x="1207" y="743"/>
      <point x="1207" y="568" type="qcurve" smooth="yes"/>
      <point x="1207" y="393"/>
      <point x="1019" y="393" type="qcurve" smooth="yes"/>
      <point x="997" y="393"/>
      <point x="985" y="396" type="qcurve"/>
      <point x="985" y="291" type="line"/>
      <point x="998" y="293"/>
      <point x="1020" y="293" type="qcurve" smooth="yes"/>
      <point x="1183" y="293"/>
      <point x="1183" y="146" type="qcurve" smooth="yes"/>
      <point x="1183" y="0"/>
      <point x="1031" y="0" type="qcurve" smooth="yes"/>
      <point x="790" y="0"/>
      <point x="697" y="125" type="qcurve"/>
      <point x="632" y="67"/>
      <point x="533" y="0"/>
      <point x="464" y="0" type="qcurve" smooth="yes"/>
      <point x="228" y="0"/>
      <point x="97" y="279"/>
      <point x="97" y="650" type="qcurve" smooth="yes"/>
      <point x="97" y="832"/>
      <point x="116" y="911" type="qcurve" smooth="yes"/>
      <point x="136" y="994"/>
      <point x="234" y="1162"/>
      <point x="854" y="1426" type="qcurve" smooth="yes"/>
      <point x="880" y="1439"/>
      <point x="922" y="1477"/>
      <point x="955" y="1520"/>
      <point x="978" y="1559"/>
      <point x="984" y="1570" type="qcurve" smooth="yes"/>
      <point x="997" y="1592"/>
    </contour>
  </outline>
</glyph>
<glyph name="uni0ED5" format="1">
  <advance width="1310"/>
  <unicode hex="0ED5"/>
  <outline>
    <contour>
      <point x="779" y="1424" type="qcurve" smooth="yes"/>
      <point x="779" y="1455"/>
      <point x="735" y="1496"/>
      <point x="701" y="1496" type="qcurve" smooth="yes"/>
      <point x="670" y="1496"/>
      <point x="624" y="1455"/>
      <point x="624" y="1424" type="qcurve"/>
      <point x="636" y="1357"/>
      <point x="730" y="1356" type="qcurve"/>
      <point x="779" y="1383"/>
    </contour>
    <contour>
      <point x="1038" y="623" type="qcurve" smooth="yes"/>
      <point x="985" y="623"/>
      <point x="985" y="568" type="qcurve" smooth="yes"/>
      <point x="985" y="503"/>
      <point x="1038" y="503" type="qcurve" smooth="yes"/>
      <point x="1100" y="503"/>
      <point x="1100" y="568" type="qcurve" smooth="yes"/>
      <point x="1100" y="623"/>
    </contour>
    <contour>
      <point x="1031" y="97" type="qcurve" smooth="yes"/>
      <point x="1087" y="97"/>
      <point x="1087" y="142" type="qcurve" smooth="yes"/>
      <point x="1087" y="187"/>
      <point x="1023" y="187" type="qcurve" smooth="yes"/>
      <point x="1020" y="187" type="line" smooth="yes"/>
      <point x="997" y="187"/>
      <point x="985" y="185" type="qcurve"/>
      <point x="985" y="181" type="line" smooth="yes"/>
      <point x="985" y="97"/>
    </contour>
    <contour>
      <point x="1163" y="1703" type="qcurve"/>
      <point x="1163" y="1524"/>
      <point x="1079" y="1349"/>
      <point x="933" y="1244"/>
      <point x="779" y="1244" type="qcurve"/>
      <point x="766" y="1203"/>
      <point x="463" y="1067"/>
      <point x="385" y="832"/>
      <point x="385" y="650" type="qcurve" smooth="yes"/>
      <point x="385" y="385"/>
      <point x="400" y="265" type="qcurve" smooth="yes"/>
      <point x="415" y="144"/>
      <point x="467" y="144" type="qcurve" smooth="yes"/>
      <point x="533" y="144"/>
      <point x="697" y="289" type="qcurve"/>
      <point x="697" y="568" type="line" smooth="yes"/>
      <point x="697" y="743"/>
      <point x="1019" y="743" type="qcurve" smooth="yes"/>
      <point x="1207" y="743"/>
      <point x="1207" y="568" type="qcurve" smooth="yes"/>
      <point x="1207" y="393"/>
      <point x="1019" y="393" type="qcurve" smooth="yes"/>
      <point x="997" y="393"/>
      <point x="985" y="396" type="qcurve"/>
      <point x="985" y="291" type="line"/>
      <point x="998" y="293"/>
      <point x="1020" y="293" type="qcurve" smooth="yes"/>
      <point x="1183" y="293"/>
      <point x="1183" y="146" type="qcurve" smooth="yes"/>
      <point x="1183" y="0"/>
      <point x="1031" y="0" type="qcurve" smooth="yes"/>
      <point x="790" y="0"/>
      <point x="697" y="125" type="qcurve"/>
      <point x="632" y="67"/>
      <point x="533" y="0"/>
      <point x="464" y="0" type="qcurve" smooth="yes"/>
      <point x="228" y="0"/>
      <point x="97" y="279"/>
      <point x="97" y="650" type="qcurve" smooth="yes"/>
      <point x="97" y="832"/>
      <point x="116" y="911" type="qcurve" smooth="yes"/>
      <point x="136" y="994"/>
      <point x="343" y="1194"/>
      <point x="605" y="1277" type="qcurve"/>
      <point x="563" y="1289"/>
      <point x="515" y="1340"/>
      <point x="488" y="1395"/>
      <point x="486" y="1422" type="qcurve" smooth="yes"/>
      <point x="484" y="1434"/>
      <point x="484" y="1444" type="qcurve" smooth="yes"/>
      <point x="484" y="1455"/>
      <point x="486" y="1463" type="qcurve" smooth="yes"/>
      <point x="493" y="1506"/>
      <point x="537" y="1565"/>
      <point x="596" y="1600"/>
      <point x="666" y="1617"/>
      <point x="699" y="1617" type="qcurve" smooth="yes"/>
      <point x="774" y="1617"/>
      <point x="860" y="1561"/>
      <point x="899" y="1490"/>
      <point x="904" y="1459" type="qcurve"/>
      <point x="904" y="1449" type="line" smooth="yes"/>
      <point x="904" y="1419"/>
      <point x="883" y="1368" type="qcurve"/>
      <point x="936" y="1384"/>
      <point x="1100" y="1545"/>
    </contour>
  </outline>
</glyph>
<glyph name="uni0ED6" format="1">
  <advance width="1383"/>
  <unicode hex="0ED6"/>
  <outline>
    <contour>
      <point x="690" y="417" type="qcurve"/>
      <point x="719" y="469"/>
      <point x="719" y="510" type="qcurve" smooth="yes"/>
      <point x="719" y="557"/>
      <point x="708" y="615"/>
      <point x="690" y="615" type="qcurve" smooth="yes"/>
      <point x="672" y="615"/>
      <point x="661" y="557"/>
      <point x="661" y="510" type="qcurve" smooth="yes"/>
      <point x="661" y="469"/>
    </contour>
    <contour>
      <point x="537" y="1014" type="qcurve" smooth="yes"/>
      <point x="499" y="977"/>
      <point x="461" y="977" type="qcurve" smooth="yes"/>
      <point x="423" y="977"/>
      <point x="406" y="993" type="qcurve"/>
      <point x="406" y="363" type="line" smooth="yes"/>
      <point x="406" y="110"/>
      <point x="435" y="110" type="qcurve" smooth="yes"/>
      <point x="476" y="110"/>
      <point x="596" y="252"/>
      <point x="633" y="324" type="qcurve"/>
      <point x="604" y="370"/>
      <point x="571" y="455"/>
      <point x="565" y="530" type="qcurve"/>
      <point x="565" y="549" type="line" smooth="yes"/>
      <point x="565" y="625"/>
      <point x="600" y="669" type="qcurve" smooth="yes"/>
      <point x="634" y="712"/>
      <point x="690" y="712" type="qcurve" smooth="yes"/>
      <point x="746" y="712"/>
      <point x="780" y="669" type="qcurve" smooth="yes"/>
      <point x="815" y="625"/>
      <point x="815" y="549" type="qcurve" smooth="yes"/>
      <point x="815" y="530" type="line"/>
      <point x="809" y="455"/>
      <point x="776" y="370"/>
      <point x="747" y="324" type="qcurve"/>
      <point x="784" y="252"/>
      <point x="904" y="110"/>
      <point x="945" y="110" type="qcurve" smooth="yes"/>
      <point x="974" y="110"/>
      <point x="974" y="363" type="qcurve" smooth="yes"/>
      <point x="974" y="1081" type="line" smooth="yes"/>
      <point x="974" y="1141"/>
      <point x="752" y="1362"/>
      <point x="699" y="1431"/>
      <point x="687" y="1474"/>
      <point x="687" y="1498" type="qcurve" smooth="yes"/>
      <point x="687" y="1550"/>
      <point x="762" y="1631"/>
      <point x="824" y="1631" type="qcurve" smooth="yes"/>
      <point x="891" y="1631"/>
      <point x="1000" y="1562"/>
      <point x="1202" y="1459"/>
      <point x="1250" y="1300" type="qcurve"/>
      <point x="921" y="1476" type="line" smooth="yes"/>
      <point x="875" y="1502"/>
      <point x="852" y="1502" type="qcurve" smooth="yes"/>
      <point x="836" y="1502"/>
      <point x="818" y="1482"/>
      <point x="818" y="1472" type="qcurve" smooth="yes"/>
      <point x="818" y="1455"/>
      <point x="846" y="1420"/>
      <point x="867" y="1406" type="qcurve" smooth="yes"/>
      <point x="1170" y="1223" type="line" smooth="yes"/>
      <point x="1232" y="1184"/>
      <point x="1262" y="1077" type="qcurve"/>
      <point x="1262" y="363" type="line" smooth="yes"/>
      <point x="1262" y="16"/>
      <point x="936" y="0" type="qcurve" smooth="yes"/>
      <point x="883" y="0"/>
      <point x="760" y="90"/>
      <point x="733" y="126" type="qcurve" smooth="yes"/>
      <point x="714" y="151"/>
      <point x="700" y="177" type="qcurve" smooth="yes"/>
      <point x="690" y="194" type="line"/>
      <point x="680" y="177" type="line" smooth="yes"/>
      <point x="666" y="151"/>
      <point x="647" y="126" type="qcurve" smooth="yes"/>
      <point x="620" y="90"/>
      <point x="497" y="0"/>
      <point x="444" y="0" type="qcurve" smooth="yes"/>
      <point x="118" y="16"/>
      <point x="118" y="363" type="qcurve" smooth="yes"/>
      <point x="118" y="999" type="line" smooth="yes"/>
      <point x="118" y="1176"/>
      <point x="204" y="1249" type="qcurve" smooth="yes"/>
      <point x="261" y="1298"/>
      <point x="406" y="1300" type="qcurve" smooth="yes"/>
      <point x="492" y="1299"/>
      <point x="535" y="1259" type="qcurve" smooth="yes"/>
      <point x="579" y="1219"/>
      <point x="579" y="1139" type="qcurve" smooth="yes"/>
      <point x="579" y="1054"/>
    </contour>
    <contour>
      <point x="360" y="1194" type="qcurve" smooth="yes"/>
      <point x="339" y="1177"/>
      <point x="339" y="1139" type="qcurve" smooth="yes"/>
      <point x="339" y="1072"/>
      <point x="406" y="1072" type="qcurve" smooth="yes"/>
      <point x="438" y="1072"/>
      <point x="455" y="1087" type="qcurve" smooth="yes"/>
      <point x="474" y="1103"/>
      <point x="474" y="1139" type="qcurve" smooth="yes"/>
      <point x="474" y="1174"/>
      <point x="456" y="1191" type="qcurve" smooth="yes"/>
      <point x="439" y="1207"/>
      <point x="406" y="1207" type="qcurve" smooth="yes"/>
      <point x="377" y="1207"/>
    </contour>
  </outline>
</glyph>
<glyph name="uni0ED8" format="1">
  <advance width="1394"/>
  <unicode hex="0ED8"/>
  <outline>
    <contour>
      <point x="922" y="-261" type="qcurve" smooth="yes"/>
      <point x="922" y="-277"/>
      <point x="939" y="-307"/>
      <point x="970" y="-323"/>
      <point x="987" y="-323" type="qcurve" smooth="yes"/>
      <point x="1003" y="-323"/>
      <point x="1033" y="-307"/>
      <point x="1050" y="-277"/>
      <point x="1050" y="-261" type="qcurve" smooth="yes"/>
      <point x="1050" y="-246"/>
      <point x="1033" y="-215"/>
      <point x="1003" y="-200"/>
      <point x="987" y="-200" type="qcurve" smooth="yes"/>
      <point x="970" y="-200"/>
      <point x="939" y="-215"/>
      <point x="922" y="-246"/>
    </contour>
    <contour>
      <point x="980" y="0" type="qcurve" smooth="yes"/>
      <point x="980" y="35" type="line"/>
      <point x="382" y="-137"/>
      <point x="382" y="-200" type="qcurve" smooth="yes"/>
      <point x="382" y="-236"/>
      <point x="405" y="-268"/>
      <point x="445" y="-268" type="qcurve" smooth="yes"/>
      <point x="529" y="-268"/>
      <point x="639" y="-205" type="qcurve" smooth="yes"/>
      <point x="761" y="-139"/>
      <point x="864" y="-119" type="qcurve"/>
      <point x="980" y="-22"/>
    </contour>
    <contour>
      <point x="531" y="241" type="qcurve" smooth="yes"/>
      <point x="553" y="260"/>
      <point x="553" y="301" type="qcurve" smooth="yes"/>
      <point x="553" y="337"/>
      <point x="536" y="356" type="qcurve" smooth="yes"/>
      <point x="517" y="377"/>
      <point x="478" y="377" type="qcurve" smooth="yes"/>
      <point x="402" y="377"/>
      <point x="402" y="301" type="qcurve" smooth="yes"/>
      <point x="402" y="256"/>
      <point x="429" y="238" type="qcurve" smooth="yes"/>
      <point x="447" y="226"/>
      <point x="478" y="226" type="qcurve" smooth="yes"/>
      <point x="512" y="226"/>
    </contour>
    <contour>
      <point x="406" y="462" type="line"/>
      <point x="452" y="492"/>
      <point x="498" y="492" type="qcurve" smooth="yes"/>
      <point x="573" y="492"/>
      <point x="621" y="444" type="qcurve" smooth="yes"/>
      <point x="668" y="396"/>
      <point x="668" y="300" type="qcurve" smooth="yes"/>
      <point x="668" y="205"/>
      <point x="620" y="157" type="qcurve" smooth="yes"/>
      <point x="573" y="110"/>
      <point x="478" y="110" type="qcurve" smooth="yes"/>
      <point x="298" y="110"/>
      <point x="223" y="162" type="qcurve" smooth="yes"/>
      <point x="118" y="233"/>
      <point x="118" y="405" type="qcurve" smooth="yes"/>
      <point x="118" y="920" type="line" smooth="yes"/>
      <point x="118" y="1135"/>
      <point x="213" y="1228" type="qcurve" smooth="yes"/>
      <point x="285" y="1300"/>
      <point x="434" y="1300" type="qcurve" smooth="yes"/>
      <point x="597" y="1300"/>
      <point x="693" y="1127" type="qcurve"/>
      <point x="789" y="1300"/>
      <point x="952" y="1300" type="qcurve" smooth="yes"/>
      <point x="1102" y="1300"/>
      <point x="1176" y="1226" type="qcurve" smooth="yes"/>
      <point x="1268" y="1132"/>
      <point x="1268" y="920" type="qcurve" smooth="yes"/>
      <point x="1268" y="30" type="line"/>
      <point x="1184" y="-64"/>
      <point x="1119" y="-107" type="qcurve" smooth="yes"/>
      <point x="1087" y="-127" type="line"/>
      <point x="1100" y="-132"/>
      <point x="1216" y="-155"/>
      <point x="1276" y="-228"/>
      <point x="1276" y="-268" type="qcurve" smooth="yes"/>
      <point x="1276" y="-307"/>
      <point x="1218" y="-379"/>
      <point x="1113" y="-420"/>
      <point x="1005" y="-420" type="qcurve" smooth="yes"/>
      <point x="948" y="-420"/>
      <point x="844" y="-379"/>
      <point x="785" y="-307"/>
      <point x="785" y="-268" type="qcurve" smooth="yes"/>
      <point x="785" y="-259" type="line"/>
      <point x="754" y="-272"/>
      <point x="724" y="-291" type="qcurve" smooth="yes"/>
      <point x="580" y="-379"/>
      <point x="447" y="-379" type="qcurve" smooth="yes"/>
      <point x="257" y="-379"/>
      <point x="130" y="-274"/>
      <point x="130" y="-200" type="qcurve" smooth="yes"/>
      <point x="130" y="-60"/>
      <point x="512" y="34" type="qcurve" smooth="yes"/>
      <point x="980" y="149" type="line"/>
      <point x="980" y="920" type="line" smooth="yes"/>
      <point x="980" y="1066"/>
      <point x="960" y="1166"/>
      <point x="922" y="1166" type="qcurve" smooth="yes"/>
      <point x="852" y="1166"/>
      <point x="693" y="973" type="qcurve"/>
      <point x="534" y="1166"/>
      <point x="464" y="1166" type="qcurve" smooth="yes"/>
      <point x="426" y="1166"/>
      <point x="406" y="1066"/>
      <point x="406" y="920" type="qcurve" smooth="yes"/>
    </contour>
  </outline>
</glyph>
<glyph name="uni0ED9" format="1">
  <advance width="1496"/>
  <unicode hex="0ED9"/>
  <outline>
    <contour>
      <point x="472" y="193" type="qcurve"/>
      <point x="470" y="243"/>
      <point x="418" y="247" type="qcurve"/>
      <point x="352" y="243"/>
      <point x="346" y="189" type="qcurve"/>
      <point x="352" y="123"/>
      <point x="418" y="117" type="qcurve"/>
      <point x="468" y="123"/>
    </contour>
    <contour>
      <point x="1378" y="343" type="line" smooth="yes"/>
      <point x="1378" y="0"/>
      <point x="1008" y="0" type="qcurve" smooth="yes"/>
      <point x="638" y="0"/>
      <point x="638" y="343" type="qcurve" smooth="yes"/>
      <point x="638" y="934" type="line" smooth="yes"/>
      <point x="638" y="1190"/>
      <point x="522" y="1190" type="qcurve" smooth="yes"/>
      <point x="406" y="1190"/>
      <point x="406" y="934" type="qcurve" smooth="yes"/>
      <point x="406" y="365" type="line"/>
      <point x="449" y="364"/>
      <point x="519" y="335"/>
      <point x="568" y="273"/>
      <point x="577" y="238" type="qcurve" smooth="yes"/>
      <point x="583" y="211"/>
      <point x="583" y="177" type="qcurve" smooth="yes"/>
      <point x="583" y="164"/>
      <point x="582" y="151" type="qcurve" smooth="yes"/>
      <point x="576" y="100"/>
      <point x="535" y="42"/>
      <point x="478" y="12"/>
      <point x="426" y="2"/>
      <point x="389" y="2" type="qcurve" smooth="yes"/>
      <point x="222" y="8"/>
      <point x="118" y="229"/>
      <point x="118" y="326" type="qcurve" smooth="yes"/>
      <point x="118" y="934" type="line" smooth="yes"/>
      <point x="118" y="1300"/>
      <point x="522" y="1300" type="qcurve" smooth="yes"/>
      <point x="926" y="1300"/>
      <point x="926" y="934" type="qcurve" smooth="yes"/>
      <point x="926" y="343" type="line" smooth="yes"/>
      <point x="926" y="110"/>
      <point x="1008" y="110" type="qcurve" smooth="yes"/>
      <point x="1090" y="110"/>
      <point x="1090" y="343" type="qcurve" smooth="yes"/>
      <point x="1090" y="1100" type="line" smooth="yes"/>
      <point x="1090" y="1225"/>
      <point x="1040" y="1300" type="qcurve"/>
      <point x="1328" y="1300" type="line"/>
      <point x="1378" y="1195"/>
      <point x="1378" y="1100" type="qcurve" smooth="yes"/>
    </contour>
  </outline>
</glyph>
<glyph name="uni0EDD" format="1">
  <advance width="2256"/>
  <unicode hex="0EDD"/>
  <outline>
    <contour>
      <point x="267" y="1055" type="qcurve" smooth="yes"/>
      <point x="331" y="1055"/>
      <point x="331" y="1118" type="qcurve" smooth="yes"/>
      <point x="331" y="1182"/>
      <point x="267" y="1182" type="qcurve" smooth="yes"/>
      <point x="203" y="1182"/>
      <point x="203" y="1118" type="qcurve" smooth="yes"/>
      <point x="203" y="1055"/>
    </contour>
    <contour>
      <point x="1058" y="374" type="line" smooth="yes"/>
      <point x="1058" y="164"/>
      <point x="959" y="79" type="qcurve" smooth="yes"/>
      <point x="868" y="0"/>
      <point x="568" y="0" type="qcurve" smooth="yes"/>
      <point x="288" y="0"/>
      <point x="197" y="78" type="qcurve" smooth="yes"/>
      <point x="97" y="164"/>
      <point x="97" y="374" type="qcurve" smooth="yes"/>
      <point x="97" y="692"/>
      <point x="213" y="847" type="qcurve" smooth="yes"/>
      <point x="253" y="899"/>
      <point x="280" y="946" type="qcurve"/>
      <point x="189" y="947"/>
      <point x="97" y="1033"/>
      <point x="97" y="1118" type="qcurve" smooth="yes"/>
      <point x="97" y="1209"/>
      <point x="190" y="1300"/>
      <point x="282" y="1300" type="qcurve" smooth="yes"/>
      <point x="416" y="1300"/>
      <point x="519" y="1209"/>
      <point x="519" y="1118" type="qcurve" smooth="yes"/>
      <point x="519" y="992"/>
      <point x="385" y="648"/>
      <point x="385" y="374" type="qcurve" smooth="yes"/>
      <point x="385" y="206"/>
      <point x="480" y="110"/>
      <point x="569" y="110" type="qcurve" smooth="yes"/>
      <point x="677" y="110"/>
      <point x="770" y="208"/>
      <point x="770" y="374" type="qcurve" smooth="yes"/>
      <point x="770" y="930" type="line"/>
      <point x="739" y="930"/>
      <point x="682" y="983" type="qcurve" smooth="yes"/>
      <point x="632" y="1029"/>
      <point x="632" y="1115" type="qcurve" smooth="yes"/>
      <point x="632" y="1209"/>
      <point x="681" y="1255" type="qcurve" smooth="yes"/>
      <point x="729" y="1300"/>
      <point x="793" y="1300" type="qcurve" smooth="yes"/>
      <point x="1005" y="1300"/>
      <point x="1047" y="1159" type="qcurve"/>
      <point x="1108" y="1300"/>
      <point x="1306" y="1300" type="qcurve" smooth="yes"/>
      <point x="1453" y="1300"/>
      <point x="1598" y="1134"/>
      <point x="1598" y="1010" type="qcurve" smooth="yes"/>
      <point x="1598" y="315" type="line"/>
      <point x="1698" y="130"/>
      <point x="1766" y="130" type="qcurve" smooth="yes"/>
      <point x="1838" y="130"/>
      <point x="1850" y="201"/>
      <point x="1850" y="290" type="qcurve" smooth="yes"/>
      <point x="1850" y="1100" type="line" smooth="yes"/>
      <point x="1850" y="1225"/>
      <point x="1800" y="1300" type="qcurve"/>
      <point x="2088" y="1300" type="line"/>
      <point x="2138" y="1195"/>
      <point x="2138" y="1100" type="qcurve" smooth="yes"/>
      <point x="2138" y="290" type="line" smooth="yes"/>
      <point x="2138" y="166"/>
      <point x="2013" y="0"/>
      <point x="1846" y="0" type="qcurve" smooth="yes"/>
      <point x="1668" y="0"/>
      <point x="1587" y="141" type="qcurve"/>
      <point x="1545" y="0"/>
      <point x="1333" y="0" type="qcurve" smooth="yes"/>
      <point x="1269" y="0"/>
      <point x="1221" y="45" type="qcurve" smooth="yes"/>
      <point x="1172" y="91"/>
      <point x="1172" y="185" type="qcurve" smooth="yes"/>
      <point x="1172" y="271"/>
      <point x="1222" y="317" type="qcurve" smooth="yes"/>
      <point x="1279" y="370"/>
      <point x="1310" y="370" type="qcurve"/>
      <point x="1310" y="1010" type="line" smooth="yes"/>
      <point x="1310" y="1099"/>
      <point x="1278" y="1170"/>
      <point x="1226" y="1170" type="qcurve" smooth="yes"/>
      <point x="1138" y="1170"/>
      <point x="1058" y="985" type="qcurve"/>
    </contour>
  </outline>
</glyph>
<glyph name="uni0EDE" format="1">
  <advance width="1446"/>
  <unicode hex="0EDE"/>
  <outline>
    <contour>
      <point x="198" y="191" type="qcurve" smooth="yes"/>
      <point x="198" y="116"/>
      <point x="273" y="116" type="qcurve" smooth="yes"/>
      <point x="349" y="116"/>
      <point x="349" y="191" type="qcurve" smooth="yes"/>
      <point x="349" y="267"/>
      <point x="273" y="267" type="qcurve" smooth="yes"/>
      <point x="198" y="267"/>
    </contour>
    <contour>
      <point x="821" y="624"/>
      <point x="821" y="610" type="qcurve" smooth="yes"/>
      <point x="821" y="596"/>
      <point x="833" y="569"/>
      <point x="855" y="554"/>
      <point x="866" y="554" type="qcurve" smooth="yes"/>
      <point x="878" y="554"/>
      <point x="899" y="569"/>
      <point x="911" y="596"/>
      <point x="911" y="610" type="qcurve" smooth="yes"/>
      <point x="911" y="624"/>
      <point x="899" y="651"/>
      <point x="878" y="666"/>
      <point x="866" y="666" type="qcurve" smooth="yes"/>
      <point x="855" y="666"/>
      <point x="833" y="651"/>
    </contour>
    <contour>
      <point x="290" y="1045" type="qcurve"/>
      <point x="290" y="1068" type="line" smooth="yes"/>
      <point x="290" y="1186"/>
      <point x="244" y="1186" type="qcurve" smooth="yes"/>
      <point x="198" y="1186"/>
      <point x="198" y="1115" type="qcurve" smooth="yes"/>
      <point x="198" y="1044"/>
      <point x="261" y="1044" type="qcurve" smooth="yes"/>
      <point x="276" y="1044"/>
    </contour>
    <contour>
      <point x="1040" y="514" type="qcurve"/>
      <point x="1040" y="950" type="line" smooth="yes"/>
      <point x="1040" y="1039"/>
      <point x="968" y="1190"/>
      <point x="846" y="1190" type="qcurve" smooth="yes"/>
      <point x="708" y="1190"/>
      <point x="611" y="1033" type="qcurve"/>
      <point x="578" y="985" type="line"/>
      <point x="578" y="260" type="line" smooth="yes"/>
      <point x="578" y="123"/>
      <point x="507" y="58" type="qcurve" smooth="yes"/>
      <point x="444" y="0"/>
      <point x="273" y="0" type="qcurve" smooth="yes"/>
      <point x="171" y="0"/>
      <point x="124" y="54" type="qcurve" smooth="yes"/>
      <point x="82" y="102"/>
      <point x="82" y="191" type="qcurve" smooth="yes"/>
      <point x="82" y="281"/>
      <point x="124" y="328" type="qcurve" smooth="yes"/>
      <point x="172" y="382"/>
      <point x="223" y="382" type="qcurve" smooth="yes"/>
      <point x="260" y="382"/>
      <point x="290" y="375" type="qcurve"/>
      <point x="290" y="930" type="line"/>
      <point x="263" y="930" type="line" smooth="yes"/>
      <point x="189" y="930"/>
      <point x="132" y="983" type="qcurve" smooth="yes"/>
      <point x="82" y="1029"/>
      <point x="82" y="1115" type="qcurve" smooth="yes"/>
      <point x="82" y="1209"/>
      <point x="131" y="1255" type="qcurve" smooth="yes"/>
      <point x="179" y="1300"/>
      <point x="273" y="1300" type="qcurve" smooth="yes"/>
      <point x="525" y="1300"/>
      <point x="567" y="1159" type="qcurve"/>
      <point x="678" y="1300"/>
      <point x="896" y="1300" type="qcurve" smooth="yes"/>
      <point x="1113" y="1300"/>
      <point x="1328" y="1124"/>
      <point x="1328" y="950" type="qcurve" smooth="yes"/>
      <point x="1328" y="735" type="line"/>
      <point x="1576" y="735" type="line"/>
      <point x="1522" y="537"/>
      <point x="1328" y="468" type="qcurve"/>
      <point x="1328" y="200" type="line" smooth="yes"/>
      <point x="1328" y="105"/>
      <point x="1278" y="0" type="qcurve"/>
      <point x="990" y="0" type="line"/>
      <point x="1040" y="75"/>
      <point x="1040" y="200" type="qcurve" smooth="yes"/>
      <point x="1040" y="432" type="line"/>
      <point x="687" y="441"/>
      <point x="687" y="610" type="qcurve" smooth="yes"/>
      <point x="687" y="645"/>
      <point x="730" y="709"/>
      <point x="805" y="744"/>
      <point x="845" y="744" type="qcurve" smooth="yes"/>
      <point x="885" y="744"/>
      <point x="970" y="709"/>
      <point x="1012" y="645"/>
      <point x="1012" y="610" type="qcurve" smooth="yes"/>
      <point x="1012" y="575"/>
      <point x="992" y="553" type="qcurve" smooth="yes"/>
      <point x="991" y="551"/>
      <point x="991" y="550" type="qcurve" smooth="yes"/>
      <point x="1011" y="524"/>
    </contour>
  </outline>
</glyph>
<glyph name="uni0EDF" format="1">
  <advance width="1365"/>
  <unicode hex="0EDF"/>
  <outline>
    <contour>
      <point x="457" y="1184" type="qcurve" smooth="yes"/>
      <point x="426" y="1184"/>
      <point x="408" y="1172" type="qcurve" smooth="yes"/>
      <point x="381" y="1154"/>
      <point x="381" y="1109" type="qcurve" smooth="yes"/>
      <point x="381" y="1033"/>
      <point x="457" y="1033" type="qcurve" smooth="yes"/>
      <point x="496" y="1033"/>
      <point x="515" y="1054" type="qcurve" smooth="yes"/>
      <point x="532" y="1073"/>
      <point x="532" y="1109" type="qcurve" smooth="yes"/>
      <point x="532" y="1150"/>
      <point x="510" y="1169" type="qcurve" smooth="yes"/>
      <point x="491" y="1184"/>
    </contour>
    <contour>
      <point x="737" y="674"/>
      <point x="737" y="660" type="qcurve" smooth="yes"/>
      <point x="737" y="646"/>
      <point x="749" y="619"/>
      <point x="771" y="604"/>
      <point x="782" y="604" type="qcurve" smooth="yes"/>
      <point x="794" y="604"/>
      <point x="815" y="619"/>
      <point x="827" y="646"/>
      <point x="827" y="660" type="qcurve" smooth="yes"/>
      <point x="827" y="674"/>
      <point x="815" y="701"/>
      <point x="794" y="716"/>
      <point x="782" y="716" type="qcurve" smooth="yes"/>
      <point x="771" y="716"/>
      <point x="749" y="701"/>
    </contour>
    <contour>
      <point x="1247" y="519" type="qcurve"/>
      <point x="1247" y="380" type="line" smooth="yes"/>
      <point x="1247" y="187"/>
      <point x="1117" y="92" type="qcurve" smooth="yes"/>
      <point x="993" y="0"/>
      <point x="668" y="0" type="qcurve" smooth="yes"/>
      <point x="342" y="0"/>
      <point x="217" y="83" type="qcurve" smooth="yes"/>
      <point x="97" y="163"/>
      <point x="97" y="350" type="qcurve" smooth="yes"/>
      <point x="97" y="574"/>
      <point x="310" y="640" type="qcurve"/>
      <point x="97" y="713"/>
      <point x="97" y="870" type="qcurve" smooth="yes"/>
      <point x="97" y="1005" type="line" smooth="yes"/>
      <point x="97" y="1177"/>
      <point x="202" y="1248" type="qcurve" smooth="yes"/>
      <point x="277" y="1300"/>
      <point x="457" y="1300" type="qcurve" smooth="yes"/>
      <point x="552" y="1300"/>
      <point x="599" y="1253" type="qcurve" smooth="yes"/>
      <point x="647" y="1205"/>
      <point x="647" y="1110" type="qcurve" smooth="yes"/>
      <point x="647" y="1014"/>
      <point x="600" y="966" type="qcurve" smooth="yes"/>
      <point x="552" y="918"/>
      <point x="477" y="918" type="qcurve" smooth="yes"/>
      <point x="431" y="918"/>
      <point x="385" y="948" type="qcurve"/>
      <point x="385" y="870" type="line" smooth="yes"/>
      <point x="385" y="704"/>
      <point x="547" y="704" type="qcurve" smooth="yes"/>
      <point x="612" y="704" type="line"/>
      <point x="617" y="716"/>
      <point x="625" y="727" type="qcurve" smooth="yes"/>
      <point x="646" y="759"/>
      <point x="721" y="794"/>
      <point x="761" y="794" type="qcurve" smooth="yes"/>
      <point x="801" y="794"/>
      <point x="886" y="759"/>
      <point x="928" y="695"/>
      <point x="928" y="660" type="qcurve" smooth="yes"/>
      <point x="928" y="625"/>
      <point x="908" y="603" type="qcurve" smooth="yes"/>
      <point x="907" y="601"/>
      <point x="907" y="600" type="qcurve" smooth="yes"/>
      <point x="929" y="573"/>
      <point x="959" y="563" type="qcurve"/>
      <point x="959" y="1100" type="line" smooth="yes"/>
      <point x="959" y="1195"/>
      <point x="1009" y="1300" type="qcurve"/>
      <point x="1297" y="1300" type="line"/>
      <point x="1247" y="1225"/>
      <point x="1247" y="1100" type="qcurve" smooth="yes"/>
      <point x="1247" y="785" type="line"/>
      <point x="1492" y="785" type="line"/>
      <point x="1438" y="588"/>
    </contour>
    <contour>
      <point x="627" y="583" type="qcurve"/>
      <point x="627" y="570" type="line"/>
      <point x="547" y="570" type="line" smooth="yes"/>
      <point x="385" y="570"/>
      <point x="385" y="350" type="qcurve" smooth="yes"/>
      <point x="385" y="229"/>
      <point x="508" y="110"/>
      <point x="668" y="110" type="qcurve" smooth="yes"/>
      <point x="848" y="110"/>
      <point x="959" y="253"/>
      <point x="959" y="380" type="qcurve" smooth="yes"/>
      <point x="959" y="481" type="line"/>
      <point x="695" y="488"/>
    </contour>
  </outline>
</glyph>
<glyph name="glyph140" format="1">
  <advance width="0"/>
  <outline>
    <contour>
      <point x="-55" y="-173"/>
      <point x="-63" y="-193"/>
      <point x="-63" y="-205" type="qcurve" smooth="yes"/>
      <point x="-63" y="-216"/>
      <point x="-55" y="-236"/>
      <point x="-43" y="-249"/>
      <point x="-36" y="-249" type="qcurve" smooth="yes"/>
      <point x="-29" y="-249"/>
      <point x="-16" y="-236"/>
      <point x="-10" y="-216"/>
      <point x="-10" y="-205" type="qcurve" smooth="yes"/>
      <point x="-10" y="-193"/>
      <point x="-16" y="-173"/>
      <point x="-29" y="-161"/>
      <point x="-36" y="-161" type="qcurve" smooth="yes"/>
      <point x="-42" y="-161"/>
    </contour>
    <contour>
      <point x="-41" y="-347" type="qcurve"/>
      <point x="-65" y="-343"/>
      <point x="-87" y="-329" type="qcurve" smooth="yes"/>
      <point x="-118" y="-310"/>
      <point x="-151" y="-243"/>
      <point x="-151" y="-205" type="qcurve" smooth="yes"/>
      <point x="-151" y="-166"/>
      <point x="-116" y="-97"/>
      <point x="-56" y="-61"/>
      <point x="-24" y="-61" type="qcurve" smooth="yes"/>
      <point x="58" y="-61"/>
      <point x="118" y="-97"/>
      <point x="152" y="-166"/>
      <point x="152" y="-205" type="qcurve" smooth="yes"/>
      <point x="152" y="-448"/>
      <point x="-33" y="-511" type="qcurve"/>
      <point x="-138" y="-423" type="line"/>
      <point x="-71" y="-411"/>
    </contour>
  </outline>
</glyph>
<glyph name="glyph141" format="1">
  <advance width="0"/>
  <outline>
    <contour>
      <point x="-229" y="-184"/>
      <point x="-229" y="-196" type="qcurve" smooth="yes"/>
      <point x="-229" y="-209"/>
      <point x="-219" y="-229"/>
      <point x="-202" y="-242"/>
      <point x="-172" y="-244" type="qcurve"/>
      <point x="-157" y="-218"/>
      <point x="-157" y="-196" type="qcurve" smooth="yes"/>
      <point x="-157" y="-184"/>
      <point x="-167" y="-163"/>
      <point x="-184" y="-150"/>
      <point x="-193" y="-150" type="qcurve" smooth="yes"/>
      <point x="-201" y="-150"/>
      <point x="-219" y="-163"/>
    </contour>
    <contour>
      <point x="-45" y="-278" type="qcurve" smooth="yes"/>
      <point x="-56" y="-315"/>
      <point x="-56" y="-351" type="qcurve" smooth="yes"/>
      <point x="-56" y="-366"/>
      <point x="-54" y="-381" type="qcurve" smooth="yes"/>
      <point x="-47" y="-406"/>
      <point x="-10" y="-406" type="qcurve" smooth="yes"/>
      <point x="37" y="-406"/>
      <point x="37" y="-262" type="qcurve" smooth="yes"/>
      <point x="37" y="-61" type="line"/>
      <point x="249" y="-61" type="line"/>
      <point x="249" y="-268" type="line" smooth="yes"/>
      <point x="249" y="-511"/>
      <point x="-10" y="-511" type="qcurve" smooth="yes"/>
      <point x="-166" y="-511"/>
      <point x="-192" y="-446" type="qcurve" smooth="yes"/>
      <point x="-208" y="-408"/>
      <point x="-208" y="-374" type="qcurve" smooth="yes"/>
      <point x="-208" y="-348"/>
      <point x="-199" y="-324" type="qcurve"/>
      <point x="-227" y="-324"/>
      <point x="-253" y="-307" type="qcurve" smooth="yes"/>
      <point x="-281" y="-289"/>
      <point x="-308" y="-226"/>
      <point x="-308" y="-193" type="qcurve" smooth="yes"/>
      <point x="-308" y="-158"/>
      <point x="-281" y="-94"/>
      <point x="-225" y="-61"/>
      <point x="-166" y="-61" type="qcurve" smooth="yes"/>
      <point x="-116" y="-61"/>
      <point x="-61" y="-94"/>
      <point x="-30" y="-158"/>
      <point x="-30" y="-193" type="qcurve" smooth="yes"/>
      <point x="-30" y="-224"/>
    </contour>
  </outline>
</glyph>
<glyph name="glyph142" format="1">
  <advance width="0"/>
  <outline>
    <contour>
      <point x="0" y="1797" type="qcurve" smooth="yes"/>
      <point x="160" y="1797"/>
      <point x="394" y="1760"/>
      <point x="501" y="1667"/>
      <point x="501" y="1628" type="qcurve"/>
      <point x="495" y="1594"/>
      <point x="471" y="1558"/>
      <point x="398" y="1507"/>
      <point x="324" y="1472"/>
      <point x="220" y="1451" type="qcurve" smooth="yes"/>
      <point x="212" y="1451"/>
      <point x="206" y="1450" type="qcurve"/>
      <point x="146" y="1530" type="line"/>
      <point x="229" y="1574"/>
      <point x="229" y="1624" type="qcurve" smooth="yes"/>
      <point x="229" y="1673"/>
      <point x="153" y="1705"/>
      <point x="0" y="1705" type="qcurve" smooth="yes"/>
      <point x="-153" y="1705"/>
      <point x="-229" y="1673"/>
      <point x="-229" y="1624" type="qcurve" smooth="yes"/>
      <point x="-229" y="1574"/>
      <point x="-146" y="1530" type="qcurve"/>
      <point x="-206" y="1450" type="line"/>
      <point x="-212" y="1451"/>
      <point x="-220" y="1451" type="qcurve" smooth="yes"/>
      <point x="-324" y="1472"/>
      <point x="-398" y="1507"/>
      <point x="-471" y="1558"/>
      <point x="-495" y="1594"/>
      <point x="-501" y="1628" type="qcurve"/>
      <point x="-501" y="1667"/>
      <point x="-394" y="1760"/>
      <point x="-160" y="1797"/>
    </contour>
  </outline>
</glyph>
